<svg xmlns="http://www.w3.org/2000/svg" viewBox="0 0 600 300"><g><text x="50%" y="0" style="fill: rgb(54, 58, 61); dominant-baseline: text-before-edge; text-anchor: middle; font-weight: bold; font-size: 13px; font-family: sans-serif;">Sequence Length Warmup</text></g><g transform="translate(0, 23)"><svg class="rv-xy-plot__inner" width="600" height="277"><g transform="translate(51.6,5)" class="rv-xy-plot__grid-lines"><line y1="242" y2="242" x1="0" x2="528.4" class="rv-xy-plot__grid-lines__line" style="stroke-width: 0.5;"/><line y1="194.734375" y2="194.734375" x1="0" x2="528.4" class="rv-xy-plot__grid-lines__line" style="stroke-width: 0.5;"/><line y1="147.46875" y2="147.46875" x1="0" x2="528.4" class="rv-xy-plot__grid-lines__line" style="stroke-width: 0.5;"/><line y1="100.203125" y2="100.203125" x1="0" x2="528.4" class="rv-xy-plot__grid-lines__line" style="stroke-width: 0.5;"/><line y1="52.9375" y2="52.9375" x1="0" x2="528.4" class="rv-xy-plot__grid-lines__line" style="stroke-width: 0.5;"/><line y1="5.671875" y2="5.671875" x1="0" x2="528.4" class="rv-xy-plot__grid-lines__line" style="stroke-width: 0.5;"/></g><path d="M0,240.109375L0.41189309576837413,240.109375L0.529576837416481,240.109375L0.5884187082405344,240.109375L0.9414699331848552,240.109375L1.8829398663697103,238.21875L2.059465478841871,238.21875L2.118307349665924,238.21875L2.7655679287305124,238.21875L3.000935412026726,236.328125L3.2363028953229396,236.328125L3.295144766146993,236.328125L3.5893541202672603,236.328125L3.6481959910913138,236.328125L4.6485077951002225,234.4375L5.589977728285078,232.546875L5.648819599109131,232.546875L6.178396436525612,232.546875L7.414075723830734,230.65625L7.884810690423162,228.765625L8.532071269487751,228.765625L8.708596881959911,228.765625L8.82628062360802,228.765625L9.179331848552339,226.875L10.061959910913139,226.875L10.768062360801782,224.984375L11.23879732739421,224.984375L11.356481069042315,224.984375L11.709532293986637,223.09375L12.180267260579065,223.09375L12.415634743875279,223.09375L12.651002227171492,223.09375L13.29826280623608,221.203125L13.47478841870824,221.203125L13.533630289532294,221.203125L14.004365256124721,219.3125L14.357416481069041,219.3125L15.298886414253897,217.421875L15.53425389755011,217.421875L15.769621380846324,217.421875L15.946146993318484,217.421875L16.00498886414254,217.421875L16.53456570155902,215.53125L16.711091314031183,215.53125L17.005300668151445,215.53125L17.064142538975503,215.53125L17.534877505567927,215.53125L17.829086859688196,213.640625L18.005612472160358,213.640625L18.476347438752782,213.640625L20.006236080178173,211.75L20.065077951002227,211.75L20.123919821826277,211.75L20.359287305122493,209.859375L20.418129175946547,209.859375L20.59465478841871,209.859375L20.712338530066813,209.859375L21.006547884187082,209.859375L21.12423162583519,209.859375L21.418440979955456,207.96875L21.536124721603564,207.96875L21.653808463251668,207.96875L22.47759465478842,207.96875L22.595278396436523,207.96875L22.771804008908685,206.078125L22.83064587973274,206.078125L23.595590200445436,206.078125L23.71327394209354,206.078125L23.772115812917594,206.078125L25.06663697104677,204.1875L25.24316258351893,202.296875L25.302004454342985,202.296875L25.59621380846325,202.296875L25.713897550111355,202.296875L26.184632516703786,202.296875L26.24347438752784,202.296875L26.831893095768372,200.40625L27.361469933184857,200.40625L27.47915367483296,200.40625L27.949888641425385,198.515625L28.244097995545655,198.515625L28.302939866369712,198.515625L28.361781737193763,198.515625L28.420623608017817,198.515625L28.53830734966592,198.515625L28.714832962138082,198.515625L28.773674832962136,198.515625L28.950200445434298,196.625L29.303251670378618,196.625L29.420935412026726,196.625L31.009665924276167,194.734375L31.774610244988864,192.84375L32.83376391982183,190.953125L33.1279732739421,190.953125L33.53986636971047,190.953125L33.657550111358574,190.953125L34.42249443207127,189.0625L34.48133630289532,189.0625L35.12859688195991,187.171875L35.36396436525612,187.171875L36.12890868596882,187.171875L37.129220489977726,185.28125L37.36458797327394,185.28125L37.59995545657016,183.390625L37.658797327394204,183.390625L37.717639198218265,183.390625L38.01184855233853,183.390625L38.600267260579066,183.390625L39.129844097995544,181.5L39.77710467706014,181.5L41.36583518930958,177.71875L41.54236080178174,177.71875L41.718886414253895,177.71875L41.77772828507795,177.71875L41.836570155902,177.71875L43.013407572383066,175.828125L43.18993318485523,175.828125L43.24877505567929,175.828125L44.42561247216036,173.9375L44.602138084632514,173.9375L45.01403118040089,172.046875L45.131714922049,172.046875L46.36739420935412,170.15625L46.42623608017817,170.15625L46.77928730512249,170.15625L47.367706013363026,168.265625L47.83844097995545,168.265625L47.95612472160356,168.265625L48.01496659242762,168.265625L48.25033407572383,168.265625L49.19180400890868,166.375L49.25064587973274,166.375L49.368329621380845,166.375L49.95674832962138,164.484375L50.368641425389754,164.484375L51.01590200445434,164.484375L51.36895322939866,162.59375L51.545478841870825,162.59375L51.72200445434298,162.59375L52.0750556792873,162.59375L52.31042316258352,160.703125L52.78115812917594,160.703125L52.84,160.703125L52.957683741648104,160.703125L53.36957683741648,160.703125L53.48726057906458,160.703125L53.663786191536744,158.8125L54.134521158129175,158.8125L54.722939866369714,158.8125L55.19367483296213,156.921875L55.311358574610246,156.921875L55.37020044543429,156.921875L55.605567928730515,156.921875L55.840935412026724,156.921875L55.95861915367483,156.921875L57.429665924276165,153.140625L57.488507795100226,153.140625L57.900400890868596,153.140625L58.37113585746102,153.140625L58.48881959910913,151.25L58.7830289532294,151.25L59.194922048997775,151.25L59.312605790645875,151.25L59.37144766146994,151.25L59.606815144766145,151.25L59.6656570155902,151.25L59.78334075723831,149.359375L59.84218262806235,149.359375L60.54828507795099,149.359375L60.901336302895324,149.359375L60.96017817371938,147.46875L61.60743875278396,147.46875L62.13701559020044,147.46875L62.37238307349666,145.578125L62.78427616926503,145.578125L63.01964365256124,145.578125L63.13732739420936,145.578125L63.490378619153674,143.6875L64.01995545657016,143.6875L64.07879732739421,143.6875L64.78489977728285,141.796875L65.66752783964365,141.796875L65.72636971046771,141.796875L65.90289532293987,139.90625L66.37363028953229,139.90625L66.55015590200445,139.90625L66.72668151447661,139.90625L66.78552338530066,139.90625L67.2562583518931,138.015625L67.31510022271715,138.015625L67.90351893095769,138.015625L68.49193763919821,136.125L68.60962138084632,136.125L68.90383073496659,136.125L69.60993318485522,134.234375L70.31603563474387,134.234375L70.84561247216035,132.34375L71.19866369710466,132.34375L71.37518930957683,132.34375L71.55171492204899,132.34375L71.61055679287306,132.34375L72.31665924276169,130.453125L73.14044543429843,130.453125L73.5523385300668,128.5625L74.1995991091314,128.5625L74.9645434298441,126.671875L75.31759465478841,126.671875L75.37643652561248,126.671875L75.67064587973273,126.671875L75.8471714922049,124.78125L76.14138084632516,124.78125L76.84748329621381,124.78125L78.02432071269487,122.890625L78.49505567928729,121L79.55420935412027,119.109375L79.78957683741648,119.109375L79.90726057906458,119.109375L80.1426280623608,119.109375L80.43683741648107,119.109375L80.84873051224943,117.21875L81.08409799554565,117.21875L81.43714922048997,117.21875L81.55483296213808,117.21875L82.26093541202671,115.328125L83.37893095768374,113.4375L83.43777282850779,113.4375L83.61429844097995,113.4375L84.73229398663698,111.546875L84.79113585746101,111.546875L84.96766146993318,111.546875L85.85028953229397,109.65625L85.90913140311804,109.65625L85.96797327394209,109.65625L86.37986636971046,109.65625L86.55639198218262,109.65625L86.8506013363029,109.65625L87.26249443207126,107.765625L87.32133630289532,107.765625L87.38017817371937,107.765625L88.55701559020044,105.875L89.20427616926503,105.875L89.4984855233853,103.984375L89.67501113585746,103.984375L89.96922048997772,103.984375L90.32227171492204,103.984375L91.20489977728283,102.09375L92.55826280623607,100.203125L92.73478841870823,100.203125L92.85247216035634,100.203125L93.32320712694877,98.3125L93.38204899777281,98.3125L93.73510022271714,98.3125L93.97046770601335,98.3125L94.08815144766146,98.3125L94.26467706013362,98.3125L94.32351893095768,96.421875L94.91193763919821,96.421875L95.26498886414254,96.421875L95.38267260579065,96.421875L96.4418262806236,94.53125L97.91287305122493,92.640625L98.2070824053452,90.75L98.26592427616926,90.75L98.44244988864142,90.75L98.9720267260579,90.75L99.089710467706,90.75L99.14855233853007,90.75L99.8546547884187,88.859375L99.91349665924275,88.859375L100.03118040089086,88.859375L100.09002227171491,88.859375L100.38423162583518,88.859375L100.6195991091314,86.96875L101.26685968819598,86.96875L101.3845434298441,86.96875L101.85527839643652,85.078125L102.2671714922049,85.078125L102.56138084632516,85.078125L102.85559020044542,85.078125L103.2674832962138,83.1875L104.09126948775055,83.1875L104.20895322939866,81.296875L104.62084632516704,81.296875L104.7973719376392,81.296875L105.0327394209354,81.296875L105.32694877505568,81.296875L105.91536748329621,79.40625L106.09189309576837,79.40625L106.26841870824053,79.40625L106.32726057906459,79.40625L106.50378619153675,79.40625L106.797995545657,77.515625L106.97452115812916,77.515625L107.32757238307349,77.515625L107.44525612472161,77.515625L109.0928285077951,75.625L109.15167037861914,73.734375L110.56387527839642,71.84375L110.91692650334075,71.84375L111.03461024498887,71.84375L111.7407126948775,69.953125L111.91723830734966,69.953125L112.79986636971047,69.953125L113.56481069042316,68.0625L113.68249443207127,68.0625L114.09438752783964,66.171875L114.44743875278397,66.171875L114.80048997772829,66.171875L115.03585746102449,66.171875L115.85964365256125,64.28125L116.44806236080177,64.28125L116.50690423162582,64.28125L116.62458797327393,62.390625L116.9187973273942,62.390625L117.62489977728285,62.390625L117.80142538975501,60.5L118.15447661469933,60.5L118.27216035634743,60.5L118.74289532293987,60.5L118.80173719376391,60.5L118.86057906458797,60.5L119.27247216035634,58.609375L119.3313140311804,58.609375L119.91973273942092,58.609375L120.56699331848552,56.71875L120.68467706013362,56.71875L120.80236080178173,56.71875L121.15541202672605,56.71875L121.21425389755011,56.71875L122.21456570155901,54.828125L122.39109131403117,54.828125L122.5087750556793,54.828125L122.56761692650333,54.828125L123.03835189309576,52.9375L123.5090868596882,52.9375L123.80329621380845,52.9375L123.8621380846325,52.9375L124.56824053452115,51.046875L124.98013363028953,51.046875L125.03897550111357,51.046875L125.50971046770601,49.15625L126.21581291759465,49.15625L126.45118040089086,47.265625L126.56886414253897,47.265625L126.98075723830735,47.265625L127.45149220489978,47.265625L127.51033407572383,47.265625L127.74570155902003,45.375L127.86338530066816,45.375L128.39296213808464,45.375L128.6871714922049,45.375L129.15790645879733,43.484375L130.45242761692649,41.59375L130.74663697104677,41.59375L131.0996881959911,41.59375L131.2173719376392,41.59375L132.5118930957684,39.703125L133.33567928730514,37.8125L133.5122048997773,37.8125L133.6298886414254,37.8125L133.68873051224946,37.8125L134.1006236080178,35.921875L134.80672605790645,35.921875L134.86556792873048,35.921875L135.04209354120266,35.921875L135.80703786191538,34.03125L136.10124721603563,34.03125L136.1600890868597,34.03125L136.2189309576837,34.03125L136.7485077951002,32.140625L137.3957683741648,32.140625L138.3960801781737,30.25L138.51376391982183,30.25L138.57260579064587,30.25L138.690289532294,30.25L139.04334075723833,28.359375L139.1610244988864,28.359375L139.6906013363029,28.359375L139.9259688195991,28.359375L139.98481069042316,28.359375L140.10249443207127,26.46875L140.4555456570156,26.46875L140.57322939866367,26.46875L141.04396436525613,26.46875L141.39701559020043,24.578125L141.75006681514475,24.578125L142.4561692650334,24.578125L143.04458797327393,22.6875L143.10342984409797,22.6875L143.39763919821826,22.6875L143.63300668151447,22.6875L144.28026726057905,20.796875L145.86899777282852,18.90625L146.04552338530067,18.90625L146.22204899777284,17.015625L146.398574610245,17.015625L147.516570155902,15.125L147.57541202672607,15.125L147.92846325167037,15.125L148.98761692650334,13.234375L149.22298440979955,13.234375L149.39951002227173,13.234375L149.87024498886413,13.234375L149.98792873051224,11.34375L150.1644543429844,11.34375L150.45866369710467,11.34375L150.69403118040088,11.34375L150.75287305122495,11.34375L151.2824498886414,9.453125L151.40013363028953,9.453125L151.92971046770603,9.453125L152.16507795100222,9.453125L152.22391982182629,9.453125L153.40075723830734,7.5625L153.5772828507795,7.5625L153.63612472160355,5.671875L153.93033407572383,5.671875L154.3422271714922,5.671875L154.4599109131403,5.671875L155.3425389755011,3.78125L155.4602227171492,3.78125L155.81327394209353,3.78125L155.8721158129176,3.78125L156.28400890868596,1.890625L156.99011135857458,1.890625L157.04895322939865,1.890625L157.2843207126949,1.890625L157.8727394209354,0L158.4023162583519,0L158.57884187082405,0L158.9907349665924,0L160.57946547884185,0L160.63830734966592,0L161.46209354120268,0L161.9328285077951,0L162.10935412026726,0L163.34503340757237,0L163.5804008908686,0L163.87461024498884,0L164.52187082405342,0L165.16913140311803,0L165.34565701559018,0L165.52218262806235,0L165.99291759465478,0L166.46365256124722,0L166.81670378619154,0L167.58164810690423,0L167.93469933184855,0L168.1112249443207,0L168.17006681514476,0L168.2289086859688,0L168.6408017817372,0L169.93532293986635,0L169.99416481069042,0L170.28837416481068,0L170.34721603563474,0L170.641425389755,0L171.1710022271715,0L171.46521158129175,0L171.52405345211582,0L171.81826280623608,0L171.87710467706012,0L172.2889977728285,0L173.11278396436524,0L173.46583518930956,0L173.52467706013363,0L173.64236080178173,0L173.87772828507792,0L174.34846325167038,0L174.7015144766147,0L174.87804008908688,0L174.9368819599109,0L175.23109131403118,0L175.34877505567928,0L175.4664587973274,0L175.5841425389755,0L175.81951002227171,0L176.4667706013363,0L176.52561247216036,0L177.40824053452113,0L177.64360801781737,0L177.70244988864144,0L177.82013363028952,0L177.93781737193763,0L178.05550111358576,0L178.34971046770602,0L178.52623608017817,0L178.64391982182627,0L179.05581291759466,0L179.5853897550111,0L179.76191536748328,0L180.29149220489975,0L180.76222717149219,0L181.29180400890868,0L181.35064587973272,0L181.58601336302894,0L181.70369710467705,0L181.7625389755011,0L181.99790645879733,0L182.82169265033406,0L182.93937639198217,0L183.41011135857462,0L183.46895322939866,0L183.5277951002227,0L184.35158129175946,0L184.70463251670378,0L184.8223162583519,0L184.88115812917596,0L185.23420935412028,0L185.64610244988862,0L185.88146993318486,0L186.23452115812918,0L186.41104677060133,0L187.0583073496659,0L187.88209354120266,0L188.11746102449888,0L188.17630289532292,0L188.4705122494432,0L188.52935412026724,0L188.82356347438753,0L189.17661469933185,0L189.2354565701559,0L189.29429844097993,0L190.00040089086858,0L190.3534521158129,0L190.471135857461,0L191.53028953229398,0L191.58913140311805,0L191.94218262806237,0L192.29523385300666,0L192.4717594654788,0L193.06017817371938,0L193.47207126948774,0L193.53091314031178,0L193.6485968819599,0L193.70743875278396,0L193.76628062360803,0L194.11933184855235,0L194.1781737193764,0L194.70775055679286,0L195.1784855233853,0L195.23732739420936,0L195.4138530066815,0L195.53153674832961,0L195.59037861915368,0L195.6492204899777,0L196.11995545657015,0L196.64953229398662,0L197.06142538975502,0L197.23795100222716,0L197.53216035634742,0L197.5910022271715,0L197.82636971046767,0L197.9440534521158,0L198.76783964365256,0L198.9443652561247,0L199.23857461024497,0L199.5916258351893,0L199.7093095768374,0L199.88583518930957,0L200.53309576837415,0L200.76846325167037,0L200.88614699331848,0L200.94498886414254,0L201.00383073496658,0L201.1215144766147,0L202.0041425389755,0L202.29835189309577,0L202.3571937639198,0L202.53371937639196,0L202.94561247216035,0L203.06329621380846,0L203.12213808463252,0L203.2398218262806,0L203.41634743875278,0L203.47518930957685,0L203.53403118040086,0L203.71055679287304,0L204.47550111358575,0L205.41697104677058,0L205.7700222717149,0L206.06423162583516,0L206.1819153674833,0L206.24075723830734,0L206.59380846325166,0L206.7703340757238,0L207.59412026726056,0L207.77064587973274,0L207.9471714922049,0L208.00601336302896,0L208.71211581291757,0L209.41821826280622,0L209.5947438752784,0L209.65358574610244,0L209.71242761692648,0L209.88895322939865,0L210.12432071269487,0L210.35968819599108,0L210.94810690423162,0L211.12463251670377,0L211.24231625835188,0L211.36,0L211.94841870824052,0L212.65452115812917,0L212.77220489977728,0L212.83104677060132,0L213.18409799554567,0L213.24293986636968,0L213.36062360801782,0L214.65514476614698,0L214.94935412026726,0L215.0081959910913,0L215.5377728285078,0L215.6554565701559,0L216.36155902004455,0L216.71461024498888,0L217.6560801781737,0L218.24449888641422,0L218.47986636971046,0L219.24481069042318,0L219.36249443207126,0L219.71554565701558,0L220.53933184855234,0L220.59817371937638,0L221.0689086859688,0L221.12775055679285,0L221.71616926503341,0L221.89269487750556,0L222.01037861915367,0L222.06922048997774,0L222.53995545657014,0L222.71648106904232,0L222.9518485523385,0L223.18721603563475,0L223.71679287305122,0L223.9521603563474,0L224.4817371937639,0L225.30552338530066,0L226.24699331848552,0L226.4235189309577,0L226.4823608017817,0L227.30614699331846,0L227.54151447661468,0L228.0122494432071,0L228.12993318485522,0L229.5421380846325,0L229.6598218262806,0L229.77750556792873,0L230.01287305122491,0L231.189710467706,0L232.07233853006682,0L232.13118040089088,0L232.1900222717149,0L232.6019153674833,0L232.77844097995546,0L232.9549665924276,0L233.36685968819597,0L233.7199109131403,0L233.8375946547884,0L234.19064587973273,0L234.42601336302894,0L234.77906458797327,0L235.01443207126948,0L235.42632516703785,0L235.48516703786188,0L235.60285077951002,0L236.42663697104678,0L236.48547884187082,0L236.60316258351892,0L236.66200445434296,0L236.72084632516703,0L236.89737193763918,0L237.83884187082404,0L238.07420935412026,0L238.2507349665924,0L238.72146993318484,0L238.7803118040089,0L239.42757238307348,0L239.8983073496659,0L240.3102004454343,0L240.36904231625834,0L240.5455679287305,0L240.72209354120267,0L241.5458797327394,0L241.66356347438753,0L241.95777282850779,0L242.0754565701559,0L242.3108240534521,0L242.66387527839643,0L243.78187082405344,0L244.42913140311802,0L244.6056570155902,0L244.66449888641426,0L244.78218262806234,0L245.19407572383074,0L245.6059688195991,0L246.31207126948775,0L246.54743875278393,0L247.19469933184857,0L247.31238307349665,0L247.43006681514476,0L247.78311804008908,0L248.43037861915366,0L248.9011135857461,0L249.37184855233852,0L249.48953229398663,0L249.901425389755,0L250.19563474387527,0L250.5486859688196,0L250.78405345211578,0L251.4313140311804,0L251.6666815144766,0L251.84320712694878,0L253.25541202672605,0L253.37309576837416,0L253.6673051224944,0L254.07919821826277,0L254.25572383073495,0L254.60877505567927,0L255.7267706013363,0L256.02097995545654,0L256.07982182628064,0L256.31518930957685,0L256.491714922049,0L256.66824053452115,0L256.7270824053452,0L256.9624498886414,0L257.55086859688197,0L257.66855233853005,0L257.7273942093541,0L259.2572828507795,0L259.31612472160356,0L259.3749665924276,0L259.49265033407573,0L260.6106458797327,0L260.72832962138085,0L261.08138084632515,0L261.1990645879732,0L261.4344320712695,0L262.02285077951,0L262.31706013363026,0L262.5524276169265,0L262.6112694877505,0L262.8466369710468,0L263.1996881959911,0L263.2585300668151,0L263.72926503340756,0L263.9646325167038,0L264.7884187082405,0L266.2594654788419,0L266.49483296213805,0L266.55367483296214,0L266.73020044543426,0L266.7890423162583,0L267.08325167037856,0L267.2597772828508,0L267.3774610244989,0L267.4363028953229,0L267.90703786191534,0L268.0835634743875,0L268.2600890868597,0L268.4366146993318,0L268.73082405345207,0L269.14271714922046,0L269.4369265033407,0L269.55461024498885,0L269.8488195991091,0L270.14302895322936,0L270.79028953229397,0L271.14334075723826,0L271.20218262806236,0L271.2610244988864,0L271.37870824053454,0L271.96712694877505,0L272.02596881959914,0L272.14365256124717,0L272.3201781737194,0L272.37902004454344,0L272.4378619153674,0L272.4967037861915,0L272.6732293986637,0L273.02628062360805,0L273.20280623608016,0L273.4970155902004,0L273.85006681514477,0L274.2619599109131,0L276.321425389755,0L276.5567928730512,0L277.26289532293987,0L277.7336302895323,0L277.9689977728285,0L278.02783964365256,0L278.26320712694877,0L278.9693095768374,0L279.02815144766146,0L279.08699331848555,0L279.14583518930954,0L279.20467706013363,0L279.4400445434298,0L279.5577282850779,0L279.9696213808463,0L280.55804008908683,0L281.08761692650336,0L281.14645879732734,0L281.20530066815144,0L281.3818262806236,0L281.79371937639195,0L281.852561247216,0L281.9114031180401,0L281.9702449888641,0L282.20561247216034,0L282.73518930957687,0L283.1470824053452,0L283.4412917594655,0L283.61781737193763,0L283.9120267260579,0L284.1473942093541,0L284.3827616926503,0L284.4416035634744,0L284.5592873051225,0L284.73581291759467,0L285.147706013363,0L285.20654788418705,0L285.3830734966592,0L285.5007572383073,0L285.61844097995544,0L286.26570155902004,0L286.9129621380846,0L287.03064587973273,0L287.5013808463251,0L287.9721158129176,0L288.7959020044544,0L289.3843207126949,0L290.1492650334075,0L290.32579064587975,0L290.50231625835187,0L290.62,0L292.32641425389755,0L292.3852561247216,0L292.5029398663697,0L292.6206236080178,0L292.9736748329621,0L293.2090423162583,0L293.3855679287305,0L293.5620935412026,0L294.15051224944324,0L294.2681959910913,0L294.4447216035635,0L295.033140311804,0L295.32734966592426,0L295.4450334075724,0L295.5627171492205,0L295.73924276169265,0L296.209977728285,0L296.85723830734963,0L297.269131403118,0L297.50449888641424,0L297.5633407572383,0L297.97523385300667,0L298.2694432071269,0L298.6813363028953,0L299.6228062360802,0L299.79933184855236,0L300.15238307349665,0L300.3289086859688,0L300.4465924276169,0L300.505434298441,0L300.564276169265,0L301.2115367483296,0L301.32922048997773,0L301.5057461024499,0L302.0353229398664,0L302.0941648106904,0L302.38837416481067,0L302.741425389755,0L303.0356347438753,0L303.0944766146993,0L303.27100222717144,0L303.91826280623604,0L304.7420489977728,0L304.91857461024495,0L305.6835189309577,0L305.80120267260577,0L305.86004454342986,0L306.21309576837416,0L306.2719376391982,0L306.33077951002224,0L306.74267260579063,0L306.97804008908685,0L307.56645879732736,0L308.4490868596882,0L309.0375055679287,0L309.2140311804009,0L309.2728730512249,0L309.39055679287304,0L309.80244988864143,0L309.9201336302895,0L310.3320267260579,0L310.5085523385301,0L311.567706013363,0L311.8619153674833,0L312.45033407572384,0L312.68570155902,0L312.7445434298441,0L313.5683296213809,0L314.5097995545657,0L314.6863251670378,0L315.1570601336303,0L315.2747438752784,0L315.980846325167,0L316.09853006681516,0L316.3927394209354,0L316.6281069042316,0L316.68694877505567,0L317.3342093541202,0L317.51073496659245,0L317.5695768374165,0L318.45220489977726,0L318.92293986636975,0L319.334832962138,0L319.5702004454343,0L320.2174610244989,0L320.5705122494432,0L321.51198218262806,0L321.6296659242762,0L321.8061915367483,0L322.4534521158129,0L322.6299777282851,0L323.51260579064586,0L323.630289532294,0L323.92449888641426,0L324.1010244988864,0L324.2775501113586,0L324.39523385300663,0L324.51291759465477,0L324.748285077951,0L325.1013363028953,0L325.1601781737194,0L325.2190200445434,0L325.2778619153675,0L325.3955456570156,0L325.866280623608,0L326.7489086859688,0L327.3373273942093,0L327.6315367483296,0L327.8669042316258,0L328.3964810690423,0L328.45532293986633,0L328.51416481069043,0L329.161425389755,0L329.98521158129176,0L330.220579064588,0L330.51478841870824,0L330.98552338530067,0L331.51510022271714,0L331.6327839643653,0L332.8096213808463,0L333.75109131403116,0L333.98645879732743,0L334.4571937639198,0L335.16329621380845,0L335.2221380846325,0L335.4575055679287,0L335.57518930957684,0L335.8693986636971,0L336.1047661469933,0L336.16360801781735,0L336.34013363028953,0L336.57550111358574,0L336.6931848552339,0L336.869710467706,0L337.1050779510022,0L337.4581291759465,0L337.75233853006677,0L338.16423162583516,0L338.22307349665925,0L339.16454342984406,0L339.22338530066816,0L339.8706458797327,0L340.04717149220494,0L340.4002227171492,0L340.4590645879732,0L340.8709576837416,0L340.98864142538974,0L341.04748329621384,0L341.81242761692647,0L342.5773719376392,0L343.3423162583519,0L343.63652561247216,0L344.3426280623608,0L345.75483296213804,0L345.9313585746102,0L346.04904231625835,0L346.5197772828508,0L346.63746102449886,0L346.9316703786191,0L347.5789309576837,0L347.873140311804,0L348.1085077951002,0L348.3438752783964,0L349.1088195991091,0L349.8737639198218,0L350.109131403118,0L350.6387082405345,0L350.75639198218266,0L350.81523385300665,0L351.3448106904232,0L352.4039643652561,0L352.9923830734966,0L353.0512249443207,0L353.345434298441,0L353.404276169265,0L353.75732739420937,0L353.87501113585745,0L354.87532293986635,0L354.9341648106904,0L356.05216035634743,0L356.87594654788415,0L357.1701559020044,0L357.46436525612467,0L358.28815144766145,0L358.70004454342984,0L358.87657015590196,0L359.46498886414247,0L359.70035634743874,0L359.87688195991086,0L360.1710913140311,0L360.6418262806236,0L360.8183518930957,0L360.9948775055679,0L361.4656124721604,0L361.75982182628064,0L362.70129175946545,0L363.4662360801782,0L363.58391982182627,0L363.6427616926503,0L363.7016035634744,0L364.1723385300668,0L364.34886414253896,0L364.40770601336305,0L364.6430734966592,0L364.93728285077947,0L365.76106904231625,0L365.87875278396433,0L365.93759465478837,0L366.0552783964365,0L366.1141202672606,0L366.40832962138086,0L366.93790645879733,0L367.70285077951,0L367.93821826280623,0L368.1147438752784,0L368.1735857461024,0L368.3501113585746,0L369.05621380846327,0L369.2327394209354,0L369.3504231625835,0L369.6446325167038,0L369.7623162583519,0L369.82115812917596,0L371.1156792873051,0L371.7040979955456,0L371.93946547884184,0L372.35135857461023,0L372.41020044543427,0L372.99861915367484,0L373.35167037861913,0L375.6465033407572,0L375.76418708240533,0L375.8230289532294,0L376.7056570155902,0L377.2940757238307,0L377.4706013363029,0L377.8824944320712,0L378.82396436525613,0L378.9416481069042,0L379.82427616926503,0L380.82458797327394,0L381.5895322939866,0L382.00142538975496,0L382.7663697104677,0L383.47247216035635,0L383.5901559020044,0L384.11973273942095,0L385.70846325167037,0L385.8261469933185,0L385.9438307349665,0L386.06151447661466,0L386.8264587973274,0L387.0029844097995,0L387.06182628062356,0L387.1795100222717,0L387.5914031180401,0L388.2386636971047,0L388.591714922049,0L389.0624498886414,0L389.12129175946546,0L389.4155011135857,0L389.709710467706,0L389.88623608017815,0L390.3569710467706,0L390.4746547884187,0L390.53349665924276,0L390.768864142539,0L390.8865478841871,0L391.4749665924276,0L391.65149220489974,0L392.2399109131403,0L392.4752783964365,0L393.4167483296214,0L393.4755902004454,0L393.65211581291754,0L393.8874832962138,0L393.94632516703786,0L394.65242761692645,0L395.5350556792873,0L395.7704231625835,0L395.8881069042316,0L396.5353674832962,0L396.9472605790646,0L397.06494432071264,0L397.3003118040089,0L397.7710467706013,0L397.8298886414254,0L398.6536748329621,0L398.71251670378615,0L399.0067260579064,0L399.53630289532293,0L399.9481959910913,0L400.0658797327394,0L400.71314031180395,0L400.77198218262805,0L400.8308240534521,0L401.3015590200446,0L402.18418708240534,0L402.3018708240535,0L402.59608017817374,0L403.00797327394207,0L404.42017817371936,0L404.4790200445434,0L404.83207126948776,0L405.0674387527839,0L405.3028062360802,0L405.83238307349666,0L406.3031180400891,0L406.77385300668146,0L406.83269487750556,0L407.00922048997774,0L408.7744766146993,0L409.1863697104677,0L409.24521158129176,0L409.59826280623605,0L410.3632071269488,0L410.9516258351893,0L411.65772828507795,0L411.89309576837417,0L412.30498886414256,0L412.3638307349666,0L412.77572383073493,0L413.4818262806236,0L414.30561247216036,0L414.3644543429844,0L414.42329621380844,0L414.71750556792875,0L416.3650779510022,0L416.71812917594656,0L417.24770601336303,0L417.42423162583515,0L417.5419153674833,0L418.18917594654783,0L418.30685968819597,0L418.48338530066815,0L418.71875278396436,0L418.7775946547884,0L418.83643652561244,0L419.0129621380846,0L419.1894877505568,0L419.7779064587973,0L419.9544320712695,0L420.1309576837416,0L420.54285077951,0L420.89590200445434,0L421.42547884187076,0L422.0138975501114,0L422.9553674832962,0L423.24957683741644,0L424.3675723830735,0L425.8386191536748,0L427.191982182628,0L427.6038752783964,0L427.95692650334075,0L428.251135857461,0L428.54534521158126,0L428.89839643652556,0L429.0749220489978,0L429.4868151447661,0L430.8990200445434,0L431.1932293986637,0L432.37006681514475,0L432.5465924276169,0L433.37037861915366,0L433.48806236080173,0L433.6645879732739,0L433.95879732739417,0L434.3118485523385,0L435.2533184855234,0L435.7240534521158,0L436.01826280623607,0L436.1947884187082,0L436.8420489977728,0L437.43046770601336,0L437.6069933184855,0L438.96035634743873,0L439.07804008908687,0L439.54877505567924,0L439.7841425389755,0L439.9018262806236,0L440.313719376392,0L440.96097995545654,0L441.37287305122493,0L441.7259242761693,0L441.9024498886414,0L441.96129175946544,0L442.2555011135857,0L442.60855233853005,0L443.3146547884187,0L443.37349665924273,0L443.49118040089087,0L443.667706013363,0L443.7265478841871,0L443.8442316258352,0L444.19728285077946,0L444.5503340757238,0L444.9622271714922,0L445.37412026726054,0L445.43296213808463,0L445.60948775055675,0L445.7860133630289,0L446.0802227171492,0L447.02169265033405,0L448.84579064587973,0L448.9634743875278,0L449.3753674832962,0L449.84610244988863,0L449.9637861915367,0L450.7287305122494,0L450.9052561247216,0L451.5525167037861,0L451.84672605790644,0L452.1997772828508,0L452.2586191536748,0L452.49398663697104,0L452.6116703786191,0L453.31777282850777,0L453.3766146993318,0L453.4354565701559,0L454.14155902004455,0L454.25924276169263,0L454.67113585746097,0L455.0241870824053,0L455.14187082405346,0L455.2007126948775,0L455.4360801781737,0L455.6714476614699,0L455.73028953229397,0L455.789131403118,0L456.0833407572383,0L456.14218262806236,0L456.25986636971044,0L456.73060133630287,0L456.907126948775,0L457.26017817371934,0L457.3190200445434,0L457.4955456570156,0L457.90743875278395,0L458.4958574610245,0L459.0254342984409,0L459.14311804008906,0L459.67269487750553,0L459.7315367483296,0L459.8492204899777,0L460.0845879732739,0L460.7906904231626,0L461.3791091314031,0L462.08521158129173,0L462.20289532293987,0L462.55594654788416,0L462.6147884187082,0L462.73247216035634,0L463.8504677060134,0L464.20351893095767,0L464.26236080178177,0L464.9096213808463,0L464.96846325167036,0L465.32151447661465,0L465.8510913140312,0L466.14530066815144,0L466.32182628062355,0L467.2044543429844,0L468.8520267260579,0L468.910868596882,0L468.96971046770597,0L469.79349665924275,0L469.8523385300668,0L470.087706013363,0L470.20538975501114,0L470.3230734966592,0L470.4407572383073,0L470.9114922048998,0L471.61759465478843,0L471.7352783964365,0L472.5002227171492,0L472.61790645879734,0L472.7355902004454,0L474.3243207126948,0L474.9715812917595,0L475.0304231625835,0L475.0892650334075,0L475.44231625835187,0L475.56,0L476.1484187082405,0L476.20726057906455,0L476.26610244988865,0L476.38378619153673,0L476.44262806236077,0L476.61915367483294,0L476.7956792873051,0L476.85452115812916,0L477.38409799554563,0L477.795991091314,0L478.26672605790645,0L479.26703786191536,0L479.50240534521157,0L479.5612472160356,0L479.85545657015587,0L480.4438752783964,0L481.38534521158124,0L481.5030289532294,0L481.6207126948775,0L481.67955456570155,0L481.7383964365256,0L481.91492204899777,0L482.150289532294,0L482.44449888641424,0L483.268285077951,0L483.44481069042314,0L484.03322939866365,0L484.0920712694877,0L484.2097550111358,0L484.32743875278396,0L484.5039643652561,0L485.0335412026726,0L485.1512249443207,0L485.6219599109131,0L486.09269487750555,0L486.7987973273942,0L486.85763919821824,0L487.44605790645875,0L487.681425389755,0L488.44636971046765,0L488.50521158129175,0L488.799420935412,0L488.85826280623604,0L489.32899777282853,0L489.44668151447655,0L489.85857461024494,0L489.91741648106904,0L492.4476169265033,0L493.56561247216035,0L494.38939866369714,0L494.6247661469933,0L494.8601336302895,0L495.2131848552338,0L495.8604454342984,0L496.15465478841867,0L496.39002227171494,0L496.56654788418706,0L496.6842316258352,0L496.8607572383073,0L497.39033407572384,0L497.5080178173719,0L497.8610690423162,0L498.0375946547884,0L498.5083296213808,0L498.56717149220486,0L499.44979955456563,0L499.5086414253897,0L499.6851670378619,0L499.9205345211581,0L500.39126948775055,0L500.8620044543429,0L501.62694877505567,0L501.7446325167038,0L502.15652561247214,0L502.8626280623608,0L503.097995545657,0L503.15683741648104,0L503.8040979955456,0L503.9806236080178,0L504.15714922048994,0L504.3336748329621,0L504.56904231625833,0L504.68672605790647,0L505.2163028953229,0L505.51051224944314,0L505.92240534521153,0L505.9812472160356,0L506.09893095768376,0L506.2754565701559,0L506.92271714922043,0L507.04040089086857,0L507.15808463251665,0L507.2757683741648,0L507.3934521158129,0L507.511135857461,0L507.62881959910914,0L507.9230289532294,0L508.09955456570157,0L508.3349220489978,0L508.6879732739421,0L508.8056570155902,0L509.15870824053445,0L509.9236525612472,0L511.2770155902004,0L511.5712249443207,0L511.63006681514474,0L511.924276169265,0L513.3364810690423,0L513.8660579064588,0L515.0428953229398,0L515.1017371937639,0L515.219420935412,0L515.3371046770601,0L515.6901559020044,0L516.278574610245,0L516.5139420935412,0L516.5727839643653,0L516.7493095768374,0L516.8081514476614,0L517.2788864142539,0L517.7496213808463,0L518.514565701559,0L518.9264587973274,0L519.1618262806236,0L520.0444543429844,0L520.750556792873,0L521.8097104677059,0L522.1627616926503,0L522.2804454342985,0L522.6334966592427,0L522.8100222717148,0L522.868864142539,0L523.0453897550111,0L523.5749665924276,0L524.04570155902,0L524.4575946547884,0L524.6929621380847,0L525.104855233853,0L527.282004454343,0L527.340846325167,0L527.4585300668151,0L527.5173719376392,0L527.6938975501114,0L527.9881069042316,0L528.3411581291759,0L528.4,0" class="rv-xy-plot__series rv-xy-plot__series--line" transform="translate(51.6,5)" style="opacity: 1; stroke-width: 1.5; stroke: rgb(51, 141, 216);"/><g class="rv-xy-plot__series rv-xy-plot__series--mark" transform="translate(51.6,5)"><circle r="2" cx="528.4" cy="0" style="opacity: 1; stroke: rgb(51, 141, 216); fill: rgb(51, 141, 216); stroke-width: 1;"/></g><defs class="rv-gradient-defs"><linearGradient id="leftFadeGradient" x1="0" x2="1" y1="0" y2="0"><stop offset="0%" stop-color="white" stop-opacity="1"/><stop offset="60%" stop-color="white" stop-opacity="1"/><stop offset="100%" stop-color="white" stop-opacity="0"/></linearGradient><linearGradient id="rightFadeGradient" x1="1" x2="0" y1="0" y2="0"><stop offset="0%" stop-color="white" stop-opacity="1"/><stop offset="100%" stop-color="white" stop-opacity="0"/></linearGradient><linearGradient id="bottomFadeGradient" x1="0" x2="0" y1="1" y2="0"><stop offset="0%" stop-color="white" stop-opacity="1"/><stop offset="40%" stop-color="white" stop-opacity="1"/><stop offset="100%" stop-color="white" stop-opacity="0"/></linearGradient><linearGradient id="topFadeGradient" x1="0" x2="0" y1="0" y2="1"><stop offset="0%" stop-color="white" stop-opacity="1"/><stop offset="100%" stop-color="white" stop-opacity="0"/></linearGradient></defs><g class="rv-xy-plot__borders plot-border"><rect class="rv-xy-plot__borders-bottom plot-border-bottom" x="0" y="247" width="600" height="30" style="fill: url(&quot;#bottomFadeGradient&quot;); opacity: 1;"/><rect class="rv-xy-plot__borders-left plot-border-left" x="0" y="0" width="51.6" height="277" style="fill: url(&quot;#leftFadeGradient&quot;); opacity: 1;"/><rect class="rv-xy-plot__borders-right plot-border-right" x="580" y="0" width="20" height="277" style="fill: url(&quot;#rightFadeGradient&quot;); opacity: 1;"/><rect class="rv-xy-plot__borders-top plot-border-top" x="0" y="0" width="600" height="5" style="fill: url(&quot;#topFadeGradient&quot;); opacity: 1;"/></g><g transform="translate(51.6,247)" class="rv-xy-plot__axis rv-xy-plot__axis--horizontal"><line x1="0" x2="528.4" y1="0" y2="0" class="rv-xy-plot__axis__line"/><g transform="translate(0, 0)" class="rv-xy-plot__axis__ticks"/></g><g transform="translate(51.6,247)" class="rv-xy-plot__axis rv-xy-plot__axis--horizontal" style="font-family: &quot;Source Sans Pro&quot;; fill: rgb(107, 107, 118); font-size: 14px;"><line x1="0" x2="528.4" y1="0" y2="0" class="rv-xy-plot__axis__line" style="font-family: &quot;Source Sans Pro&quot;; fill: rgb(107, 107, 118); font-size: 14px; stroke-width: 0;"/><g transform="translate(0, 0)" class="rv-xy-plot__axis__ticks"><g transform="translate(116.85995545657015, 0)" class="rv-xy-plot__axis__tick" style="font-family: &quot;Source Sans Pro&quot;; fill: rgb(107, 107, 118); font-size: 14px;"><line x1="0" x2="0" y1="-6" y2="6" class="rv-xy-plot__axis__tick__line" style="font-family: &quot;Source Sans Pro&quot;; fill: rgb(107, 107, 118); font-size: 14px; stroke-width: 0;"/><text text-anchor="middle" dy="0.72em" transform="translate(0, 14)" class="rv-xy-plot__axis__tick__text" style="font-family: sans-serif; fill: rgb(107, 107, 118); font-size: 14px;">2k</text></g><g transform="translate(234.54369710467705, 0)" class="rv-xy-plot__axis__tick" style="font-family: &quot;Source Sans Pro&quot;; fill: rgb(107, 107, 118); font-size: 14px;"><line x1="0" x2="0" y1="-6" y2="6" class="rv-xy-plot__axis__tick__line" style="font-family: &quot;Source Sans Pro&quot;; fill: rgb(107, 107, 118); font-size: 14px; stroke-width: 0;"/><text text-anchor="middle" dy="0.72em" transform="translate(0, 14)" class="rv-xy-plot__axis__tick__text" style="font-family: sans-serif; fill: rgb(107, 107, 118); font-size: 14px;">4k</text></g><g transform="translate(352.22743875278394, 0)" class="rv-xy-plot__axis__tick" style="font-family: &quot;Source Sans Pro&quot;; fill: rgb(107, 107, 118); font-size: 14px;"><line x1="0" x2="0" y1="-6" y2="6" class="rv-xy-plot__axis__tick__line" style="font-family: &quot;Source Sans Pro&quot;; fill: rgb(107, 107, 118); font-size: 14px; stroke-width: 0;"/><text text-anchor="middle" dy="0.72em" transform="translate(0, 14)" class="rv-xy-plot__axis__tick__text" style="font-family: sans-serif; fill: rgb(107, 107, 118); font-size: 14px;">6k</text></g><g transform="translate(469.9111804008909, 0)" class="rv-xy-plot__axis__tick" style="font-family: &quot;Source Sans Pro&quot;; fill: rgb(107, 107, 118); font-size: 14px;"><line x1="0" x2="0" y1="-6" y2="6" class="rv-xy-plot__axis__tick__line" style="font-family: &quot;Source Sans Pro&quot;; fill: rgb(107, 107, 118); font-size: 14px; stroke-width: 0;"/><text text-anchor="middle" dy="0.72em" transform="translate(0, 14)" class="rv-xy-plot__axis__tick__text" style="font-family: sans-serif; fill: rgb(107, 107, 118); font-size: 14px;">8k</text></g></g><g transform="translate(0, 0)" class="rv-xy-plot__axis__title"><g transform="translate(522.4, -6) rotate(0)" style="text-anchor: end; font-family: &quot;Source Sans Pro&quot;; fill: rgb(107, 107, 118); font-size: 14px;"><text style="font-family: sans-serif; fill: rgb(107, 107, 118); font-size: 14px;">Step</text></g></g></g><g transform="translate(51.6,247)" class="rv-xy-plot__axis rv-xy-plot__axis--horizontal"><line x1="0" x2="0" y1="0" y2="0" class="rv-xy-plot__axis__line"/><g transform="translate(0, 0)" class="rv-xy-plot__axis__ticks"><g transform="translate(116.85995545657015, 0)" class="rv-xy-plot__axis__tick"><line x1="0" x2="0" y1="-6" y2="6" class="rv-xy-plot__axis__tick__line"/><text text-anchor="middle" dy="0.72em" transform="translate(0, 14)" class="rv-xy-plot__axis__tick__text" style="font-family: sans-serif;"/></g><g transform="translate(234.54369710467705, 0)" class="rv-xy-plot__axis__tick"><line x1="0" x2="0" y1="-6" y2="6" class="rv-xy-plot__axis__tick__line"/><text text-anchor="middle" dy="0.72em" transform="translate(0, 14)" class="rv-xy-plot__axis__tick__text" style="font-family: sans-serif;"/></g><g transform="translate(352.22743875278394, 0)" class="rv-xy-plot__axis__tick"><line x1="0" x2="0" y1="-6" y2="6" class="rv-xy-plot__axis__tick__line"/><text text-anchor="middle" dy="0.72em" transform="translate(0, 14)" class="rv-xy-plot__axis__tick__text" style="font-family: sans-serif;"/></g><g transform="translate(469.9111804008909, 0)" class="rv-xy-plot__axis__tick"><line x1="0" x2="0" y1="-6" y2="6" class="rv-xy-plot__axis__tick__line"/><text text-anchor="middle" dy="0.72em" transform="translate(0, 14)" class="rv-xy-plot__axis__tick__text" style="font-family: sans-serif;"/></g></g></g><g transform="translate(0,5)" class="rv-xy-plot__axis rv-xy-plot__axis--vertical" style="font-family: &quot;Source Sans Pro&quot;; fill: rgb(107, 107, 118); font-size: 14px;"><line x1="51.6" x2="51.6" y1="0" y2="242" class="rv-xy-plot__axis__line" style="font-family: &quot;Source Sans Pro&quot;; fill: rgb(107, 107, 118); font-size: 14px; stroke: none;"/><g transform="translate(51.6, 0)" class="rv-xy-plot__axis__ticks"><g transform="translate(0, 242)" class="rv-xy-plot__axis__tick" style="font-family: &quot;Source Sans Pro&quot;; fill: rgb(107, 107, 118); font-size: 14px;"><line y1="0" y2="0" x1="6" x2="-6" class="rv-xy-plot__axis__tick__line" style="font-family: &quot;Source Sans Pro&quot;; fill: rgb(107, 107, 118); font-size: 14px; stroke: none;"/><text text-anchor="end" dy="0.32em" transform="translate(-14, 0)" class="rv-xy-plot__axis__tick__text" style="font-family: sans-serif; fill: rgb(107, 107, 118); font-size: 14px;">0</text></g><g transform="translate(0, 194.734375)" class="rv-xy-plot__axis__tick" style="font-family: &quot;Source Sans Pro&quot;; fill: rgb(107, 107, 118); font-size: 14px;"><line y1="0" y2="0" x1="6" x2="-6" class="rv-xy-plot__axis__tick__line" style="font-family: &quot;Source Sans Pro&quot;; fill: rgb(107, 107, 118); font-size: 14px; stroke: none;"/><text text-anchor="end" dy="0.32em" transform="translate(-14, 0)" class="rv-xy-plot__axis__tick__text" style="font-family: sans-serif; fill: rgb(107, 107, 118); font-size: 14px;">200</text></g><g transform="translate(0, 147.46875)" class="rv-xy-plot__axis__tick" style="font-family: &quot;Source Sans Pro&quot;; fill: rgb(107, 107, 118); font-size: 14px;"><line y1="0" y2="0" x1="6" x2="-6" class="rv-xy-plot__axis__tick__line" style="font-family: &quot;Source Sans Pro&quot;; fill: rgb(107, 107, 118); font-size: 14px; stroke: none;"/><text text-anchor="end" dy="0.32em" transform="translate(-14, 0)" class="rv-xy-plot__axis__tick__text" style="font-family: sans-serif; fill: rgb(107, 107, 118); font-size: 14px;">400</text></g><g transform="translate(0, 100.203125)" class="rv-xy-plot__axis__tick" style="font-family: &quot;Source Sans Pro&quot;; fill: rgb(107, 107, 118); font-size: 14px;"><line y1="0" y2="0" x1="6" x2="-6" class="rv-xy-plot__axis__tick__line" style="font-family: &quot;Source Sans Pro&quot;; fill: rgb(107, 107, 118); font-size: 14px; stroke: none;"/><text text-anchor="end" dy="0.32em" transform="translate(-14, 0)" class="rv-xy-plot__axis__tick__text" style="font-family: sans-serif; fill: rgb(107, 107, 118); font-size: 14px;">600</text></g><g transform="translate(0, 52.9375)" class="rv-xy-plot__axis__tick" style="font-family: &quot;Source Sans Pro&quot;; fill: rgb(107, 107, 118); font-size: 14px;"><line y1="0" y2="0" x1="6" x2="-6" class="rv-xy-plot__axis__tick__line" style="font-family: &quot;Source Sans Pro&quot;; fill: rgb(107, 107, 118); font-size: 14px; stroke: none;"/><text text-anchor="end" dy="0.32em" transform="translate(-14, 0)" class="rv-xy-plot__axis__tick__text" style="font-family: sans-serif; fill: rgb(107, 107, 118); font-size: 14px;">800</text></g><g transform="translate(0, 5.671875)" class="rv-xy-plot__axis__tick" style="font-family: &quot;Source Sans Pro&quot;; fill: rgb(107, 107, 118); font-size: 14px;"><line y1="0" y2="0" x1="6" x2="-6" class="rv-xy-plot__axis__tick__line" style="font-family: &quot;Source Sans Pro&quot;; fill: rgb(107, 107, 118); font-size: 14px; stroke: none;"/><text text-anchor="end" dy="0.32em" transform="translate(-14, 0)" class="rv-xy-plot__axis__tick__text" style="font-family: sans-serif; fill: rgb(107, 107, 118); font-size: 14px;">1000</text></g></g><g transform="translate(51.6, 0)" class="rv-xy-plot__axis__title"><g transform="translate(16, 6) rotate(-90)" style="text-anchor: end; font-family: &quot;Source Sans Pro&quot;; fill: rgb(107, 107, 118); font-size: 14px;"><text style="font-family: sans-serif; fill: rgb(107, 107, 118); font-size: 14px;">Sequence Length</text></g></g></g></svg></g><style xmlns="http://www.w3.org/1999/xhtml">/*&lt;![CDATA[*/<br />text { font-size: 10px; fill: black }<br />.react-vis-magic-css-import-rule{display:inherit}.rv-treemap{font-size:12px;position:relative}.rv-treemap__leaf{overflow:hidden;position:absolute}.rv-treemap__leaf--circle{align-items:center;border-radius:100%;display:flex;justify-content:center}.rv-treemap__leaf__content{overflow:hidden;padding:10px;text-overflow:ellipsis}.rv-xy-plot{color:#c3c3c3;position:relative}.rv-xy-plot canvas{pointer-events:none}.rv-xy-plot .rv-xy-canvas{pointer-events:none;position:absolute}.rv-xy-plot__inner{display:block}.rv-xy-plot__axis__line{fill:none;stroke-width:2px;stroke:#e6e6e9}.rv-xy-plot__axis__tick__line{stroke:#e6e6e9}.rv-xy-plot__axis__tick__text{fill:#6b6b76;font-size:11px}.rv-xy-plot__axis__title text{fill:#6b6b76;font-size:11px}.rv-xy-plot__grid-lines__line{stroke:#e6e6e9}.rv-xy-plot__circular-grid-lines__line{fill-opacity:0;stroke:#e6e6e9}.rv-xy-plot__series,.rv-xy-plot__series path{pointer-events:all}.rv-xy-plot__series--line{fill:none;stroke:#000;stroke-width:2px}.rv-crosshair{position:absolute;font-size:11px;pointer-events:none}.rv-crosshair__line{background:#47d3d9;width:1px}.rv-crosshair__inner{position:absolute;text-align:left;top:0}.rv-crosshair__inner__content{border-radius:4px;background:#3a3a48;color:#fff;font-size:12px;padding:7px 10px;box-shadow:0 2px 4px rgba(0,0,0,0.5)}.rv-crosshair__inner--left{right:4px}.rv-crosshair__inner--right{left:4px}.rv-crosshair__title{font-weight:bold;white-space:nowrap}.rv-crosshair__item{white-space:nowrap}.rv-hint{position:absolute;pointer-events:none}.rv-hint__content{border-radius:4px;padding:7px 10px;font-size:12px;background:#3a3a48;box-shadow:0 2px 4px rgba(0,0,0,0.5);color:#fff;text-align:left;white-space:nowrap}.rv-discrete-color-legend{box-sizing:border-box;overflow-y:auto;font-size:12px}.rv-discrete-color-legend.horizontal{white-space:nowrap}.rv-discrete-color-legend-item{color:#3a3a48;border-radius:1px;padding:9px 10px}.rv-discrete-color-legend-item.horizontal{display:inline-block}.rv-discrete-color-legend-item.horizontal .rv-discrete-color-legend-item__title{margin-left:0;display:block}.rv-discrete-color-legend-item__color{display:inline-block;vertical-align:middle;overflow:visible}.rv-discrete-color-legend-item__color__path{stroke:#dcdcdc;stroke-width:2px}.rv-discrete-color-legend-item__title{margin-left:10px}.rv-discrete-color-legend-item.disabled{color:#b8b8b8}.rv-discrete-color-legend-item.clickable{cursor:pointer}.rv-discrete-color-legend-item.clickable:hover{background:#f9f9f9}.rv-search-wrapper{display:flex;flex-direction:column}.rv-search-wrapper__form{flex:0}.rv-search-wrapper__form__input{width:100%;color:#a6a6a5;border:1px solid #e5e5e4;padding:7px 10px;font-size:12px;box-sizing:border-box;border-radius:2px;margin:0 0 9px;outline:0}.rv-search-wrapper__contents{flex:1;overflow:auto}.rv-continuous-color-legend{font-size:12px}.rv-continuous-color-legend .rv-gradient{height:4px;border-radius:2px;margin-bottom:5px}.rv-continuous-size-legend{font-size:12px}.rv-continuous-size-legend .rv-bubbles{text-align:justify;overflow:hidden;margin-bottom:5px;width:100%}.rv-continuous-size-legend .rv-bubble{background:#d8d9dc;display:inline-block;vertical-align:bottom}.rv-continuous-size-legend .rv-spacer{display:inline-block;font-size:0;line-height:0;width:100%}.rv-legend-titles{height:16px;position:relative}.rv-legend-titles__left,.rv-legend-titles__right,.rv-legend-titles__center{position:absolute;white-space:nowrap;overflow:hidden}.rv-legend-titles__center{display:block;text-align:center;width:100%}.rv-legend-titles__right{right:0}.rv-radial-chart .rv-xy-plot__series--label{pointer-events:none}<br /><br />/*]]&gt;*/</style></svg>
