<svg xmlns="http://www.w3.org/2000/svg" xmlns:xlink="http://www.w3.org/1999/xlink" viewBox="0 0 1161.23 199.93"><defs><style>.a{fill:#f28388;}.b{fill:#ee3932;}.c{fill:url(#a);}.d{fill:url(#b);}.e{fill:url(#c);}</style><linearGradient id="a" x1="430.5" y1="290.06" x2="463.3" y2="299.92" gradientUnits="userSpaceOnUse"><stop offset="0" stop-color="#13294e"/><stop offset="1" stop-color="#f28388" stop-opacity="0"/></linearGradient><linearGradient id="b" x1="329" y1="272.49" x2="359.04" y2="282.35" xlink:href="#a"/><linearGradient id="c" x1="318" y1="305.99" x2="348.05" y2="315.85" xlink:href="#a"/></defs><path class="a" d="M379.74,368.42l10.51-44.76L366.94,224.4c-1.41-6-5.71-24.33-19.31-24.33h0v31.58L374.25,345Z" transform="translate(-253.2 -200.07)"/><path class="a" d="M505.59,362.25l-4-17.23L473.22,224.4c-1.41-6-5.71-24.33-19.32-24.33h0v31.58L480.52,345l5.15,21.89A10.24,10.24,0,0,1,478,379.2a10.08,10.08,0,0,1-2.36.28,10.3,10.3,0,0,1-9.94-7.91h0l-.55-2.33L459.51,345,443.1,275.17l-10.22-43.52-10.51,44.76L438.49,345l7.33,31.22a30.69,30.69,0,1,0,59.77-14Z" transform="translate(-253.2 -200.07)"/><path class="a" d="M353.23,345,326.78,232.38l-10.51,44.75L332.21,345l7.2,30.65c.77,3.27,2.39,10.16,5.89,15.77,8.58-4.08,11.91-16.64,13.23-22.2l.2-.82h0Z" transform="translate(-253.2 -200.07)"/><path class="b" d="M624.43,269.88c-12.61,0-18.91,10.12-19.48,25.78v54.43H580.12V250.78H605v27.31l5.92-22.91c3.06-2.87,9.55-8,21.39-8,17.57,0,30.17,11.27,33.23,29.8l5.35-21.77c3.44-3.63,10.5-8,21.2-8,22,0,35.14,14,35.14,39.35v63.59H702.35V290.51c0-13.75-6.11-20.63-17.19-20.63-12.79,0-19.1,9.17-19.1,25.4v54.81H641.24V290.7C641.24,280.19,636.84,269.88,624.43,269.88Z" transform="translate(-253.2 -200.07)"/><path class="b" d="M853.61,300.06c0,30.94-23.11,52.9-54.24,52.9s-54.24-22-54.24-52.9,23.11-52.91,54.24-52.91S853.61,269.12,853.61,300.06Zm-54.24,30.17c16.23,0,28.46-11.65,28.46-30.17s-12.23-30.18-28.46-30.18c-16.43,0-28.46,11.65-28.46,30.18S783.14,330.23,799.37,330.23Z" transform="translate(-253.2 -200.07)"/><path class="b" d="M955,275.61l-23.3,8.79c-.76-11.65-8.78-18-21.58-18-10.31,0-16.42,4.59-16.42,11.46,0,18.53,62.45,3.44,62.45,43.36,0,21.77-19.48,31.7-43.35,31.7-25.22,0-43.55-10.31-47.18-29.22l23.49-10.12c1,14.51,11.27,19.86,23.69,19.86,9.16,0,17-3.63,17-10.7,0-19.48-61.49-3.43-61.49-43.35,0-18.72,19.28-32.28,41.82-32.28C934.59,247.15,951.2,258.23,955,275.61Z" transform="translate(-253.2 -200.07)"/><path class="b" d="M1077.06,305.6l15.09,44.49H1066L1054.33,314l-1.72,25c-7.25,8.4-17.76,13.94-33,13.94-29.6,0-50.23-22.54-50.23-52.52,0-30.37,20.44-53.29,50-53.29,14.33,0,25.21,5.54,32.85,14V250.78h24.83Zm-52.9,24.82c15.85,0,29-11.65,29-30,0-18.72-13.18-30.75-29-30.75-16.62,0-29,12.41-29,30.75C995.13,318.39,1007.54,330.42,1024.16,330.42Z" transform="translate(-253.2 -200.07)"/><path class="b" d="M1107.81,209.72h25.78v24.83h-25.78ZM1133,250.78v99.31h-24.83V250.78Z" transform="translate(-253.2 -200.07)"/><path class="b" d="M1252.19,275.42l-22,12.8c-2.29-11.27-12.61-18.34-24.83-18.34-16.23,0-27.69,11.08-27.69,30.18s11.27,30.17,27.69,30.17c11.84,0,22-7.83,24.83-17.76l21.39,12.41c-6.68,15.86-24.07,28.08-46.22,28.08-31.89,0-53.47-21.58-53.47-52.9,0-31.13,22.34-52.91,53.47-52.91C1227.37,247.15,1245.7,259.38,1252.19,275.42Z" transform="translate(-253.2 -200.07)"/><path class="b" d="M1291.25,206.69l16.37,56.17L1324,206.69h24.75v75.2H1333.4V222.24l-17.29,58.93h-17.6l-17.19-59v59.75H1266v-75.2Z" transform="translate(-253.2 -200.07)"/><path class="b" d="M1364.09,206.69h15.76v60.57h34.58v14.63h-50.34Z" transform="translate(-253.2 -200.07)"/><path class="c" d="M505.59,362.25l-4-17.23L473.22,224.4c-1.41-6-5.71-24.33-19.32-24.33h0v31.58L480.52,345l5.15,21.89A10.24,10.24,0,0,1,478,379.2a10.08,10.08,0,0,1-2.36.28,10.3,10.3,0,0,1-9.94-7.91h0l-.55-2.33L459.51,345,443.1,275.17l-10.22-43.52-10.51,44.76L438.49,345l7.33,31.22a30.69,30.69,0,1,0,59.77-14Z" transform="translate(-253.2 -200.07)"/><path class="d" d="M366.94,224.4c-1.41-6-5.71-24.33-19.31-24.33h0v31.58L374.25,345l5.49,23.4,10.51-44.76Z" transform="translate(-253.2 -200.07)"/><path class="e" d="M326.78,232.38l-10.51,44.75L332.21,345l7.2,30.65c.77,3.27,2.39,10.16,5.89,15.77,8.58-4.08,11.91-16.64,13.23-22.2l.2-.82h0l-5.5-23.4Z" transform="translate(-253.2 -200.07)"/><path class="b" d="M453.9,200.07c-13.6,0-17.9,18.31-19.31,24.33l-1.71,7.25L400.76,368.42c-.05.25-.12.54-.19.82-1.33,5.56-4.65,18.12-13.24,22.2,2.95,4.73,7.22,8.56,13.44,8.56,13.6,0,17.9-18.31,19.31-24.33l1.51-6.43L453.9,231.65c1.19-5.05,4.41-18.73,13.44-23C464.39,203.9,460.12,200.07,453.9,200.07Z" transform="translate(-253.2 -200.07)"/><path class="b" d="M361.18,208.63c-2.95-4.73-7.22-8.56-13.44-8.56-13.6,0-17.9,18.31-19.31,24.33l-1.7,7.25L294.41,369.24l-.54,2.33h0a10.32,10.32,0,0,1-9.94,7.91,10,10,0,0,1-2.36-.28,10.24,10.24,0,0,1-7.63-12.29l31.77-135.26c1.18-5.05,4.4-18.73,13.43-23-2.95-4.73-7.21-8.56-13.43-8.56-13.61,0-17.91,18.31-19.32,24.33l-1.7,7.25L254,362.25h0a30.69,30.69,0,1,0,59.77,14l1.64-7,32.31-137.59C348.93,226.6,352.15,212.92,361.18,208.63Z" transform="translate(-253.2 -200.07)"/><path class="b" d="M425.3,208.63c-2.95-4.73-7.22-8.56-13.44-8.56-13.6,0-17.9,18.31-19.31,24.33l-1.7,7.25L358.73,368.42l-.2.82c-1.32,5.56-4.65,18.12-13.24,22.2,2.95,4.73,7.22,8.56,13.44,8.56,13.6,0,17.9-18.31,19.31-24.33l1.51-6.43,32.32-137.59C413.05,226.6,416.27,212.92,425.3,208.63Z" transform="translate(-253.2 -200.07)"/></svg>