<svg width="722" height="482" viewBox="0 0 722 482" fill="none" xmlns="http://www.w3.org/2000/svg">
<path d="M75.5 293.5H697.5" stroke="white" stroke-miterlimit="10"/>
<path d="M75.5 182.5H697.5" stroke="white" stroke-miterlimit="10"/>
<path d="M75.5 71.5H697.5" stroke="white" stroke-miterlimit="10"/>
<path d="M196 404H138V123C138 121.895 138.895 121 140 121H194C195.105 121 196 121.895 196 123V404Z" fill="#CCCCCC"/>
<path d="M571 404H513V206C513 204.895 513.895 204 515 204H569C570.105 204 571 204.895 571 206V404Z" fill="#CCCCCC"/>
<path d="M260 404H202V248.903C202 247.852 202.895 247 204 247H258C259.105 247 260 247.852 260 248.903V404Z" fill="#EA4335"/>
<path d="M448 398H390V358C390 356.895 390.895 356 392 356H446C447.105 356 448 356.895 448 358V398Z" fill="#EA4335"/>
<path d="M631 404H573V344C573 342.895 573.895 342 575 342H629C630.105 342 631 342.895 631 344V404Z" fill="#EA4335"/>
<path d="M448 403H390V358.238C390 357.002 390.895 356 392 356H446C447.105 356 448 357.002 448 358.238V403Z" fill="#EA4335"/>
<path d="M252.5 444.4C252.5 443.848 252.948 443.4 253.5 443.4H263.5C264.052 443.4 264.5 443.848 264.5 444.4V454.4C264.5 454.952 264.052 455.4 263.5 455.4H253.5C252.948 455.4 252.5 454.952 252.5 454.4V444.4Z" fill="#CCCCCC"/>
<path d="M385.5 444.4C385.5 443.848 385.948 443.4 386.5 443.4H396.5C397.052 443.4 397.5 443.848 397.5 444.4V454.4C397.5 454.952 397.052 455.4 396.5 455.4H386.5C385.948 455.4 385.5 454.952 385.5 454.4V444.4Z" fill="#EA4335"/>
<path d="M35.176 24.904C36.904 24.904 38.48 25.304 39.904 26.104C41.328 26.904 42.4 28.032 43.12 29.488L40.456 31.264C40.072 30.224 39.408 29.392 38.464 28.768C37.52 28.144 36.416 27.832 35.152 27.832C34.016 27.832 33 28.088 32.104 28.6C31.224 29.112 30.528 29.848 30.016 30.808C29.504 31.752 29.248 32.864 29.248 34.144C29.248 35.392 29.496 36.496 29.992 37.456C30.488 38.4 31.176 39.136 32.056 39.664C32.952 40.176 33.968 40.432 35.104 40.432C36.384 40.432 37.512 40.12 38.488 39.496C39.48 38.872 40.168 38.016 40.552 36.928L43.216 38.704C42.432 40.192 41.336 41.344 39.928 42.16C38.536 42.96 36.944 43.36 35.152 43.36C33.424 43.36 31.856 42.976 30.448 42.208C29.056 41.424 27.96 40.336 27.16 38.944C26.36 37.536 25.96 35.928 25.96 34.12C25.96 32.296 26.368 30.688 27.184 29.296C28.016 27.888 29.136 26.808 30.544 26.056C31.952 25.288 33.496 24.904 35.176 24.904ZM51.4763 30.064C52.7723 30.064 53.9323 30.352 54.9563 30.928C55.9963 31.488 56.8123 32.272 57.4043 33.28C57.9963 34.288 58.2923 35.432 58.2923 36.712C58.2923 37.992 57.9963 39.136 57.4043 40.144C56.8123 41.152 55.9963 41.944 54.9563 42.52C53.9323 43.08 52.7723 43.36 51.4763 43.36C50.1803 43.36 49.0123 43.08 47.9723 42.52C46.9483 41.944 46.1403 41.152 45.5483 40.144C44.9563 39.136 44.6603 37.992 44.6603 36.712C44.6603 35.432 44.9563 34.288 45.5483 33.28C46.1403 32.272 46.9483 31.488 47.9723 30.928C49.0123 30.352 50.1803 30.064 51.4763 30.064ZM47.9003 36.712C47.9003 37.864 48.2363 38.784 48.9083 39.472C49.5803 40.16 50.4363 40.504 51.4763 40.504C52.5163 40.504 53.3723 40.16 54.0443 39.472C54.7163 38.784 55.0523 37.864 55.0523 36.712C55.0523 35.56 54.7163 34.64 54.0443 33.952C53.3723 33.264 52.5163 32.92 51.4763 32.92C50.4363 32.92 49.5803 33.264 48.9083 33.952C48.2363 34.64 47.9003 35.56 47.9003 36.712ZM65.413 30.064C66.933 30.064 68.189 30.384 69.181 31.024C70.189 31.664 70.813 32.536 71.053 33.64L68.125 34.744C68.077 34.024 67.813 33.472 67.333 33.088C66.869 32.688 66.229 32.488 65.413 32.488C64.773 32.488 64.269 32.624 63.901 32.896C63.533 33.152 63.349 33.496 63.349 33.928C63.349 34.344 63.573 34.656 64.021 34.864C64.485 35.056 65.205 35.24 66.181 35.416C67.205 35.608 68.053 35.824 68.725 36.064C69.397 36.288 69.973 36.672 70.453 37.216C70.949 37.744 71.197 38.464 71.197 39.376C71.197 40.688 70.685 41.68 69.661 42.352C68.653 43.024 67.349 43.36 65.749 43.36C64.133 43.36 62.797 43.04 61.741 42.4C60.685 41.76 60.045 40.856 59.821 39.688L62.773 38.416C62.837 39.28 63.133 39.912 63.661 40.312C64.205 40.712 64.901 40.912 65.749 40.912C66.357 40.912 66.861 40.8 67.261 40.576C67.677 40.336 67.885 40 67.885 39.568C67.885 39.12 67.661 38.8 67.213 38.608C66.765 38.416 66.037 38.216 65.029 38.008C64.037 37.816 63.213 37.608 62.557 37.384C61.901 37.16 61.333 36.792 60.853 36.28C60.389 35.752 60.157 35.032 60.157 34.12C60.157 33.352 60.397 32.664 60.877 32.056C61.357 31.432 61.997 30.944 62.797 30.592C63.597 30.24 64.469 30.064 65.413 30.064ZM77.9436 25.768V30.52H81.4476V33.16H77.9436V38.728C77.9436 39.416 78.0716 39.888 78.3276 40.144C78.5836 40.384 79.0236 40.504 79.6476 40.504C80.1436 40.504 80.6956 40.44 81.3036 40.312V43.024C81.1116 43.104 80.7756 43.168 80.2956 43.216C79.8316 43.28 79.4716 43.312 79.2156 43.312C77.7596 43.312 76.6636 42.984 75.9276 42.328C75.1916 41.656 74.8236 40.6 74.8236 39.16V33.16H72.5676V30.52H74.8236V28.12L77.9436 25.768ZM98.0354 24.904C99.7634 24.904 101.339 25.304 102.763 26.104C104.187 26.904 105.259 28.032 105.979 29.488L103.315 31.264C102.931 30.224 102.267 29.392 101.323 28.768C100.379 28.144 99.2754 27.832 98.0114 27.832C96.8754 27.832 95.8594 28.088 94.9634 28.6C94.0834 29.112 93.3874 29.848 92.8754 30.808C92.3634 31.752 92.1074 32.864 92.1074 34.144C92.1074 35.392 92.3554 36.496 92.8514 37.456C93.3474 38.4 94.0354 39.136 94.9154 39.664C95.8114 40.176 96.8274 40.432 97.9634 40.432C99.2434 40.432 100.371 40.12 101.347 39.496C102.339 38.872 103.027 38.016 103.411 36.928L106.075 38.704C105.291 40.192 104.195 41.344 102.787 42.16C101.395 42.96 99.8034 43.36 98.0114 43.36C96.2834 43.36 94.7154 42.976 93.3074 42.208C91.9154 41.424 90.8194 40.336 90.0194 38.944C89.2194 37.536 88.8194 35.928 88.8194 34.12C88.8194 32.296 89.2274 30.688 90.0434 29.296C90.8754 27.888 91.9954 26.808 93.4034 26.056C94.8114 25.288 96.3554 24.904 98.0354 24.904ZM114.336 30.064C115.632 30.064 116.792 30.352 117.816 30.928C118.856 31.488 119.672 32.272 120.264 33.28C120.856 34.288 121.152 35.432 121.152 36.712C121.152 37.992 120.856 39.136 120.264 40.144C119.672 41.152 118.856 41.944 117.816 42.52C116.792 43.08 115.632 43.36 114.336 43.36C113.04 43.36 111.872 43.08 110.832 42.52C109.808 41.944 109 41.152 108.408 40.144C107.816 39.136 107.52 37.992 107.52 36.712C107.52 35.432 107.816 34.288 108.408 33.28C109 32.272 109.808 31.488 110.832 30.928C111.872 30.352 113.04 30.064 114.336 30.064ZM110.76 36.712C110.76 37.864 111.096 38.784 111.768 39.472C112.44 40.16 113.296 40.504 114.336 40.504C115.376 40.504 116.232 40.16 116.904 39.472C117.576 38.784 117.912 37.864 117.912 36.712C117.912 35.56 117.576 34.64 116.904 33.952C116.232 33.264 115.376 32.92 114.336 32.92C113.296 32.92 112.44 33.264 111.768 33.952C111.096 34.64 110.76 35.56 110.76 36.712ZM131.2 35.536C131.2 34.8 131.024 34.184 130.672 33.688C130.336 33.176 129.808 32.92 129.088 32.92C128.32 32.92 127.728 33.208 127.312 33.784C126.896 34.36 126.672 35.152 126.64 36.16V43H123.52V30.52H126.64V33.952L127.384 31.072C128.104 30.4 129 30.064 130.072 30.064C131.176 30.064 132.096 30.4 132.832 31.072C133.584 31.728 134.056 32.64 134.248 33.808L134.92 31.072C135.176 30.8 135.528 30.568 135.976 30.376C136.44 30.168 136.976 30.064 137.584 30.064C138.976 30.064 140.056 30.496 140.824 31.36C141.608 32.208 142 33.424 142 35.008V43H138.88V35.512C138.88 34.648 138.696 34 138.328 33.568C137.96 33.136 137.424 32.92 136.72 32.92C135.92 32.92 135.32 33.192 134.92 33.736C134.52 34.28 134.32 35.072 134.32 36.112V43H131.2V35.536ZM152.19 43.36C150.942 43.36 149.87 43.064 148.974 42.472L148.062 39.184V48.16H144.942V30.52H148.062V31.864C149.102 30.664 150.486 30.064 152.214 30.064C153.43 30.064 154.51 30.36 155.454 30.952C156.414 31.528 157.158 32.328 157.686 33.352C158.23 34.36 158.502 35.496 158.502 36.76C158.502 38.008 158.23 39.136 157.686 40.144C157.158 41.136 156.414 41.92 155.454 42.496C154.494 43.072 153.406 43.36 152.19 43.36ZM147.966 36.76C147.966 37.512 148.126 38.176 148.446 38.752C148.766 39.312 149.198 39.752 149.742 40.072C150.302 40.376 150.918 40.528 151.59 40.528C152.662 40.528 153.542 40.184 154.23 39.496C154.918 38.792 155.262 37.88 155.262 36.76C155.262 35.624 154.918 34.696 154.23 33.976C153.542 33.256 152.662 32.896 151.59 32.896C150.918 32.896 150.302 33.056 149.742 33.376C149.198 33.696 148.766 34.152 148.446 34.744C148.126 35.32 147.966 35.992 147.966 36.76ZM173.72 37.408L175.616 43H172.328L170.864 38.464L170.648 41.608C169.64 42.776 168.256 43.36 166.496 43.36C165.28 43.36 164.192 43.072 163.232 42.496C162.272 41.92 161.52 41.136 160.976 40.144C160.448 39.136 160.184 38.008 160.184 36.76C160.184 35.496 160.448 34.36 160.976 33.352C161.52 32.328 162.264 31.528 163.208 30.952C164.168 30.36 165.256 30.064 166.472 30.064C168.168 30.064 169.544 30.648 170.6 31.816V30.52H173.72V37.408ZM163.424 36.76C163.424 37.88 163.768 38.792 164.456 39.496C165.144 40.184 166.016 40.528 167.072 40.528C167.744 40.528 168.352 40.376 168.896 40.072C169.456 39.752 169.896 39.312 170.216 38.752C170.552 38.176 170.72 37.512 170.72 36.76C170.72 35.992 170.552 35.32 170.216 34.744C169.896 34.152 169.456 33.696 168.896 33.376C168.352 33.056 167.744 32.896 167.072 32.896C166.016 32.896 165.144 33.256 164.456 33.976C163.768 34.696 163.424 35.624 163.424 36.76ZM180.758 30.52V34.624L181.454 31.36C181.726 31.056 182.086 30.792 182.534 30.568C182.982 30.328 183.494 30.208 184.07 30.208C184.566 30.208 184.982 30.272 185.318 30.4V33.448C184.774 33.288 184.238 33.208 183.71 33.208C182.798 33.208 182.078 33.536 181.55 34.192C181.022 34.848 180.758 35.776 180.758 36.976V43H177.638V30.52H180.758ZM190.461 30.52V43H187.341V30.52H190.461ZM187.293 25.36H190.533V28.48H187.293V25.36ZM198.28 30.064C199.8 30.064 201.056 30.384 202.048 31.024C203.056 31.664 203.68 32.536 203.92 33.64L200.992 34.744C200.944 34.024 200.68 33.472 200.2 33.088C199.736 32.688 199.096 32.488 198.28 32.488C197.64 32.488 197.136 32.624 196.768 32.896C196.4 33.152 196.216 33.496 196.216 33.928C196.216 34.344 196.44 34.656 196.888 34.864C197.352 35.056 198.072 35.24 199.048 35.416C200.072 35.608 200.92 35.824 201.592 36.064C202.264 36.288 202.84 36.672 203.32 37.216C203.816 37.744 204.064 38.464 204.064 39.376C204.064 40.688 203.552 41.68 202.528 42.352C201.52 43.024 200.216 43.36 198.616 43.36C197 43.36 195.664 43.04 194.608 42.4C193.552 41.76 192.912 40.856 192.688 39.688L195.64 38.416C195.704 39.28 196 39.912 196.528 40.312C197.072 40.712 197.768 40.912 198.616 40.912C199.224 40.912 199.728 40.8 200.128 40.576C200.544 40.336 200.752 40 200.752 39.568C200.752 39.12 200.528 38.8 200.08 38.608C199.632 38.416 198.904 38.216 197.896 38.008C196.904 37.816 196.08 37.608 195.424 37.384C194.768 37.16 194.2 36.792 193.72 36.28C193.256 35.752 193.024 35.032 193.024 34.12C193.024 33.352 193.264 32.664 193.744 32.056C194.224 31.432 194.864 30.944 195.664 30.592C196.464 30.24 197.336 30.064 198.28 30.064ZM212.539 30.064C213.835 30.064 214.995 30.352 216.019 30.928C217.059 31.488 217.875 32.272 218.467 33.28C219.059 34.288 219.355 35.432 219.355 36.712C219.355 37.992 219.059 39.136 218.467 40.144C217.875 41.152 217.059 41.944 216.019 42.52C214.995 43.08 213.835 43.36 212.539 43.36C211.243 43.36 210.075 43.08 209.035 42.52C208.011 41.944 207.203 41.152 206.611 40.144C206.019 39.136 205.723 37.992 205.723 36.712C205.723 35.432 206.019 34.288 206.611 33.28C207.203 32.272 208.011 31.488 209.035 30.928C210.075 30.352 211.243 30.064 212.539 30.064ZM208.963 36.712C208.963 37.864 209.299 38.784 209.971 39.472C210.643 40.16 211.499 40.504 212.539 40.504C213.579 40.504 214.435 40.16 215.107 39.472C215.779 38.784 216.115 37.864 216.115 36.712C216.115 35.56 215.779 34.64 215.107 33.952C214.435 33.264 213.579 32.92 212.539 32.92C211.499 32.92 210.643 33.264 209.971 33.952C209.299 34.64 208.963 35.56 208.963 36.712ZM224.844 30.52V34.144L225.54 31.312C226.324 30.48 227.388 30.064 228.732 30.064C230.22 30.064 231.356 30.544 232.14 31.504C232.924 32.464 233.316 33.856 233.316 35.68V43H230.196V36.136C230.196 35.016 229.996 34.208 229.596 33.712C229.212 33.2 228.588 32.944 227.724 32.944C226.812 32.944 226.1 33.248 225.588 33.856C225.092 34.464 224.844 35.312 224.844 36.4V43H221.724V30.52H224.844ZM242.939 25.36L248.435 40.144L253.979 25.36H256.451L249.707 43H247.091L240.467 25.36H242.939ZM269.505 37.6L271.353 43H269.025L267.465 38.248L267.225 41.296C266.713 41.936 266.065 42.44 265.281 42.808C264.513 43.176 263.617 43.36 262.593 43.36C261.345 43.36 260.241 43.072 259.281 42.496C258.337 41.904 257.601 41.112 257.073 40.12C256.545 39.112 256.281 37.992 256.281 36.76C256.281 35.528 256.545 34.408 257.073 33.4C257.601 32.376 258.337 31.576 259.281 31C260.241 30.408 261.345 30.112 262.593 30.112C263.617 30.112 264.521 30.312 265.305 30.712C266.105 31.096 266.769 31.64 267.297 32.344V30.52H269.505V37.6ZM258.537 36.76C258.537 37.624 258.713 38.408 259.065 39.112C259.433 39.8 259.945 40.344 260.601 40.744C261.273 41.144 262.057 41.344 262.953 41.344C263.817 41.344 264.585 41.144 265.257 40.744C265.929 40.344 266.449 39.8 266.817 39.112C267.185 38.408 267.369 37.624 267.369 36.76C267.369 35.896 267.185 35.112 266.817 34.408C266.449 33.704 265.929 33.152 265.257 32.752C264.585 32.336 263.817 32.128 262.953 32.128C262.057 32.128 261.273 32.336 260.601 32.752C259.945 33.152 259.433 33.704 259.065 34.408C258.713 35.112 258.537 35.896 258.537 36.76ZM275.804 30.52V34.312L276.452 31.528C277.284 30.6 278.444 30.136 279.932 30.136C281.436 30.136 282.604 30.592 283.436 31.504C284.268 32.4 284.684 33.664 284.684 35.296V43H282.476V35.632C282.476 33.312 281.46 32.152 279.428 32.152C278.292 32.152 277.404 32.512 276.764 33.232C276.124 33.952 275.804 34.968 275.804 36.28V43H273.596V30.52H275.804ZM290.265 30.52V43H288.057V30.52H290.265ZM287.889 25.36H290.481V27.904H287.889V25.36ZM296.127 25.36V43H293.919V25.36H296.127ZM302.103 25.36V43H299.895V25.36H302.103ZM318.208 37.6L320.056 43H317.728L316.168 38.248L315.928 41.296C315.416 41.936 314.768 42.44 313.984 42.808C313.216 43.176 312.32 43.36 311.296 43.36C310.048 43.36 308.944 43.072 307.984 42.496C307.04 41.904 306.304 41.112 305.776 40.12C305.248 39.112 304.984 37.992 304.984 36.76C304.984 35.528 305.248 34.408 305.776 33.4C306.304 32.376 307.04 31.576 307.984 31C308.944 30.408 310.048 30.112 311.296 30.112C312.32 30.112 313.224 30.312 314.008 30.712C314.808 31.096 315.472 31.64 316 32.344V30.52H318.208V37.6ZM307.24 36.76C307.24 37.624 307.416 38.408 307.768 39.112C308.136 39.8 308.648 40.344 309.304 40.744C309.976 41.144 310.76 41.344 311.656 41.344C312.52 41.344 313.288 41.144 313.96 40.744C314.632 40.344 315.152 39.8 315.52 39.112C315.888 38.408 316.072 37.624 316.072 36.76C316.072 35.896 315.888 35.112 315.52 34.408C315.152 33.704 314.632 33.152 313.96 32.752C313.288 32.336 312.52 32.128 311.656 32.128C310.76 32.128 309.976 32.336 309.304 32.752C308.648 33.152 308.136 33.704 307.768 34.408C307.416 35.112 307.24 35.896 307.24 36.76ZM328.216 25.36H335.368C336.552 25.36 337.576 25.576 338.44 26.008C339.304 26.44 339.968 27.056 340.432 27.856C340.896 28.64 341.128 29.552 341.128 30.592C341.128 31.68 340.872 32.616 340.36 33.4C339.864 34.184 339.192 34.776 338.344 35.176C337.496 35.576 336.552 35.776 335.512 35.776H330.496V43H328.216V25.36ZM335.368 33.736C336.424 33.736 337.264 33.456 337.888 32.896C338.528 32.32 338.848 31.552 338.848 30.592C338.848 29.648 338.544 28.888 337.936 28.312C337.328 27.72 336.488 27.424 335.416 27.424H330.496V33.736H335.368ZM345.2 30.52L349.28 40.192L353.192 30.52H355.616L348.224 48.16H345.848L348.08 42.832L342.728 30.52H345.2ZM369.05 25.36V27.448H363.29V43H361.01V27.448H355.25V25.36H369.05ZM375.077 30.112C376.325 30.112 377.453 30.392 378.461 30.952C379.485 31.512 380.293 32.296 380.885 33.304C381.477 34.312 381.773 35.456 381.773 36.736C381.773 38.016 381.477 39.16 380.885 40.168C380.293 41.176 379.485 41.96 378.461 42.52C377.453 43.08 376.325 43.36 375.077 43.36C373.845 43.36 372.717 43.08 371.693 42.52C370.685 41.96 369.885 41.176 369.293 40.168C368.717 39.16 368.429 38.016 368.429 36.736C368.429 35.456 368.717 34.312 369.293 33.304C369.885 32.296 370.685 31.512 371.693 30.952C372.717 30.392 373.845 30.112 375.077 30.112ZM370.685 36.736C370.685 37.648 370.869 38.456 371.237 39.16C371.621 39.848 372.149 40.384 372.821 40.768C373.493 41.136 374.245 41.32 375.077 41.32C375.925 41.32 376.685 41.136 377.357 40.768C378.029 40.384 378.549 39.848 378.917 39.16C379.301 38.456 379.493 37.648 379.493 36.736C379.493 35.824 379.301 35.024 378.917 34.336C378.549 33.648 378.029 33.112 377.357 32.728C376.685 32.344 375.925 32.152 375.077 32.152C374.229 32.152 373.469 32.344 372.797 32.728C372.141 33.112 371.621 33.648 371.237 34.336C370.869 35.024 370.685 35.824 370.685 36.736ZM386.687 30.52V34.84L387.335 31.648C387.687 31.28 388.143 30.96 388.703 30.688C389.263 30.416 389.911 30.28 390.647 30.28C390.967 30.28 391.263 30.312 391.535 30.376V32.632C391.151 32.536 390.775 32.488 390.407 32.488C389.271 32.488 388.367 32.848 387.695 33.568C387.023 34.288 386.687 35.416 386.687 36.952V43H384.479V30.52H386.687ZM399.053 30.112C400.333 30.112 401.485 30.424 402.509 31.048C403.533 31.672 404.245 32.48 404.645 33.472L402.701 34.672C402.477 33.888 402.029 33.272 401.357 32.824C400.685 32.376 399.917 32.152 399.053 32.152C397.757 32.152 396.709 32.576 395.909 33.424C395.109 34.256 394.709 35.36 394.709 36.736C394.709 38.128 395.093 39.24 395.861 40.072C396.645 40.904 397.709 41.32 399.053 41.32C399.917 41.32 400.693 41.088 401.381 40.624C402.085 40.144 402.549 39.544 402.773 38.824L404.645 40.024C404.213 41 403.485 41.8 402.461 42.424C401.437 43.048 400.301 43.36 399.053 43.36C397.773 43.36 396.629 43.088 395.621 42.544C394.629 41.984 393.853 41.208 393.293 40.216C392.733 39.208 392.453 38.048 392.453 36.736C392.453 35.456 392.733 34.312 393.293 33.304C393.869 32.296 394.653 31.512 395.645 30.952C396.653 30.392 397.789 30.112 399.053 30.112ZM413.715 30.136C415.251 30.136 416.435 30.592 417.267 31.504C418.099 32.4 418.515 33.664 418.515 35.296V43H416.307V35.632C416.307 33.312 415.267 32.152 413.187 32.152C412.083 32.152 411.211 32.512 410.571 33.232C409.947 33.952 409.635 34.968 409.635 36.28V43H407.427V25.36H409.635V34.288L410.283 31.6C410.635 31.152 411.075 30.8 411.603 30.544C412.131 30.272 412.835 30.136 413.715 30.136ZM428.449 30.52L432.505 40.504L436.537 30.52H438.913L433.681 43H431.305L426.025 30.52H428.449ZM445.64 30.112C447.08 30.112 448.272 30.448 449.216 31.12C450.16 31.776 450.712 32.656 450.872 33.76L448.76 34.552C448.712 33.736 448.416 33.096 447.872 32.632C447.328 32.168 446.584 31.936 445.64 31.936C444.808 31.936 444.144 32.112 443.648 32.464C443.168 32.816 442.928 33.264 442.928 33.808C442.928 34.208 443.072 34.536 443.36 34.792C443.648 35.032 444 35.216 444.416 35.344C444.848 35.472 445.448 35.616 446.216 35.776C447.256 36 448.088 36.224 448.712 36.448C449.352 36.672 449.896 37.032 450.344 37.528C450.808 38.024 451.04 38.696 451.04 39.544C451.04 40.744 450.568 41.68 449.624 42.352C448.696 43.024 447.44 43.36 445.856 43.36C444.288 43.36 443.008 43.008 442.016 42.304C441.024 41.6 440.432 40.672 440.24 39.52L442.4 38.608C442.448 39.536 442.776 40.256 443.384 40.768C444.008 41.28 444.832 41.536 445.856 41.536C446.704 41.536 447.384 41.384 447.896 41.08C448.408 40.776 448.664 40.312 448.664 39.688C448.664 39.288 448.52 38.968 448.232 38.728C447.96 38.488 447.608 38.304 447.176 38.176C446.76 38.048 446.184 37.912 445.448 37.768C444.44 37.56 443.616 37.344 442.976 37.12C442.336 36.896 441.784 36.536 441.32 36.04C440.872 35.528 440.648 34.832 440.648 33.952C440.648 33.232 440.872 32.576 441.32 31.984C441.768 31.392 442.376 30.936 443.144 30.616C443.912 30.28 444.744 30.112 445.64 30.112ZM467.763 24.952C469.395 24.952 470.899 25.328 472.275 26.08C473.667 26.816 474.723 27.864 475.443 29.224L473.619 30.544C473.123 29.424 472.355 28.56 471.315 27.952C470.275 27.328 469.107 27.016 467.811 27.016C466.563 27.016 465.419 27.296 464.379 27.856C463.339 28.416 462.507 29.24 461.883 30.328C461.259 31.4 460.947 32.68 460.947 34.168C460.947 35.64 461.251 36.92 461.859 38.008C462.483 39.08 463.315 39.896 464.355 40.456C465.395 41.016 466.539 41.296 467.787 41.296C469.115 41.296 470.307 40.984 471.363 40.36C472.419 39.736 473.187 38.856 473.667 37.72L475.515 39.016C474.731 40.376 473.659 41.44 472.299 42.208C470.939 42.976 469.411 43.36 467.715 43.36C466.083 43.36 464.571 42.984 463.179 42.232C461.803 41.48 460.699 40.408 459.867 39.016C459.051 37.624 458.643 36 458.643 34.144C458.643 32.304 459.059 30.688 459.891 29.296C460.739 27.888 461.859 26.816 463.251 26.08C464.643 25.328 466.147 24.952 467.763 24.952ZM483.968 30.112C485.216 30.112 486.344 30.392 487.352 30.952C488.376 31.512 489.184 32.296 489.776 33.304C490.368 34.312 490.664 35.456 490.664 36.736C490.664 38.016 490.368 39.16 489.776 40.168C489.184 41.176 488.376 41.96 487.352 42.52C486.344 43.08 485.216 43.36 483.968 43.36C482.736 43.36 481.608 43.08 480.584 42.52C479.576 41.96 478.776 41.176 478.184 40.168C477.608 39.16 477.32 38.016 477.32 36.736C477.32 35.456 477.608 34.312 478.184 33.304C478.776 32.296 479.576 31.512 480.584 30.952C481.608 30.392 482.736 30.112 483.968 30.112ZM479.576 36.736C479.576 37.648 479.76 38.456 480.128 39.16C480.512 39.848 481.04 40.384 481.712 40.768C482.384 41.136 483.136 41.32 483.968 41.32C484.816 41.32 485.576 41.136 486.248 40.768C486.92 40.384 487.44 39.848 487.808 39.16C488.192 38.456 488.384 37.648 488.384 36.736C488.384 35.824 488.192 35.024 487.808 34.336C487.44 33.648 486.92 33.112 486.248 32.728C485.576 32.344 484.816 32.152 483.968 32.152C483.12 32.152 482.36 32.344 481.688 32.728C481.032 33.112 480.512 33.648 480.128 34.336C479.76 35.024 479.576 35.824 479.576 36.736ZM501.433 35.416C501.433 34.632 501.249 33.888 500.881 33.184C500.513 32.48 499.793 32.128 498.721 32.128C497.729 32.128 496.961 32.496 496.417 33.232C495.873 33.968 495.593 34.968 495.577 36.232V43H493.369V30.52H495.577V34.216L496.297 31.312C497.049 30.512 498.049 30.112 499.297 30.112C500.513 30.112 501.505 30.488 502.273 31.24C503.057 31.976 503.489 32.936 503.569 34.12L504.193 31.312C505.025 30.512 506.073 30.112 507.337 30.112C508.681 30.112 509.745 30.536 510.529 31.384C511.313 32.216 511.705 33.4 511.705 34.936V43H509.497V35.368C509.497 34.28 509.265 33.472 508.801 32.944C508.337 32.4 507.665 32.128 506.785 32.128C505.761 32.128 504.977 32.48 504.433 33.184C503.905 33.872 503.641 34.832 503.641 36.064V43H501.433V35.416ZM522.008 43.36C521.192 43.36 520.464 43.24 519.824 43C519.2 42.776 518.672 42.504 518.24 42.184L517.304 38.92V48.16H515.096V30.52H517.304V32.368C517.832 31.664 518.488 31.112 519.272 30.712C520.072 30.312 520.984 30.112 522.008 30.112C523.256 30.112 524.352 30.408 525.296 31C526.256 31.576 527 32.376 527.528 33.4C528.056 34.408 528.32 35.528 528.32 36.76C528.32 37.992 528.056 39.112 527.528 40.12C527 41.112 526.256 41.904 525.296 42.496C524.352 43.072 523.256 43.36 522.008 43.36ZM517.232 36.76C517.232 37.624 517.416 38.408 517.784 39.112C518.152 39.8 518.672 40.344 519.344 40.744C520.016 41.144 520.784 41.344 521.648 41.344C522.544 41.344 523.32 41.144 523.976 40.744C524.648 40.344 525.16 39.8 525.512 39.112C525.88 38.408 526.064 37.624 526.064 36.76C526.064 35.896 525.88 35.112 525.512 34.408C525.16 33.704 524.648 33.152 523.976 32.752C523.32 32.336 522.544 32.128 521.648 32.128C520.784 32.128 520.016 32.336 519.344 32.752C518.672 33.152 518.152 33.704 517.784 34.408C517.416 35.112 517.232 35.896 517.232 36.76ZM536.937 30.112C538.185 30.112 539.313 30.392 540.321 30.952C541.345 31.512 542.153 32.296 542.745 33.304C543.337 34.312 543.633 35.456 543.633 36.736C543.633 38.016 543.337 39.16 542.745 40.168C542.153 41.176 541.345 41.96 540.321 42.52C539.313 43.08 538.185 43.36 536.937 43.36C535.705 43.36 534.577 43.08 533.553 42.52C532.545 41.96 531.745 41.176 531.153 40.168C530.577 39.16 530.289 38.016 530.289 36.736C530.289 35.456 530.577 34.312 531.153 33.304C531.745 32.296 532.545 31.512 533.553 30.952C534.577 30.392 535.705 30.112 536.937 30.112ZM532.545 36.736C532.545 37.648 532.729 38.456 533.097 39.16C533.481 39.848 534.009 40.384 534.681 40.768C535.353 41.136 536.105 41.32 536.937 41.32C537.785 41.32 538.545 41.136 539.217 40.768C539.889 40.384 540.409 39.848 540.777 39.16C541.161 38.456 541.353 37.648 541.353 36.736C541.353 35.824 541.161 35.024 540.777 34.336C540.409 33.648 539.889 33.112 539.217 32.728C538.545 32.344 537.785 32.152 536.937 32.152C536.089 32.152 535.329 32.344 534.657 32.728C534.001 33.112 533.481 33.648 533.097 34.336C532.729 35.024 532.545 35.824 532.545 36.736ZM550.898 30.112C552.338 30.112 553.53 30.448 554.474 31.12C555.418 31.776 555.97 32.656 556.13 33.76L554.018 34.552C553.97 33.736 553.674 33.096 553.13 32.632C552.586 32.168 551.842 31.936 550.898 31.936C550.066 31.936 549.402 32.112 548.906 32.464C548.426 32.816 548.186 33.264 548.186 33.808C548.186 34.208 548.33 34.536 548.618 34.792C548.906 35.032 549.258 35.216 549.674 35.344C550.106 35.472 550.706 35.616 551.474 35.776C552.514 36 553.346 36.224 553.97 36.448C554.61 36.672 555.154 37.032 555.602 37.528C556.066 38.024 556.298 38.696 556.298 39.544C556.298 40.744 555.826 41.68 554.882 42.352C553.954 43.024 552.698 43.36 551.114 43.36C549.546 43.36 548.266 43.008 547.274 42.304C546.282 41.6 545.69 40.672 545.498 39.52L547.658 38.608C547.706 39.536 548.034 40.256 548.642 40.768C549.266 41.28 550.09 41.536 551.114 41.536C551.962 41.536 552.642 41.384 553.154 41.08C553.666 40.776 553.922 40.312 553.922 39.688C553.922 39.288 553.778 38.968 553.49 38.728C553.218 38.488 552.866 38.304 552.434 38.176C552.018 38.048 551.442 37.912 550.706 37.768C549.698 37.56 548.874 37.344 548.234 37.12C547.594 36.896 547.042 36.536 546.578 36.04C546.13 35.528 545.906 34.832 545.906 33.952C545.906 33.232 546.13 32.576 546.578 31.984C547.026 31.392 547.634 30.936 548.402 30.616C549.17 30.28 550.002 30.112 550.898 30.112ZM564.488 30.112C565.704 30.112 566.76 30.384 567.656 30.928C568.568 31.456 569.264 32.208 569.744 33.184C570.224 34.16 570.464 35.28 570.464 36.544C570.464 36.944 570.448 37.256 570.416 37.48H560.6C560.728 38.76 561.16 39.744 561.896 40.432C562.648 41.104 563.584 41.44 564.704 41.44C566.624 41.44 567.936 40.624 568.64 38.992L570.296 40.408C569.752 41.384 568.976 42.12 567.968 42.616C566.96 43.112 565.856 43.36 564.656 43.36C563.408 43.36 562.304 43.08 561.344 42.52C560.384 41.96 559.64 41.184 559.112 40.192C558.584 39.2 558.32 38.064 558.32 36.784C558.32 35.52 558.584 34.384 559.112 33.376C559.64 32.352 560.376 31.552 561.32 30.976C562.264 30.4 563.32 30.112 564.488 30.112ZM568.088 35.752C568.088 34.616 567.752 33.72 567.08 33.064C566.424 32.392 565.544 32.056 564.44 32.056C563.464 32.056 562.624 32.376 561.92 33.016C561.232 33.656 560.808 34.568 560.648 35.752H568.088ZM575.593 30.52V34.84L576.241 31.648C576.593 31.28 577.049 30.96 577.609 30.688C578.169 30.416 578.817 30.28 579.553 30.28C579.873 30.28 580.169 30.312 580.441 30.376V32.632C580.057 32.536 579.681 32.488 579.313 32.488C578.177 32.488 577.273 32.848 576.601 33.568C575.929 34.288 575.593 35.416 575.593 36.952V43H573.385V30.52H575.593Z" fill="white"/>
<path d="M45.9464 65.68V67C46.4824 67.056 46.9544 67.204 47.3624 67.444C47.7704 67.676 48.0904 67.972 48.3224 68.332C48.5544 68.692 48.6864 69.076 48.7184 69.484L47.6624 69.94C47.6624 69.436 47.5104 69.012 47.2064 68.668C46.9024 68.316 46.4824 68.096 45.9464 68.008V71.02C46.5464 71.148 47.0464 71.292 47.4464 71.452C47.8464 71.612 48.1784 71.86 48.4424 72.196C48.7144 72.532 48.8504 72.984 48.8504 73.552C48.8504 74.296 48.5824 74.9 48.0464 75.364C47.5104 75.828 46.8104 76.096 45.9464 76.168V77.56H45.0464V76.156C44.1984 76.076 43.5024 75.788 42.9584 75.292C42.4144 74.796 42.1024 74.148 42.0224 73.348L43.1024 72.808C43.1024 73.456 43.2704 73.992 43.6064 74.416C43.9424 74.832 44.4224 75.08 45.0464 75.16V71.932C44.4544 71.812 43.9624 71.68 43.5704 71.536C43.1864 71.392 42.8624 71.16 42.5984 70.84C42.3424 70.52 42.2144 70.084 42.2144 69.532C42.2144 69.052 42.3384 68.628 42.5864 68.26C42.8424 67.892 43.1864 67.6 43.6184 67.384C44.0504 67.168 44.5264 67.036 45.0464 66.988V65.68H45.9464ZM43.3784 69.46C43.3784 69.852 43.5224 70.148 43.8104 70.348C44.0984 70.548 44.5104 70.712 45.0464 70.84V67.996C44.5424 68.052 44.1384 68.208 43.8344 68.464C43.5304 68.72 43.3784 69.052 43.3784 69.46ZM45.9464 75.172C46.4744 75.108 46.8944 74.94 47.2064 74.668C47.5264 74.388 47.6864 74.036 47.6864 73.612C47.6864 73.18 47.5344 72.856 47.2304 72.64C46.9344 72.416 46.5064 72.24 45.9464 72.112V75.172ZM55.5689 67.18V68.176L52.9409 70.6C53.0049 70.592 53.1009 70.588 53.2289 70.588C53.7409 70.588 54.2009 70.704 54.6089 70.936C55.0169 71.168 55.3369 71.492 55.5689 71.908C55.8009 72.324 55.9169 72.8 55.9169 73.336C55.9169 73.904 55.7929 74.404 55.5449 74.836C55.2969 75.26 54.9449 75.592 54.4889 75.832C54.0409 76.064 53.5169 76.18 52.9169 76.18C52.3889 76.18 51.9089 76.072 51.4769 75.856C51.0529 75.64 50.7089 75.34 50.4449 74.956C50.1809 74.572 50.0209 74.132 49.9649 73.636L51.0449 73.132C51.0609 73.74 51.2329 74.228 51.5609 74.596C51.8969 74.964 52.3489 75.148 52.9169 75.148C53.4769 75.148 53.9249 74.984 54.2609 74.656C54.6049 74.32 54.7769 73.884 54.7769 73.348C54.7769 72.772 54.6089 72.316 54.2729 71.98C53.9449 71.644 53.4769 71.476 52.8689 71.476C52.4849 71.476 52.1529 71.548 51.8729 71.692L51.4289 70.78L54.1529 68.188H50.2049V67.18H55.5689ZM60.1396 66.976C61.1156 66.976 61.8596 67.372 62.3716 68.164C62.8836 68.948 63.1396 70.092 63.1396 71.596C63.1396 73.092 62.8836 74.232 62.3716 75.016C61.8596 75.792 61.1156 76.18 60.1396 76.18C59.1636 76.18 58.4196 75.792 57.9076 75.016C57.3956 74.232 57.1396 73.092 57.1396 71.596C57.1396 70.092 57.3956 68.948 57.9076 68.164C58.4196 67.372 59.1636 66.976 60.1396 66.976ZM58.2796 71.596C58.2796 72.764 58.4356 73.648 58.7476 74.248C59.0596 74.848 59.5236 75.148 60.1396 75.148C60.7476 75.148 61.2076 74.848 61.5196 74.248C61.8396 73.648 61.9996 72.764 61.9996 71.596C61.9996 70.42 61.8396 69.528 61.5196 68.92C61.2076 68.312 60.7476 68.008 60.1396 68.008C59.5236 68.008 59.0596 68.312 58.7476 68.92C58.4356 69.52 58.2796 70.412 58.2796 71.596ZM67.3818 66.976C68.3578 66.976 69.1018 67.372 69.6138 68.164C70.1258 68.948 70.3818 70.092 70.3818 71.596C70.3818 73.092 70.1258 74.232 69.6138 75.016C69.1018 75.792 68.3578 76.18 67.3818 76.18C66.4058 76.18 65.6618 75.792 65.1498 75.016C64.6378 74.232 64.3818 73.092 64.3818 71.596C64.3818 70.092 64.6378 68.948 65.1498 68.164C65.6618 67.372 66.4058 66.976 67.3818 66.976ZM65.5218 71.596C65.5218 72.764 65.6778 73.648 65.9898 74.248C66.3018 74.848 66.7658 75.148 67.3818 75.148C67.9898 75.148 68.4498 74.848 68.7618 74.248C69.0818 73.648 69.2418 72.764 69.2418 71.596C69.2418 70.42 69.0818 69.528 68.7618 68.92C68.4498 68.312 67.9898 68.008 67.3818 68.008C66.7658 68.008 66.3018 68.312 65.9898 68.92C65.6778 69.52 65.5218 70.412 65.5218 71.596Z" fill="white"/>
<path d="M46.2043 176.68V178C46.7403 178.056 47.2123 178.204 47.6203 178.444C48.0283 178.676 48.3483 178.972 48.5803 179.332C48.8123 179.692 48.9443 180.076 48.9763 180.484L47.9203 180.94C47.9203 180.436 47.7683 180.012 47.4643 179.668C47.1603 179.316 46.7403 179.096 46.2043 179.008V182.02C46.8043 182.148 47.3043 182.292 47.7043 182.452C48.1043 182.612 48.4363 182.86 48.7003 183.196C48.9723 183.532 49.1083 183.984 49.1083 184.552C49.1083 185.296 48.8403 185.9 48.3043 186.364C47.7683 186.828 47.0683 187.096 46.2043 187.168V188.56H45.3043V187.156C44.4563 187.076 43.7603 186.788 43.2163 186.292C42.6723 185.796 42.3603 185.148 42.2803 184.348L43.3603 183.808C43.3603 184.456 43.5283 184.992 43.8643 185.416C44.2003 185.832 44.6803 186.08 45.3043 186.16V182.932C44.7123 182.812 44.2203 182.68 43.8283 182.536C43.4443 182.392 43.1203 182.16 42.8563 181.84C42.6003 181.52 42.4723 181.084 42.4723 180.532C42.4723 180.052 42.5963 179.628 42.8443 179.26C43.1003 178.892 43.4443 178.6 43.8763 178.384C44.3083 178.168 44.7843 178.036 45.3043 177.988V176.68H46.2043ZM43.6363 180.46C43.6363 180.852 43.7803 181.148 44.0683 181.348C44.3563 181.548 44.7683 181.712 45.3043 181.84V178.996C44.8003 179.052 44.3963 179.208 44.0923 179.464C43.7883 179.72 43.6363 180.052 43.6363 180.46ZM46.2043 186.172C46.7323 186.108 47.1523 185.94 47.4643 185.668C47.7843 185.388 47.9443 185.036 47.9443 184.612C47.9443 184.18 47.7923 183.856 47.4883 183.64C47.1923 183.416 46.7643 183.24 46.2043 183.112V186.172ZM53.1508 177.976C53.6788 177.976 54.1468 178.084 54.5548 178.3C54.9708 178.516 55.2908 178.82 55.5148 179.212C55.7468 179.596 55.8628 180.032 55.8628 180.52C55.8628 181.152 55.6868 181.752 55.3348 182.32C54.9828 182.88 54.4668 183.484 53.7868 184.132L51.8788 185.98H55.9108V187H50.3548V185.992L52.7908 183.616C53.3988 183.024 53.8708 182.48 54.2068 181.984C54.5508 181.48 54.7228 180.984 54.7228 180.496C54.7228 180.048 54.5788 179.688 54.2908 179.416C54.0028 179.144 53.6108 179.008 53.1148 179.008C52.5788 179.008 52.1588 179.176 51.8548 179.512C51.5508 179.84 51.3988 180.268 51.3988 180.796C51.3988 180.964 51.4108 181.14 51.4348 181.324L50.3188 181.132C50.2948 180.964 50.2828 180.8 50.2828 180.64C50.2828 180.152 50.4028 179.704 50.6428 179.296C50.8828 178.888 51.2188 178.568 51.6508 178.336C52.0908 178.096 52.5908 177.976 53.1508 177.976ZM60.1396 177.976C61.1156 177.976 61.8596 178.372 62.3716 179.164C62.8836 179.948 63.1396 181.092 63.1396 182.596C63.1396 184.092 62.8836 185.232 62.3716 186.016C61.8596 186.792 61.1156 187.18 60.1396 187.18C59.1636 187.18 58.4196 186.792 57.9076 186.016C57.3956 185.232 57.1396 184.092 57.1396 182.596C57.1396 181.092 57.3956 179.948 57.9076 179.164C58.4196 178.372 59.1636 177.976 60.1396 177.976ZM58.2796 182.596C58.2796 183.764 58.4356 184.648 58.7476 185.248C59.0596 185.848 59.5236 186.148 60.1396 186.148C60.7476 186.148 61.2076 185.848 61.5196 185.248C61.8396 184.648 61.9996 183.764 61.9996 182.596C61.9996 181.42 61.8396 180.528 61.5196 179.92C61.2076 179.312 60.7476 179.008 60.1396 179.008C59.5236 179.008 59.0596 179.312 58.7476 179.92C58.4356 180.52 58.2796 181.412 58.2796 182.596ZM67.3818 177.976C68.3578 177.976 69.1018 178.372 69.6138 179.164C70.1258 179.948 70.3818 181.092 70.3818 182.596C70.3818 184.092 70.1258 185.232 69.6138 186.016C69.1018 186.792 68.3578 187.18 67.3818 187.18C66.4058 187.18 65.6618 186.792 65.1498 186.016C64.6378 185.232 64.3818 184.092 64.3818 182.596C64.3818 181.092 64.6378 179.948 65.1498 179.164C65.6618 178.372 66.4058 177.976 67.3818 177.976ZM65.5218 182.596C65.5218 183.764 65.6778 184.648 65.9898 185.248C66.3018 185.848 66.7658 186.148 67.3818 186.148C67.9898 186.148 68.4498 185.848 68.7618 185.248C69.0818 184.648 69.2418 183.764 69.2418 182.596C69.2418 181.42 69.0818 180.528 68.7618 179.92C68.4498 179.312 67.9898 179.008 67.3818 179.008C66.7658 179.008 66.3018 179.312 65.9898 179.92C65.6778 180.52 65.5218 181.412 65.5218 182.596Z" fill="white"/>
<path d="M47.5285 287.68V289C48.0645 289.056 48.5365 289.204 48.9445 289.444C49.3525 289.676 49.6725 289.972 49.9045 290.332C50.1365 290.692 50.2685 291.076 50.3005 291.484L49.2445 291.94C49.2445 291.436 49.0925 291.012 48.7885 290.668C48.4845 290.316 48.0645 290.096 47.5285 290.008V293.02C48.1285 293.148 48.6285 293.292 49.0285 293.452C49.4285 293.612 49.7605 293.86 50.0245 294.196C50.2965 294.532 50.4325 294.984 50.4325 295.552C50.4325 296.296 50.1645 296.9 49.6285 297.364C49.0925 297.828 48.3925 298.096 47.5285 298.168V299.56H46.6285V298.156C45.7805 298.076 45.0845 297.788 44.5405 297.292C43.9965 296.796 43.6845 296.148 43.6045 295.348L44.6845 294.808C44.6845 295.456 44.8525 295.992 45.1885 296.416C45.5245 296.832 46.0045 297.08 46.6285 297.16V293.932C46.0365 293.812 45.5445 293.68 45.1525 293.536C44.7685 293.392 44.4445 293.16 44.1805 292.84C43.9245 292.52 43.7965 292.084 43.7965 291.532C43.7965 291.052 43.9205 290.628 44.1685 290.26C44.4245 289.892 44.7685 289.6 45.2005 289.384C45.6325 289.168 46.1085 289.036 46.6285 288.988V287.68H47.5285ZM44.9605 291.46C44.9605 291.852 45.1045 292.148 45.3925 292.348C45.6805 292.548 46.0925 292.712 46.6285 292.84V289.996C46.1245 290.052 45.7205 290.208 45.4165 290.464C45.1125 290.72 44.9605 291.052 44.9605 291.46ZM47.5285 297.172C48.0565 297.108 48.4765 296.94 48.7885 296.668C49.1085 296.388 49.2685 296.036 49.2685 295.612C49.2685 295.18 49.1165 294.856 48.8125 294.64C48.5165 294.416 48.0885 294.24 47.5285 294.112V297.172ZM54.919 289.18V298H53.803V290.92L51.607 293.584V292L53.899 289.18H54.919ZM60.1396 288.976C61.1156 288.976 61.8596 289.372 62.3716 290.164C62.8836 290.948 63.1396 292.092 63.1396 293.596C63.1396 295.092 62.8836 296.232 62.3716 297.016C61.8596 297.792 61.1156 298.18 60.1396 298.18C59.1636 298.18 58.4196 297.792 57.9076 297.016C57.3956 296.232 57.1396 295.092 57.1396 293.596C57.1396 292.092 57.3956 290.948 57.9076 290.164C58.4196 289.372 59.1636 288.976 60.1396 288.976ZM58.2796 293.596C58.2796 294.764 58.4356 295.648 58.7476 296.248C59.0596 296.848 59.5236 297.148 60.1396 297.148C60.7476 297.148 61.2076 296.848 61.5196 296.248C61.8396 295.648 61.9996 294.764 61.9996 293.596C61.9996 292.42 61.8396 291.528 61.5196 290.92C61.2076 290.312 60.7476 290.008 60.1396 290.008C59.5236 290.008 59.0596 290.312 58.7476 290.92C58.4356 291.52 58.2796 292.412 58.2796 293.596ZM67.3818 288.976C68.3578 288.976 69.1018 289.372 69.6138 290.164C70.1258 290.948 70.3818 292.092 70.3818 293.596C70.3818 295.092 70.1258 296.232 69.6138 297.016C69.1018 297.792 68.3578 298.18 67.3818 298.18C66.4058 298.18 65.6618 297.792 65.1498 297.016C64.6378 296.232 64.3818 295.092 64.3818 293.596C64.3818 292.092 64.6378 290.948 65.1498 290.164C65.6618 289.372 66.4058 288.976 67.3818 288.976ZM65.5218 293.596C65.5218 294.764 65.6778 295.648 65.9898 296.248C66.3018 296.848 66.7658 297.148 67.3818 297.148C67.9898 297.148 68.4498 296.848 68.7618 296.248C69.0818 295.648 69.2418 294.764 69.2418 293.596C69.2418 292.42 69.0818 291.528 68.7618 290.92C68.4498 290.312 67.9898 290.008 67.3818 290.008C66.7658 290.008 66.3018 290.312 65.9898 290.92C65.6778 291.52 65.5218 292.412 65.5218 293.596Z" fill="white"/>
<path d="M60.2433 396.68V398C60.7793 398.056 61.2513 398.204 61.6593 398.444C62.0673 398.676 62.3873 398.972 62.6193 399.332C62.8513 399.692 62.9833 400.076 63.0153 400.484L61.9593 400.94C61.9593 400.436 61.8073 400.012 61.5033 399.668C61.1993 399.316 60.7793 399.096 60.2433 399.008V402.02C60.8433 402.148 61.3433 402.292 61.7433 402.452C62.1433 402.612 62.4753 402.86 62.7393 403.196C63.0113 403.532 63.1473 403.984 63.1473 404.552C63.1473 405.296 62.8793 405.9 62.3433 406.364C61.8073 406.828 61.1073 407.096 60.2433 407.168V408.56H59.3433V407.156C58.4953 407.076 57.7993 406.788 57.2553 406.292C56.7113 405.796 56.3993 405.148 56.3193 404.348L57.3993 403.808C57.3993 404.456 57.5673 404.992 57.9033 405.416C58.2393 405.832 58.7193 406.08 59.3433 406.16V402.932C58.7513 402.812 58.2593 402.68 57.8673 402.536C57.4833 402.392 57.1593 402.16 56.8953 401.84C56.6393 401.52 56.5113 401.084 56.5113 400.532C56.5113 400.052 56.6353 399.628 56.8833 399.26C57.1393 398.892 57.4833 398.6 57.9153 398.384C58.3473 398.168 58.8233 398.036 59.3433 397.988V396.68H60.2433ZM57.6753 400.46C57.6753 400.852 57.8193 401.148 58.1073 401.348C58.3953 401.548 58.8073 401.712 59.3433 401.84V398.996C58.8393 399.052 58.4353 399.208 58.1313 399.464C57.8273 399.72 57.6753 400.052 57.6753 400.46ZM60.2433 406.172C60.7713 406.108 61.1913 405.94 61.5033 405.668C61.8233 405.388 61.9833 405.036 61.9833 404.612C61.9833 404.18 61.8313 403.856 61.5273 403.64C61.2313 403.416 60.8033 403.24 60.2433 403.112V406.172ZM67.3818 397.976C68.3578 397.976 69.1018 398.372 69.6138 399.164C70.1258 399.948 70.3818 401.092 70.3818 402.596C70.3818 404.092 70.1258 405.232 69.6138 406.016C69.1018 406.792 68.3578 407.18 67.3818 407.18C66.4058 407.18 65.6618 406.792 65.1498 406.016C64.6378 405.232 64.3818 404.092 64.3818 402.596C64.3818 401.092 64.6378 399.948 65.1498 399.164C65.6618 398.372 66.4058 397.976 67.3818 397.976ZM65.5218 402.596C65.5218 403.764 65.6778 404.648 65.9898 405.248C66.3018 405.848 66.7658 406.148 67.3818 406.148C67.9898 406.148 68.4498 405.848 68.7618 405.248C69.0818 404.648 69.2418 403.764 69.2418 402.596C69.2418 401.42 69.0818 400.528 68.7618 399.92C68.4498 399.312 67.9898 399.008 67.3818 399.008C66.7658 399.008 66.3018 399.312 65.9898 399.92C65.6778 400.52 65.5218 401.412 65.5218 402.596Z" fill="white"/>
<path d="M169.327 422.18C168.551 422.18 167.839 421.992 167.191 421.616C166.551 421.24 166.043 420.704 165.667 420.008C165.291 419.312 165.103 418.504 165.103 417.584C165.103 416.656 165.307 415.844 165.715 415.148C166.123 414.452 166.671 413.916 167.359 413.54C168.055 413.164 168.811 412.976 169.627 412.976C170.435 412.976 171.191 413.164 171.895 413.54C172.607 413.908 173.143 414.432 173.503 415.112L172.591 415.772C172.343 415.212 171.951 414.78 171.415 414.476C170.887 414.164 170.287 414.008 169.615 414.008C169.007 414.008 168.447 414.148 167.935 414.428C167.423 414.708 167.015 415.12 166.711 415.664C166.407 416.2 166.255 416.836 166.255 417.572C166.255 418.324 166.395 418.968 166.675 419.504C166.963 420.04 167.355 420.448 167.851 420.728C168.347 421.008 168.911 421.148 169.543 421.148C170.071 421.148 170.547 421.032 170.971 420.8C171.395 420.568 171.731 420.244 171.979 419.828C172.235 419.412 172.379 418.94 172.411 418.412H168.907L169.735 417.404H173.539V422H172.411V420.548C172.107 421.02 171.703 421.412 171.199 421.724C170.703 422.028 170.079 422.18 169.327 422.18ZM175.545 413.18H179.121C179.713 413.18 180.225 413.288 180.657 413.504C181.089 413.72 181.421 414.028 181.653 414.428C181.885 414.82 182.001 415.276 182.001 415.796C182.001 416.34 181.873 416.808 181.617 417.2C181.369 417.592 181.033 417.888 180.609 418.088C180.185 418.288 179.713 418.388 179.193 418.388H176.685V422H175.545V413.18ZM179.121 417.368C179.649 417.368 180.069 417.228 180.381 416.948C180.701 416.66 180.861 416.276 180.861 415.796C180.861 415.324 180.709 414.944 180.405 414.656C180.101 414.36 179.681 414.212 179.145 414.212H176.685V417.368H179.121ZM189.669 413.18V414.224H186.789V422H185.649V414.224H182.769V413.18H189.669ZM190.329 418.412H194.469V419.432H190.329V418.412ZM198.78 412.976C199.308 412.976 199.776 413.084 200.184 413.3C200.6 413.516 200.92 413.82 201.144 414.212C201.376 414.596 201.492 415.032 201.492 415.52C201.492 416.152 201.316 416.752 200.964 417.32C200.612 417.88 200.096 418.484 199.416 419.132L197.508 420.98H201.54V422H195.984V420.992L198.42 418.616C199.028 418.024 199.5 417.48 199.836 416.984C200.18 416.48 200.352 415.984 200.352 415.496C200.352 415.048 200.208 414.688 199.92 414.416C199.632 414.144 199.24 414.008 198.744 414.008C198.208 414.008 197.788 414.176 197.484 414.512C197.18 414.84 197.028 415.268 197.028 415.796C197.028 415.964 197.04 416.14 197.064 416.324L195.948 416.132C195.924 415.964 195.912 415.8 195.912 415.64C195.912 415.152 196.032 414.704 196.272 414.296C196.512 413.888 196.848 413.568 197.28 413.336C197.72 413.096 198.22 412.976 198.78 412.976ZM208.751 413.18V422H207.635V414.92L205.439 417.584V416L207.731 413.18H208.751ZM213.78 412.976C214.308 412.976 214.776 413.084 215.184 413.3C215.6 413.516 215.92 413.82 216.144 414.212C216.376 414.596 216.492 415.032 216.492 415.52C216.492 416.152 216.316 416.752 215.964 417.32C215.612 417.88 215.096 418.484 214.416 419.132L212.508 420.98H216.54V422H210.984V420.992L213.42 418.616C214.028 418.024 214.5 417.48 214.836 416.984C215.18 416.48 215.352 415.984 215.352 415.496C215.352 415.048 215.208 414.688 214.92 414.416C214.632 414.144 214.24 414.008 213.744 414.008C213.208 414.008 212.788 414.176 212.484 414.512C212.18 414.84 212.028 415.268 212.028 415.796C212.028 415.964 212.04 416.14 212.064 416.324L210.948 416.132C210.924 415.964 210.912 415.8 210.912 415.64C210.912 415.152 211.032 414.704 211.272 414.296C211.512 413.888 211.848 413.568 212.28 413.336C212.72 413.096 213.22 412.976 213.78 412.976ZM220.853 416.384C221.405 416.384 221.889 416.504 222.305 416.744C222.729 416.976 223.053 417.312 223.277 417.752C223.509 418.184 223.625 418.688 223.625 419.264C223.625 419.84 223.497 420.348 223.241 420.788C222.993 421.228 222.641 421.572 222.185 421.82C221.729 422.06 221.205 422.18 220.613 422.18C219.829 422.18 219.173 421.972 218.645 421.556C218.125 421.132 217.817 420.552 217.721 419.816L218.777 419.396C218.801 419.94 218.977 420.372 219.305 420.692C219.641 421.004 220.081 421.16 220.625 421.16C221.185 421.16 221.637 420.984 221.981 420.632C222.325 420.28 222.497 419.824 222.497 419.264C222.497 418.68 222.329 418.212 221.993 417.86C221.665 417.508 221.229 417.332 220.685 417.332C220.317 417.332 219.981 417.416 219.677 417.584C219.381 417.752 219.141 417.98 218.957 418.268L217.985 418.028L218.249 413.18H223.325V414.188H219.257L219.101 417.068C219.341 416.844 219.601 416.676 219.881 416.564C220.161 416.444 220.485 416.384 220.853 416.384ZM227.019 413.18L229.851 420.704L232.671 413.18H234.351V422H233.235V414.56L230.475 421.916H229.191L226.443 414.56V422H225.327V413.18H227.019Z" fill="white"/>
<path d="M357.622 411.18H361.462C362.054 411.18 362.562 411.288 362.986 411.504C363.418 411.72 363.746 412.02 363.97 412.404C364.194 412.78 364.306 413.212 364.306 413.7C364.306 414.444 364.058 415.044 363.562 415.5C363.066 415.956 362.366 416.184 361.462 416.184H360.958L362.182 416.496L364.642 420H363.298L360.694 416.184H358.762V420H357.622V411.18ZM361.438 415.176C361.982 415.176 362.406 415.044 362.71 414.78C363.014 414.508 363.166 414.148 363.166 413.7C363.166 413.244 363.014 412.884 362.71 412.62C362.406 412.348 361.982 412.212 361.438 412.212H358.762V415.176H361.438ZM368.344 413.556C368.952 413.556 369.48 413.692 369.928 413.964C370.384 414.228 370.732 414.604 370.972 415.092C371.212 415.58 371.332 416.14 371.332 416.772C371.332 416.972 371.324 417.128 371.308 417.24H366.4C366.464 417.88 366.68 418.372 367.048 418.716C367.424 419.052 367.892 419.22 368.452 419.22C369.412 419.22 370.068 418.812 370.42 417.996L371.248 418.704C370.976 419.192 370.588 419.56 370.084 419.808C369.58 420.056 369.028 420.18 368.428 420.18C367.804 420.18 367.252 420.04 366.772 419.76C366.292 419.48 365.92 419.092 365.656 418.596C365.392 418.1 365.26 417.532 365.26 416.892C365.26 416.26 365.392 415.692 365.656 415.188C365.92 414.676 366.288 414.276 366.76 413.988C367.232 413.7 367.76 413.556 368.344 413.556ZM370.144 416.376C370.144 415.808 369.976 415.36 369.64 415.032C369.312 414.696 368.872 414.528 368.32 414.528C367.832 414.528 367.412 414.688 367.06 415.008C366.716 415.328 366.504 415.784 366.424 416.376H370.144ZM375.072 413.556C375.792 413.556 376.388 413.724 376.86 414.06C377.332 414.388 377.608 414.828 377.688 415.38L376.632 415.776C376.608 415.368 376.46 415.048 376.188 414.816C375.916 414.584 375.544 414.468 375.072 414.468C374.656 414.468 374.324 414.556 374.076 414.732C373.836 414.908 373.716 415.132 373.716 415.404C373.716 415.604 373.788 415.768 373.932 415.896C374.076 416.016 374.252 416.108 374.46 416.172C374.676 416.236 374.976 416.308 375.36 416.388C375.88 416.5 376.296 416.612 376.608 416.724C376.928 416.836 377.2 417.016 377.424 417.264C377.656 417.512 377.772 417.848 377.772 418.272C377.772 418.872 377.536 419.34 377.064 419.676C376.6 420.012 375.972 420.18 375.18 420.18C374.396 420.18 373.756 420.004 373.26 419.652C372.764 419.3 372.468 418.836 372.372 418.26L373.452 417.804C373.476 418.268 373.64 418.628 373.944 418.884C374.256 419.14 374.668 419.268 375.18 419.268C375.604 419.268 375.944 419.192 376.2 419.04C376.456 418.888 376.584 418.656 376.584 418.344C376.584 418.144 376.512 417.984 376.368 417.864C376.232 417.744 376.056 417.652 375.84 417.588C375.632 417.524 375.344 417.456 374.976 417.384C374.472 417.28 374.06 417.172 373.74 417.06C373.42 416.948 373.144 416.768 372.912 416.52C372.688 416.264 372.576 415.916 372.576 415.476C372.576 415.116 372.688 414.788 372.912 414.492C373.136 414.196 373.44 413.968 373.824 413.808C374.208 413.64 374.624 413.556 375.072 413.556ZM380.847 411.18L385.119 418.476V411.18H386.247V420H384.795L380.511 412.704V420H379.395V411.18H380.847ZM390.914 413.556C391.522 413.556 392.05 413.692 392.498 413.964C392.954 414.228 393.302 414.604 393.542 415.092C393.782 415.58 393.902 416.14 393.902 416.772C393.902 416.972 393.894 417.128 393.878 417.24H388.97C389.034 417.88 389.25 418.372 389.618 418.716C389.994 419.052 390.462 419.22 391.022 419.22C391.982 419.22 392.638 418.812 392.99 417.996L393.818 418.704C393.546 419.192 393.158 419.56 392.654 419.808C392.15 420.056 391.598 420.18 390.998 420.18C390.374 420.18 389.822 420.04 389.342 419.76C388.862 419.48 388.49 419.092 388.226 418.596C387.962 418.1 387.83 417.532 387.83 416.892C387.83 416.26 387.962 415.692 388.226 415.188C388.49 414.676 388.858 414.276 389.33 413.988C389.802 413.7 390.33 413.556 390.914 413.556ZM392.714 416.376C392.714 415.808 392.546 415.36 392.21 415.032C391.882 414.696 391.442 414.528 390.89 414.528C390.402 414.528 389.982 414.688 389.63 415.008C389.286 415.328 389.074 415.784 388.994 416.376H392.714ZM397.006 411.444V413.76H398.794V414.744H397.006V418.164C397.006 418.564 397.082 418.828 397.234 418.956C397.394 419.084 397.658 419.148 398.026 419.148C398.178 419.148 398.394 419.12 398.674 419.064V420.036C398.586 420.068 398.454 420.096 398.278 420.12C398.102 420.144 397.962 420.156 397.858 420.156C397.21 420.156 396.722 420.012 396.394 419.724C396.066 419.436 395.902 418.964 395.902 418.308V414.744H394.798V413.76H395.902V412.272L397.006 411.444ZM400.143 416.412H404.283V417.432H400.143V416.412ZM408.87 414.384C409.422 414.384 409.906 414.504 410.322 414.744C410.746 414.976 411.07 415.312 411.294 415.752C411.526 416.184 411.642 416.688 411.642 417.264C411.642 417.84 411.514 418.348 411.258 418.788C411.01 419.228 410.658 419.572 410.202 419.82C409.746 420.06 409.222 420.18 408.63 420.18C407.846 420.18 407.19 419.972 406.662 419.556C406.142 419.132 405.834 418.552 405.738 417.816L406.794 417.396C406.818 417.94 406.994 418.372 407.322 418.692C407.658 419.004 408.098 419.16 408.642 419.16C409.202 419.16 409.654 418.984 409.998 418.632C410.342 418.28 410.514 417.824 410.514 417.264C410.514 416.68 410.346 416.212 410.01 415.86C409.682 415.508 409.246 415.332 408.702 415.332C408.334 415.332 407.998 415.416 407.694 415.584C407.398 415.752 407.158 415.98 406.974 416.268L406.002 416.028L406.266 411.18H411.342V412.188H407.274L407.118 415.068C407.358 414.844 407.618 414.676 407.898 414.564C408.178 414.444 408.502 414.384 408.87 414.384ZM415.864 410.976C416.84 410.976 417.584 411.372 418.096 412.164C418.608 412.948 418.864 414.092 418.864 415.596C418.864 417.092 418.608 418.232 418.096 419.016C417.584 419.792 416.84 420.18 415.864 420.18C414.888 420.18 414.144 419.792 413.632 419.016C413.12 418.232 412.864 417.092 412.864 415.596C412.864 414.092 413.12 412.948 413.632 412.164C414.144 411.372 414.888 410.976 415.864 410.976ZM414.004 415.596C414.004 416.764 414.16 417.648 414.472 418.248C414.784 418.848 415.248 419.148 415.864 419.148C416.472 419.148 416.932 418.848 417.244 418.248C417.564 417.648 417.724 416.764 417.724 415.596C417.724 414.42 417.564 413.528 417.244 412.92C416.932 412.312 416.472 412.008 415.864 412.008C415.248 412.008 414.784 412.312 414.472 412.92C414.16 413.52 414.004 414.412 414.004 415.596Z" fill="white"/>
<path d="M542.788 411.18H546.628C547.22 411.18 547.728 411.288 548.152 411.504C548.584 411.72 548.912 412.02 549.136 412.404C549.36 412.78 549.472 413.212 549.472 413.7C549.472 414.444 549.224 415.044 548.728 415.5C548.232 415.956 547.532 416.184 546.628 416.184H546.124L547.348 416.496L549.808 420H548.464L545.86 416.184H543.928V420H542.788V411.18ZM546.604 415.176C547.148 415.176 547.572 415.044 547.876 414.78C548.18 414.508 548.332 414.148 548.332 413.7C548.332 413.244 548.18 412.884 547.876 412.62C547.572 412.348 547.148 412.212 546.604 412.212H543.928V415.176H546.604ZM553.51 413.556C554.118 413.556 554.646 413.692 555.094 413.964C555.55 414.228 555.898 414.604 556.138 415.092C556.378 415.58 556.498 416.14 556.498 416.772C556.498 416.972 556.49 417.128 556.474 417.24H551.566C551.63 417.88 551.846 418.372 552.214 418.716C552.59 419.052 553.058 419.22 553.618 419.22C554.578 419.22 555.234 418.812 555.586 417.996L556.414 418.704C556.142 419.192 555.754 419.56 555.25 419.808C554.746 420.056 554.194 420.18 553.594 420.18C552.97 420.18 552.418 420.04 551.938 419.76C551.458 419.48 551.086 419.092 550.822 418.596C550.558 418.1 550.426 417.532 550.426 416.892C550.426 416.26 550.558 415.692 550.822 415.188C551.086 414.676 551.454 414.276 551.926 413.988C552.398 413.7 552.926 413.556 553.51 413.556ZM555.31 416.376C555.31 415.808 555.142 415.36 554.806 415.032C554.478 414.696 554.038 414.528 553.486 414.528C552.998 414.528 552.578 414.688 552.226 415.008C551.882 415.328 551.67 415.784 551.59 416.376H555.31ZM560.238 413.556C560.958 413.556 561.554 413.724 562.026 414.06C562.498 414.388 562.774 414.828 562.854 415.38L561.798 415.776C561.774 415.368 561.626 415.048 561.354 414.816C561.082 414.584 560.71 414.468 560.238 414.468C559.822 414.468 559.49 414.556 559.242 414.732C559.002 414.908 558.882 415.132 558.882 415.404C558.882 415.604 558.954 415.768 559.098 415.896C559.242 416.016 559.418 416.108 559.626 416.172C559.842 416.236 560.142 416.308 560.526 416.388C561.046 416.5 561.462 416.612 561.774 416.724C562.094 416.836 562.366 417.016 562.59 417.264C562.822 417.512 562.938 417.848 562.938 418.272C562.938 418.872 562.702 419.34 562.23 419.676C561.766 420.012 561.138 420.18 560.346 420.18C559.562 420.18 558.922 420.004 558.426 419.652C557.93 419.3 557.634 418.836 557.538 418.26L558.618 417.804C558.642 418.268 558.806 418.628 559.11 418.884C559.422 419.14 559.834 419.268 560.346 419.268C560.77 419.268 561.11 419.192 561.366 419.04C561.622 418.888 561.75 418.656 561.75 418.344C561.75 418.144 561.678 417.984 561.534 417.864C561.398 417.744 561.222 417.652 561.006 417.588C560.798 417.524 560.51 417.456 560.142 417.384C559.638 417.28 559.226 417.172 558.906 417.06C558.586 416.948 558.31 416.768 558.078 416.52C557.854 416.264 557.742 415.916 557.742 415.476C557.742 415.116 557.854 414.788 558.078 414.492C558.302 414.196 558.606 413.968 558.99 413.808C559.374 413.64 559.79 413.556 560.238 413.556ZM566.013 411.18L570.285 418.476V411.18H571.413V420H569.961L565.677 412.704V420H564.561V411.18H566.013ZM576.08 413.556C576.688 413.556 577.216 413.692 577.664 413.964C578.12 414.228 578.468 414.604 578.708 415.092C578.948 415.58 579.068 416.14 579.068 416.772C579.068 416.972 579.06 417.128 579.044 417.24H574.136C574.2 417.88 574.416 418.372 574.784 418.716C575.16 419.052 575.628 419.22 576.188 419.22C577.148 419.22 577.804 418.812 578.156 417.996L578.984 418.704C578.712 419.192 578.324 419.56 577.82 419.808C577.316 420.056 576.764 420.18 576.164 420.18C575.54 420.18 574.988 420.04 574.508 419.76C574.028 419.48 573.656 419.092 573.392 418.596C573.128 418.1 572.996 417.532 572.996 416.892C572.996 416.26 573.128 415.692 573.392 415.188C573.656 414.676 574.024 414.276 574.496 413.988C574.968 413.7 575.496 413.556 576.08 413.556ZM577.88 416.376C577.88 415.808 577.712 415.36 577.376 415.032C577.048 414.696 576.608 414.528 576.056 414.528C575.568 414.528 575.148 414.688 574.796 415.008C574.452 415.328 574.24 415.784 574.16 416.376H577.88ZM582.172 411.444V413.76H583.96V414.744H582.172V418.164C582.172 418.564 582.248 418.828 582.4 418.956C582.56 419.084 582.824 419.148 583.192 419.148C583.344 419.148 583.56 419.12 583.84 419.064V420.036C583.752 420.068 583.62 420.096 583.444 420.12C583.268 420.144 583.128 420.156 583.024 420.156C582.376 420.156 581.888 420.012 581.56 419.724C581.232 419.436 581.068 418.964 581.068 418.308V414.744H579.964V413.76H581.068V412.272L582.172 411.444ZM585.309 416.412H589.449V417.432H585.309V416.412ZM594.005 411.18V420H592.889V412.92L590.693 415.584V414L592.985 411.18H594.005ZM599.226 410.976C600.202 410.976 600.946 411.372 601.458 412.164C601.97 412.948 602.226 414.092 602.226 415.596C602.226 417.092 601.97 418.232 601.458 419.016C600.946 419.792 600.202 420.18 599.226 420.18C598.25 420.18 597.506 419.792 596.994 419.016C596.482 418.232 596.226 417.092 596.226 415.596C596.226 414.092 596.482 412.948 596.994 412.164C597.506 411.372 598.25 410.976 599.226 410.976ZM597.366 415.596C597.366 416.764 597.522 417.648 597.834 418.248C598.146 418.848 598.61 419.148 599.226 419.148C599.834 419.148 600.294 418.848 600.606 418.248C600.926 417.648 601.086 416.764 601.086 415.596C601.086 414.42 600.926 413.528 600.606 412.92C600.294 412.312 599.834 412.008 599.226 412.008C598.61 412.008 598.146 412.312 597.834 412.92C597.522 413.52 597.366 414.412 597.366 415.596ZM606.72 411.18V420H605.604V412.92L603.408 415.584V414L605.7 411.18H606.72Z" fill="white"/>
<path d="M272.374 444.18L275.122 451.572L277.894 444.18H279.13L275.758 453H274.45L271.138 444.18H272.374ZM285.657 450.3L286.581 453H285.417L284.637 450.624L284.517 452.148C284.261 452.468 283.937 452.72 283.545 452.904C283.161 453.088 282.713 453.18 282.201 453.18C281.577 453.18 281.025 453.036 280.545 452.748C280.073 452.452 279.705 452.056 279.441 451.56C279.177 451.056 279.045 450.496 279.045 449.88C279.045 449.264 279.177 448.704 279.441 448.2C279.705 447.688 280.073 447.288 280.545 447C281.025 446.704 281.577 446.556 282.201 446.556C282.713 446.556 283.165 446.656 283.557 446.856C283.957 447.048 284.289 447.32 284.553 447.672V446.76H285.657V450.3ZM280.173 449.88C280.173 450.312 280.261 450.704 280.437 451.056C280.621 451.4 280.877 451.672 281.205 451.872C281.541 452.072 281.933 452.172 282.381 452.172C282.813 452.172 283.197 452.072 283.533 451.872C283.869 451.672 284.129 451.4 284.313 451.056C284.497 450.704 284.589 450.312 284.589 449.88C284.589 449.448 284.497 449.056 284.313 448.704C284.129 448.352 283.869 448.076 283.533 447.876C283.197 447.668 282.813 447.564 282.381 447.564C281.933 447.564 281.541 447.668 281.205 447.876C280.877 448.076 280.621 448.352 280.437 448.704C280.261 449.056 280.173 449.448 280.173 449.88ZM288.806 446.76V448.656L289.13 447.264C289.546 446.8 290.126 446.568 290.87 446.568C291.622 446.568 292.206 446.796 292.622 447.252C293.038 447.7 293.246 448.332 293.246 449.148V453H292.142V449.316C292.142 448.156 291.634 447.576 290.618 447.576C290.05 447.576 289.606 447.756 289.286 448.116C288.966 448.476 288.806 448.984 288.806 449.64V453H287.702V446.76H288.806ZM296.037 446.76V453H294.933V446.76H296.037ZM294.849 444.18H296.145V445.452H294.849V444.18ZM298.968 444.18V453H297.864V444.18H298.968ZM301.956 444.18V453H300.852V444.18H301.956ZM310.008 450.3L310.932 453H309.768L308.988 450.624L308.868 452.148C308.612 452.468 308.288 452.72 307.896 452.904C307.512 453.088 307.064 453.18 306.552 453.18C305.928 453.18 305.376 453.036 304.896 452.748C304.424 452.452 304.056 452.056 303.792 451.56C303.528 451.056 303.396 450.496 303.396 449.88C303.396 449.264 303.528 448.704 303.792 448.2C304.056 447.688 304.424 447.288 304.896 447C305.376 446.704 305.928 446.556 306.552 446.556C307.064 446.556 307.516 446.656 307.908 446.856C308.308 447.048 308.64 447.32 308.904 447.672V446.76H310.008V450.3ZM304.524 449.88C304.524 450.312 304.612 450.704 304.788 451.056C304.972 451.4 305.228 451.672 305.556 451.872C305.892 452.072 306.284 452.172 306.732 452.172C307.164 452.172 307.548 452.072 307.884 451.872C308.22 451.672 308.48 451.4 308.664 451.056C308.848 450.704 308.94 450.312 308.94 449.88C308.94 449.448 308.848 449.056 308.664 448.704C308.48 448.352 308.22 448.076 307.884 447.876C307.548 447.668 307.164 447.564 306.732 447.564C306.284 447.564 305.892 447.668 305.556 447.876C305.228 448.076 304.972 448.352 304.788 448.704C304.612 449.056 304.524 449.448 304.524 449.88ZM315.012 444.18H318.588C319.18 444.18 319.692 444.288 320.124 444.504C320.556 444.72 320.888 445.028 321.12 445.428C321.352 445.82 321.468 446.276 321.468 446.796C321.468 447.34 321.34 447.808 321.084 448.2C320.836 448.592 320.5 448.888 320.076 449.088C319.652 449.288 319.18 449.388 318.66 449.388H316.152V453H315.012V444.18ZM318.588 448.368C319.116 448.368 319.536 448.228 319.848 447.948C320.168 447.66 320.328 447.276 320.328 446.796C320.328 446.324 320.176 445.944 319.872 445.656C319.568 445.36 319.148 445.212 318.612 445.212H316.152V448.368H318.588ZM323.504 446.76L325.544 451.596L327.5 446.76H328.712L325.016 455.58H323.828L324.944 452.916L322.268 446.76H323.504ZM335.429 444.18V445.224H332.549V453H331.409V445.224H328.529V444.18H335.429ZM338.443 446.556C339.067 446.556 339.631 446.696 340.135 446.976C340.647 447.256 341.051 447.648 341.347 448.152C341.643 448.656 341.791 449.228 341.791 449.868C341.791 450.508 341.643 451.08 341.347 451.584C341.051 452.088 340.647 452.48 340.135 452.76C339.631 453.04 339.067 453.18 338.443 453.18C337.827 453.18 337.263 453.04 336.751 452.76C336.247 452.48 335.847 452.088 335.551 451.584C335.263 451.08 335.119 450.508 335.119 449.868C335.119 449.228 335.263 448.656 335.551 448.152C335.847 447.648 336.247 447.256 336.751 446.976C337.263 446.696 337.827 446.556 338.443 446.556ZM336.247 449.868C336.247 450.324 336.339 450.728 336.523 451.08C336.715 451.424 336.979 451.692 337.315 451.884C337.651 452.068 338.027 452.16 338.443 452.16C338.867 452.16 339.247 452.068 339.583 451.884C339.919 451.692 340.179 451.424 340.363 451.08C340.555 450.728 340.651 450.324 340.651 449.868C340.651 449.412 340.555 449.012 340.363 448.668C340.179 448.324 339.919 448.056 339.583 447.864C339.247 447.672 338.867 447.576 338.443 447.576C338.019 447.576 337.639 447.672 337.303 447.864C336.975 448.056 336.715 448.324 336.523 448.668C336.339 449.012 336.247 449.412 336.247 449.868ZM344.248 446.76V448.92L344.572 447.324C344.748 447.14 344.976 446.98 345.256 446.844C345.536 446.708 345.86 446.64 346.228 446.64C346.388 446.64 346.536 446.656 346.672 446.688V447.816C346.48 447.768 346.292 447.744 346.108 447.744C345.54 447.744 345.088 447.924 344.752 448.284C344.416 448.644 344.248 449.208 344.248 449.976V453H343.144V446.76H344.248ZM350.431 446.556C351.071 446.556 351.647 446.712 352.159 447.024C352.671 447.336 353.027 447.74 353.227 448.236L352.255 448.836C352.143 448.444 351.919 448.136 351.583 447.912C351.247 447.688 350.863 447.576 350.431 447.576C349.783 447.576 349.259 447.788 348.859 448.212C348.459 448.628 348.259 449.18 348.259 449.868C348.259 450.564 348.451 451.12 348.835 451.536C349.227 451.952 349.759 452.16 350.431 452.16C350.863 452.16 351.251 452.044 351.595 451.812C351.947 451.572 352.179 451.272 352.291 450.912L353.227 451.512C353.011 452 352.647 452.4 352.135 452.712C351.623 453.024 351.055 453.18 350.431 453.18C349.791 453.18 349.219 453.044 348.715 452.772C348.219 452.492 347.831 452.104 347.551 451.608C347.271 451.104 347.131 450.524 347.131 449.868C347.131 449.228 347.271 448.656 347.551 448.152C347.839 447.648 348.231 447.256 348.727 446.976C349.231 446.696 349.799 446.556 350.431 446.556ZM357.762 446.568C358.53 446.568 359.122 446.796 359.538 447.252C359.954 447.7 360.162 448.332 360.162 449.148V453H359.058V449.316C359.058 448.156 358.538 447.576 357.498 447.576C356.946 447.576 356.51 447.756 356.19 448.116C355.878 448.476 355.722 448.984 355.722 449.64V453H354.618V444.18H355.722V448.644L356.046 447.3C356.222 447.076 356.442 446.9 356.706 446.772C356.97 446.636 357.322 446.568 357.762 446.568Z" fill="white"/>
<path d="M157.04 104.68V106C157.576 106.056 158.048 106.204 158.456 106.444C158.864 106.676 159.184 106.972 159.416 107.332C159.648 107.692 159.78 108.076 159.812 108.484L158.756 108.94C158.756 108.436 158.604 108.012 158.3 107.668C157.996 107.316 157.576 107.096 157.04 107.008V110.02C157.64 110.148 158.14 110.292 158.54 110.452C158.94 110.612 159.272 110.86 159.536 111.196C159.808 111.532 159.944 111.984 159.944 112.552C159.944 113.296 159.676 113.9 159.14 114.364C158.604 114.828 157.904 115.096 157.04 115.168V116.56H156.14V115.156C155.292 115.076 154.596 114.788 154.052 114.292C153.508 113.796 153.196 113.148 153.116 112.348L154.196 111.808C154.196 112.456 154.364 112.992 154.7 113.416C155.036 113.832 155.516 114.08 156.14 114.16V110.932C155.548 110.812 155.056 110.68 154.664 110.536C154.28 110.392 153.956 110.16 153.692 109.84C153.436 109.52 153.308 109.084 153.308 108.532C153.308 108.052 153.432 107.628 153.68 107.26C153.936 106.892 154.28 106.6 154.712 106.384C155.144 106.168 155.62 106.036 156.14 105.988V104.68H157.04ZM154.472 108.46C154.472 108.852 154.616 109.148 154.904 109.348C155.192 109.548 155.604 109.712 156.14 109.84V106.996C155.636 107.052 155.232 107.208 154.928 107.464C154.624 107.72 154.472 108.052 154.472 108.46ZM157.04 114.172C157.568 114.108 157.988 113.94 158.3 113.668C158.62 113.388 158.78 113.036 158.78 112.612C158.78 112.18 158.628 111.856 158.324 111.64C158.028 111.416 157.6 111.24 157.04 111.112V114.172ZM163.987 105.976C164.515 105.976 164.983 106.084 165.391 106.3C165.807 106.516 166.127 106.82 166.351 107.212C166.583 107.596 166.699 108.032 166.699 108.52C166.699 109.152 166.523 109.752 166.171 110.32C165.819 110.88 165.303 111.484 164.623 112.132L162.715 113.98H166.747V115H161.191V113.992L163.627 111.616C164.235 111.024 164.707 110.48 165.043 109.984C165.387 109.48 165.559 108.984 165.559 108.496C165.559 108.048 165.415 107.688 165.127 107.416C164.839 107.144 164.447 107.008 163.951 107.008C163.415 107.008 162.995 107.176 162.691 107.512C162.387 107.84 162.235 108.268 162.235 108.796C162.235 108.964 162.247 109.14 162.271 109.324L161.155 109.132C161.131 108.964 161.119 108.8 161.119 108.64C161.119 108.152 161.239 107.704 161.479 107.296C161.719 106.888 162.055 106.568 162.487 106.336C162.927 106.096 163.427 105.976 163.987 105.976ZM171.06 109.384C171.612 109.384 172.096 109.504 172.512 109.744C172.936 109.976 173.26 110.312 173.484 110.752C173.716 111.184 173.832 111.688 173.832 112.264C173.832 112.84 173.704 113.348 173.448 113.788C173.2 114.228 172.848 114.572 172.392 114.82C171.936 115.06 171.412 115.18 170.82 115.18C170.036 115.18 169.38 114.972 168.852 114.556C168.332 114.132 168.024 113.552 167.928 112.816L168.984 112.396C169.008 112.94 169.184 113.372 169.512 113.692C169.848 114.004 170.288 114.16 170.832 114.16C171.392 114.16 171.844 113.984 172.188 113.632C172.532 113.28 172.704 112.824 172.704 112.264C172.704 111.68 172.536 111.212 172.2 110.86C171.872 110.508 171.436 110.332 170.892 110.332C170.524 110.332 170.188 110.416 169.884 110.584C169.588 110.752 169.348 110.98 169.164 111.268L168.192 111.028L168.456 106.18H173.532V107.188H169.464L169.308 110.068C169.548 109.844 169.808 109.676 170.088 109.564C170.368 109.444 170.692 109.384 171.06 109.384ZM178.138 109.384C178.69 109.384 179.174 109.504 179.59 109.744C180.014 109.976 180.338 110.312 180.562 110.752C180.794 111.184 180.91 111.688 180.91 112.264C180.91 112.84 180.782 113.348 180.526 113.788C180.278 114.228 179.926 114.572 179.47 114.82C179.014 115.06 178.49 115.18 177.898 115.18C177.114 115.18 176.458 114.972 175.93 114.556C175.41 114.132 175.102 113.552 175.006 112.816L176.062 112.396C176.086 112.94 176.262 113.372 176.59 113.692C176.926 114.004 177.366 114.16 177.91 114.16C178.47 114.16 178.922 113.984 179.266 113.632C179.61 113.28 179.782 112.824 179.782 112.264C179.782 111.68 179.614 111.212 179.278 110.86C178.95 110.508 178.514 110.332 177.97 110.332C177.602 110.332 177.266 110.416 176.962 110.584C176.666 110.752 176.426 110.98 176.242 111.268L175.27 111.028L175.534 106.18H180.61V107.188H176.542L176.386 110.068C176.626 109.844 176.886 109.676 177.166 109.564C177.446 109.444 177.77 109.384 178.138 109.384Z" fill="white"/>
<path d="M221.673 231.68V233C222.209 233.056 222.681 233.204 223.089 233.444C223.497 233.676 223.817 233.972 224.049 234.332C224.281 234.692 224.413 235.076 224.445 235.484L223.389 235.94C223.389 235.436 223.237 235.012 222.933 234.668C222.629 234.316 222.209 234.096 221.673 234.008V237.02C222.273 237.148 222.773 237.292 223.173 237.452C223.573 237.612 223.905 237.86 224.169 238.196C224.441 238.532 224.577 238.984 224.577 239.552C224.577 240.296 224.309 240.9 223.773 241.364C223.237 241.828 222.537 242.096 221.673 242.168V243.56H220.773V242.156C219.925 242.076 219.229 241.788 218.685 241.292C218.141 240.796 217.829 240.148 217.749 239.348L218.829 238.808C218.829 239.456 218.997 239.992 219.333 240.416C219.669 240.832 220.149 241.08 220.773 241.16V237.932C220.181 237.812 219.689 237.68 219.297 237.536C218.913 237.392 218.589 237.16 218.325 236.84C218.069 236.52 217.941 236.084 217.941 235.532C217.941 235.052 218.065 234.628 218.313 234.26C218.569 233.892 218.913 233.6 219.345 233.384C219.777 233.168 220.253 233.036 220.773 232.988V231.68H221.673ZM219.105 235.46C219.105 235.852 219.249 236.148 219.537 236.348C219.825 236.548 220.237 236.712 220.773 236.84V233.996C220.269 234.052 219.865 234.208 219.561 234.464C219.257 234.72 219.105 235.052 219.105 235.46ZM221.673 241.172C222.201 241.108 222.621 240.94 222.933 240.668C223.253 240.388 223.413 240.036 223.413 239.612C223.413 239.18 223.261 238.856 222.957 238.64C222.661 238.416 222.233 238.24 221.673 238.112V241.172ZM229.064 233.18V242H227.948V234.92L225.752 237.584V236L228.044 233.18H229.064ZM230.984 238.892L235.076 233.18H236.312L232.232 238.88H235.124V236.72L236.228 235.184V238.88H237.524V239.912H236.228V242H235.124V239.912H230.984V238.892ZM241.505 236.384C242.057 236.384 242.541 236.504 242.957 236.744C243.381 236.976 243.705 237.312 243.929 237.752C244.161 238.184 244.277 238.688 244.277 239.264C244.277 239.84 244.149 240.348 243.893 240.788C243.645 241.228 243.293 241.572 242.837 241.82C242.381 242.06 241.857 242.18 241.265 242.18C240.481 242.18 239.825 241.972 239.297 241.556C238.777 241.132 238.469 240.552 238.373 239.816L239.429 239.396C239.453 239.94 239.629 240.372 239.957 240.692C240.293 241.004 240.733 241.16 241.277 241.16C241.837 241.16 242.289 240.984 242.633 240.632C242.977 240.28 243.149 239.824 243.149 239.264C243.149 238.68 242.981 238.212 242.645 237.86C242.317 237.508 241.881 237.332 241.337 237.332C240.969 237.332 240.633 237.416 240.329 237.584C240.033 237.752 239.793 237.98 239.609 238.268L238.637 238.028L238.901 233.18H243.977V234.188H239.909L239.753 237.068C239.993 236.844 240.253 236.676 240.533 236.564C240.813 236.444 241.137 236.384 241.505 236.384Z" fill="#EA4335"/>
<path d="M348.482 257.68V259C349.018 259.056 349.49 259.204 349.898 259.444C350.306 259.676 350.626 259.972 350.858 260.332C351.09 260.692 351.222 261.076 351.254 261.484L350.198 261.94C350.198 261.436 350.046 261.012 349.742 260.668C349.438 260.316 349.018 260.096 348.482 260.008V263.02C349.082 263.148 349.582 263.292 349.982 263.452C350.382 263.612 350.714 263.86 350.978 264.196C351.25 264.532 351.386 264.984 351.386 265.552C351.386 266.296 351.118 266.9 350.582 267.364C350.046 267.828 349.346 268.096 348.482 268.168V269.56H347.582V268.156C346.734 268.076 346.038 267.788 345.494 267.292C344.95 266.796 344.638 266.148 344.558 265.348L345.638 264.808C345.638 265.456 345.806 265.992 346.142 266.416C346.478 266.832 346.958 267.08 347.582 267.16V263.932C346.99 263.812 346.498 263.68 346.106 263.536C345.722 263.392 345.398 263.16 345.134 262.84C344.878 262.52 344.75 262.084 344.75 261.532C344.75 261.052 344.874 260.628 345.122 260.26C345.378 259.892 345.722 259.6 346.154 259.384C346.586 259.168 347.062 259.036 347.582 258.988V257.68H348.482ZM345.914 261.46C345.914 261.852 346.058 262.148 346.346 262.348C346.634 262.548 347.046 262.712 347.582 262.84V259.996C347.078 260.052 346.674 260.208 346.37 260.464C346.066 260.72 345.914 261.052 345.914 261.46ZM348.482 267.172C349.01 267.108 349.43 266.94 349.742 266.668C350.062 266.388 350.222 266.036 350.222 265.612C350.222 265.18 350.07 264.856 349.766 264.64C349.47 264.416 349.042 264.24 348.482 264.112V267.172ZM355.872 259.18V268H354.756V260.92L352.56 263.584V262L354.852 259.18H355.872ZM361.345 259.18V268H360.229V260.92L358.033 263.584V262L360.325 259.18H361.345ZM366.781 258.976C367.509 258.976 368.117 259.172 368.605 259.564C369.093 259.956 369.373 260.476 369.445 261.124L368.389 261.52C368.357 261.024 368.193 260.644 367.897 260.38C367.609 260.116 367.229 259.984 366.757 259.984C366.069 259.984 365.553 260.316 365.209 260.98C364.865 261.636 364.689 262.516 364.681 263.62C364.849 263.292 365.125 263.024 365.509 262.816C365.901 262.608 366.325 262.504 366.781 262.504C367.301 262.504 367.765 262.624 368.173 262.864C368.581 263.104 368.901 263.44 369.133 263.872C369.365 264.304 369.481 264.792 369.481 265.336C369.481 265.888 369.357 266.38 369.109 266.812C368.861 267.244 368.513 267.58 368.065 267.82C367.625 268.06 367.121 268.18 366.553 268.18C365.593 268.18 364.853 267.832 364.333 267.136C363.821 266.432 363.565 265.416 363.565 264.088C363.565 262.528 363.825 261.288 364.345 260.368C364.865 259.44 365.677 258.976 366.781 258.976ZM364.813 265.324C364.813 265.868 364.977 266.312 365.305 266.656C365.641 266.992 366.073 267.16 366.601 267.16C367.113 267.16 367.533 266.992 367.861 266.656C368.189 266.312 368.353 265.876 368.353 265.348C368.353 264.812 368.193 264.376 367.873 264.04C367.553 263.696 367.141 263.524 366.637 263.524C366.101 263.524 365.661 263.692 365.317 264.028C364.981 264.364 364.813 264.796 364.813 265.324Z" fill="white"/>
<path d="M533.153 187.68V189C533.689 189.056 534.161 189.204 534.569 189.444C534.977 189.676 535.297 189.972 535.529 190.332C535.761 190.692 535.893 191.076 535.925 191.484L534.869 191.94C534.869 191.436 534.717 191.012 534.413 190.668C534.109 190.316 533.689 190.096 533.153 190.008V193.02C533.753 193.148 534.253 193.292 534.653 193.452C535.053 193.612 535.385 193.86 535.649 194.196C535.921 194.532 536.057 194.984 536.057 195.552C536.057 196.296 535.789 196.9 535.253 197.364C534.717 197.828 534.017 198.096 533.153 198.168V199.56H532.253V198.156C531.405 198.076 530.709 197.788 530.165 197.292C529.621 196.796 529.309 196.148 529.229 195.348L530.309 194.808C530.309 195.456 530.477 195.992 530.813 196.416C531.149 196.832 531.629 197.08 532.253 197.16V193.932C531.661 193.812 531.169 193.68 530.777 193.536C530.393 193.392 530.069 193.16 529.805 192.84C529.549 192.52 529.421 192.084 529.421 191.532C529.421 191.052 529.545 190.628 529.793 190.26C530.049 189.892 530.393 189.6 530.825 189.384C531.257 189.168 531.733 189.036 532.253 188.988V187.68H533.153ZM530.585 191.46C530.585 191.852 530.729 192.148 531.017 192.348C531.305 192.548 531.717 192.712 532.253 192.84V189.996C531.749 190.052 531.345 190.208 531.041 190.464C530.737 190.72 530.585 191.052 530.585 191.46ZM533.153 197.172C533.681 197.108 534.101 196.94 534.413 196.668C534.733 196.388 534.893 196.036 534.893 195.612C534.893 195.18 534.741 194.856 534.437 194.64C534.141 194.416 533.713 194.24 533.153 194.112V197.172ZM540.544 189.18V198H539.428V190.92L537.232 193.584V192L539.524 189.18H540.544ZM548.273 189.18V190.152C547.145 190.984 546.313 192.064 545.777 193.392C545.241 194.72 544.973 196.256 544.973 198H543.833C543.833 196.88 543.961 195.82 544.217 194.82C544.481 193.812 544.849 192.916 545.321 192.132C545.801 191.34 546.357 190.692 546.989 190.188H542.465V189.18H548.273ZM552.03 188.976C552.558 188.976 553.026 189.084 553.434 189.3C553.85 189.516 554.17 189.82 554.394 190.212C554.626 190.596 554.742 191.032 554.742 191.52C554.742 192.152 554.566 192.752 554.214 193.32C553.862 193.88 553.346 194.484 552.666 195.132L550.758 196.98H554.79V198H549.234V196.992L551.67 194.616C552.278 194.024 552.75 193.48 553.086 192.984C553.43 192.48 553.602 191.984 553.602 191.496C553.602 191.048 553.458 190.688 553.17 190.416C552.882 190.144 552.49 190.008 551.994 190.008C551.458 190.008 551.038 190.176 550.734 190.512C550.43 190.84 550.278 191.268 550.278 191.796C550.278 191.964 550.29 192.14 550.314 192.324L549.198 192.132C549.174 191.964 549.162 191.8 549.162 191.64C549.162 191.152 549.282 190.704 549.522 190.296C549.762 189.888 550.098 189.568 550.53 189.336C550.97 189.096 551.47 188.976 552.03 188.976Z" fill="white"/>
<path d="M595.38 326.68V328C595.916 328.056 596.388 328.204 596.796 328.444C597.204 328.676 597.524 328.972 597.756 329.332C597.988 329.692 598.12 330.076 598.152 330.484L597.096 330.94C597.096 330.436 596.944 330.012 596.64 329.668C596.336 329.316 595.916 329.096 595.38 329.008V332.02C595.98 332.148 596.48 332.292 596.88 332.452C597.28 332.612 597.612 332.86 597.876 333.196C598.148 333.532 598.284 333.984 598.284 334.552C598.284 335.296 598.016 335.9 597.48 336.364C596.944 336.828 596.244 337.096 595.38 337.168V338.56H594.48V337.156C593.632 337.076 592.936 336.788 592.392 336.292C591.848 335.796 591.536 335.148 591.456 334.348L592.536 333.808C592.536 334.456 592.704 334.992 593.04 335.416C593.376 335.832 593.856 336.08 594.48 336.16V332.932C593.888 332.812 593.396 332.68 593.004 332.536C592.62 332.392 592.296 332.16 592.032 331.84C591.776 331.52 591.648 331.084 591.648 330.532C591.648 330.052 591.772 329.628 592.02 329.26C592.276 328.892 592.62 328.6 593.052 328.384C593.484 328.168 593.96 328.036 594.48 327.988V326.68H595.38ZM592.812 330.46C592.812 330.852 592.956 331.148 593.244 331.348C593.532 331.548 593.944 331.712 594.48 331.84V328.996C593.976 329.052 593.572 329.208 593.268 329.464C592.964 329.72 592.812 330.052 592.812 330.46ZM595.38 336.172C595.908 336.108 596.328 335.94 596.64 335.668C596.96 335.388 597.12 335.036 597.12 334.612C597.12 334.18 596.968 333.856 596.664 333.64C596.368 333.416 595.94 333.24 595.38 333.112V336.172ZM599.219 333.892L603.311 328.18H604.547L600.467 333.88H603.359V331.72L604.463 330.184V333.88H605.759V334.912H604.463V337H603.359V334.912H599.219V333.892ZM609.523 327.976C610.483 327.976 611.227 328.324 611.755 329.02C612.283 329.708 612.547 330.712 612.547 332.032C612.547 333.656 612.311 334.92 611.839 335.824C611.375 336.728 610.571 337.18 609.427 337.18C608.683 337.18 608.067 336.972 607.579 336.556C607.099 336.14 606.823 335.584 606.751 334.888L607.783 334.468C607.815 335.004 607.979 335.424 608.275 335.728C608.579 336.032 608.971 336.184 609.451 336.184C610.179 336.184 610.691 335.868 610.987 335.236C611.291 334.604 611.439 333.708 611.431 332.548C611.263 332.868 610.983 333.132 610.591 333.34C610.199 333.548 609.775 333.652 609.319 333.652C608.815 333.652 608.355 333.532 607.939 333.292C607.531 333.044 607.207 332.708 606.967 332.284C606.735 331.852 606.619 331.364 606.619 330.82C606.619 330.268 606.739 329.776 606.979 329.344C607.227 328.912 607.571 328.576 608.011 328.336C608.451 328.096 608.955 327.976 609.523 327.976ZM607.723 330.808C607.723 331.352 607.883 331.796 608.203 332.14C608.531 332.476 608.951 332.644 609.463 332.644C610.015 332.644 610.459 332.476 610.795 332.14C611.131 331.796 611.299 331.36 611.299 330.832C611.299 330.28 611.135 329.836 610.807 329.5C610.479 329.164 610.043 328.996 609.499 328.996C608.979 328.996 608.551 329.164 608.215 329.5C607.887 329.836 607.723 330.272 607.723 330.808Z" fill="#EA4335"/>
<path d="M412.327 339.68V341C412.863 341.056 413.335 341.204 413.743 341.444C414.151 341.676 414.471 341.972 414.703 342.332C414.935 342.692 415.067 343.076 415.099 343.484L414.043 343.94C414.043 343.436 413.891 343.012 413.587 342.668C413.283 342.316 412.863 342.096 412.327 342.008V345.02C412.927 345.148 413.427 345.292 413.827 345.452C414.227 345.612 414.559 345.86 414.823 346.196C415.095 346.532 415.231 346.984 415.231 347.552C415.231 348.296 414.963 348.9 414.427 349.364C413.891 349.828 413.191 350.096 412.327 350.168V351.56H411.427V350.156C410.579 350.076 409.883 349.788 409.339 349.292C408.795 348.796 408.483 348.148 408.403 347.348L409.483 346.808C409.483 347.456 409.651 347.992 409.987 348.416C410.323 348.832 410.803 349.08 411.427 349.16V345.932C410.835 345.812 410.343 345.68 409.951 345.536C409.567 345.392 409.243 345.16 408.979 344.84C408.723 344.52 408.595 344.084 408.595 343.532C408.595 343.052 408.719 342.628 408.967 342.26C409.223 341.892 409.567 341.6 409.999 341.384C410.431 341.168 410.907 341.036 411.427 340.988V339.68H412.327ZM409.759 343.46C409.759 343.852 409.903 344.148 410.191 344.348C410.479 344.548 410.891 344.712 411.427 344.84V341.996C410.923 342.052 410.519 342.208 410.215 342.464C409.911 342.72 409.759 343.052 409.759 343.46ZM412.327 349.172C412.855 349.108 413.275 348.94 413.587 348.668C413.907 348.388 414.067 348.036 414.067 347.612C414.067 347.18 413.915 346.856 413.611 346.64C413.315 346.416 412.887 346.24 412.327 346.112V349.172ZM416.166 346.892L420.258 341.18H421.494L417.414 346.88H420.306V344.72L421.41 343.184V346.88H422.706V347.912H421.41V350H420.306V347.912H416.166V346.892ZM426.603 340.976C427.579 340.976 428.323 341.372 428.835 342.164C429.347 342.948 429.603 344.092 429.603 345.596C429.603 347.092 429.347 348.232 428.835 349.016C428.323 349.792 427.579 350.18 426.603 350.18C425.627 350.18 424.883 349.792 424.371 349.016C423.859 348.232 423.603 347.092 423.603 345.596C423.603 344.092 423.859 342.948 424.371 342.164C424.883 341.372 425.627 340.976 426.603 340.976ZM424.743 345.596C424.743 346.764 424.899 347.648 425.211 348.248C425.523 348.848 425.987 349.148 426.603 349.148C427.211 349.148 427.671 348.848 427.983 348.248C428.303 347.648 428.463 346.764 428.463 345.596C428.463 344.42 428.303 343.528 427.983 342.92C427.671 342.312 427.211 342.008 426.603 342.008C425.987 342.008 425.523 342.312 425.211 342.92C424.899 343.52 424.743 344.412 424.743 345.596Z" fill="#EA4335"/>
<path d="M410.268 443.976C411.084 443.976 411.836 444.164 412.524 444.54C413.22 444.908 413.748 445.432 414.108 446.112L413.196 446.772C412.948 446.212 412.564 445.78 412.044 445.476C411.524 445.164 410.94 445.008 410.292 445.008C409.668 445.008 409.096 445.148 408.576 445.428C408.056 445.708 407.64 446.12 407.328 446.664C407.016 447.2 406.86 447.84 406.86 448.584C406.86 449.32 407.012 449.96 407.316 450.504C407.628 451.04 408.044 451.448 408.564 451.728C409.084 452.008 409.656 452.148 410.28 452.148C410.944 452.148 411.54 451.992 412.068 451.68C412.596 451.368 412.98 450.928 413.22 450.36L414.144 451.008C413.752 451.688 413.216 452.22 412.536 452.604C411.856 452.988 411.092 453.18 410.244 453.18C409.428 453.18 408.672 452.992 407.976 452.616C407.288 452.24 406.736 451.704 406.32 451.008C405.912 450.312 405.708 449.5 405.708 448.572C405.708 447.652 405.916 446.844 406.332 446.148C406.756 445.444 407.316 444.908 408.012 444.54C408.708 444.164 409.46 443.976 410.268 443.976ZM418.371 446.556C418.995 446.556 419.559 446.696 420.063 446.976C420.575 447.256 420.979 447.648 421.275 448.152C421.571 448.656 421.719 449.228 421.719 449.868C421.719 450.508 421.571 451.08 421.275 451.584C420.979 452.088 420.575 452.48 420.063 452.76C419.559 453.04 418.995 453.18 418.371 453.18C417.755 453.18 417.191 453.04 416.679 452.76C416.175 452.48 415.775 452.088 415.479 451.584C415.191 451.08 415.047 450.508 415.047 449.868C415.047 449.228 415.191 448.656 415.479 448.152C415.775 447.648 416.175 447.256 416.679 446.976C417.191 446.696 417.755 446.556 418.371 446.556ZM416.175 449.868C416.175 450.324 416.267 450.728 416.451 451.08C416.643 451.424 416.907 451.692 417.243 451.884C417.579 452.068 417.955 452.16 418.371 452.16C418.795 452.16 419.175 452.068 419.511 451.884C419.847 451.692 420.107 451.424 420.291 451.08C420.483 450.728 420.579 450.324 420.579 449.868C420.579 449.412 420.483 449.012 420.291 448.668C420.107 448.324 419.847 448.056 419.511 447.864C419.175 447.672 418.795 447.576 418.371 447.576C417.947 447.576 417.567 447.672 417.231 447.864C416.903 448.056 416.643 448.324 416.451 448.668C416.267 449.012 416.175 449.412 416.175 449.868ZM427.103 449.208C427.103 448.816 427.011 448.444 426.827 448.092C426.643 447.74 426.283 447.564 425.747 447.564C425.251 447.564 424.867 447.748 424.595 448.116C424.323 448.484 424.183 448.984 424.175 449.616V453H423.071V446.76H424.175V448.608L424.535 447.156C424.911 446.756 425.411 446.556 426.035 446.556C426.643 446.556 427.139 446.744 427.523 447.12C427.915 447.488 428.131 447.968 428.171 448.56L428.483 447.156C428.899 446.756 429.423 446.556 430.055 446.556C430.727 446.556 431.259 446.768 431.651 447.192C432.043 447.608 432.239 448.2 432.239 448.968V453H431.135V449.184C431.135 448.64 431.019 448.236 430.787 447.972C430.555 447.7 430.219 447.564 429.779 447.564C429.267 447.564 428.875 447.74 428.603 448.092C428.339 448.436 428.207 448.916 428.207 449.532V453H427.103V449.208ZM437.391 453.18C436.983 453.18 436.619 453.12 436.299 453C435.987 452.888 435.723 452.752 435.507 452.592L435.039 450.96V455.58H433.935V446.76H435.039V447.684C435.303 447.332 435.631 447.056 436.023 446.856C436.423 446.656 436.879 446.556 437.391 446.556C438.015 446.556 438.563 446.704 439.035 447C439.515 447.288 439.887 447.688 440.151 448.2C440.415 448.704 440.547 449.264 440.547 449.88C440.547 450.496 440.415 451.056 440.151 451.56C439.887 452.056 439.515 452.452 439.035 452.748C438.563 453.036 438.015 453.18 437.391 453.18ZM435.003 449.88C435.003 450.312 435.095 450.704 435.279 451.056C435.463 451.4 435.723 451.672 436.059 451.872C436.395 452.072 436.779 452.172 437.211 452.172C437.659 452.172 438.047 452.072 438.375 451.872C438.711 451.672 438.967 451.4 439.143 451.056C439.327 450.704 439.419 450.312 439.419 449.88C439.419 449.448 439.327 449.056 439.143 448.704C438.967 448.352 438.711 448.076 438.375 447.876C438.047 447.668 437.659 447.564 437.211 447.564C436.779 447.564 436.395 447.668 436.059 447.876C435.723 448.076 435.463 448.352 435.279 448.704C435.095 449.056 435.003 449.448 435.003 449.88ZM444.855 446.556C445.479 446.556 446.043 446.696 446.547 446.976C447.059 447.256 447.463 447.648 447.759 448.152C448.055 448.656 448.203 449.228 448.203 449.868C448.203 450.508 448.055 451.08 447.759 451.584C447.463 452.088 447.059 452.48 446.547 452.76C446.043 453.04 445.479 453.18 444.855 453.18C444.239 453.18 443.675 453.04 443.163 452.76C442.659 452.48 442.259 452.088 441.963 451.584C441.675 451.08 441.531 450.508 441.531 449.868C441.531 449.228 441.675 448.656 441.963 448.152C442.259 447.648 442.659 447.256 443.163 446.976C443.675 446.696 444.239 446.556 444.855 446.556ZM442.659 449.868C442.659 450.324 442.751 450.728 442.935 451.08C443.127 451.424 443.391 451.692 443.727 451.884C444.063 452.068 444.439 452.16 444.855 452.16C445.279 452.16 445.659 452.068 445.995 451.884C446.331 451.692 446.591 451.424 446.775 451.08C446.967 450.728 447.063 450.324 447.063 449.868C447.063 449.412 446.967 449.012 446.775 448.668C446.591 448.324 446.331 448.056 445.995 447.864C445.659 447.672 445.279 447.576 444.855 447.576C444.431 447.576 444.051 447.672 443.715 447.864C443.387 448.056 443.127 448.324 442.935 448.668C442.751 449.012 442.659 449.412 442.659 449.868ZM451.836 446.556C452.556 446.556 453.152 446.724 453.624 447.06C454.096 447.388 454.372 447.828 454.452 448.38L453.396 448.776C453.372 448.368 453.224 448.048 452.952 447.816C452.68 447.584 452.308 447.468 451.836 447.468C451.42 447.468 451.088 447.556 450.84 447.732C450.6 447.908 450.48 448.132 450.48 448.404C450.48 448.604 450.552 448.768 450.696 448.896C450.84 449.016 451.016 449.108 451.224 449.172C451.44 449.236 451.74 449.308 452.124 449.388C452.644 449.5 453.06 449.612 453.372 449.724C453.692 449.836 453.964 450.016 454.188 450.264C454.42 450.512 454.536 450.848 454.536 451.272C454.536 451.872 454.3 452.34 453.828 452.676C453.364 453.012 452.736 453.18 451.944 453.18C451.16 453.18 450.52 453.004 450.024 452.652C449.528 452.3 449.232 451.836 449.136 451.26L450.216 450.804C450.24 451.268 450.404 451.628 450.708 451.884C451.02 452.14 451.432 452.268 451.944 452.268C452.368 452.268 452.708 452.192 452.964 452.04C453.22 451.888 453.348 451.656 453.348 451.344C453.348 451.144 453.276 450.984 453.132 450.864C452.996 450.744 452.82 450.652 452.604 450.588C452.396 450.524 452.108 450.456 451.74 450.384C451.236 450.28 450.824 450.172 450.504 450.06C450.184 449.948 449.908 449.768 449.676 449.52C449.452 449.264 449.34 448.916 449.34 448.476C449.34 448.116 449.452 447.788 449.676 447.492C449.9 447.196 450.204 446.968 450.588 446.808C450.972 446.64 451.388 446.556 451.836 446.556ZM458.631 446.556C459.239 446.556 459.767 446.692 460.215 446.964C460.671 447.228 461.019 447.604 461.259 448.092C461.499 448.58 461.619 449.14 461.619 449.772C461.619 449.972 461.611 450.128 461.595 450.24H456.687C456.751 450.88 456.967 451.372 457.335 451.716C457.711 452.052 458.179 452.22 458.739 452.22C459.699 452.22 460.355 451.812 460.707 450.996L461.535 451.704C461.263 452.192 460.875 452.56 460.371 452.808C459.867 453.056 459.315 453.18 458.715 453.18C458.091 453.18 457.539 453.04 457.059 452.76C456.579 452.48 456.207 452.092 455.943 451.596C455.679 451.1 455.547 450.532 455.547 449.892C455.547 449.26 455.679 448.692 455.943 448.188C456.207 447.676 456.575 447.276 457.047 446.988C457.519 446.7 458.047 446.556 458.631 446.556ZM460.431 449.376C460.431 448.808 460.263 448.36 459.927 448.032C459.599 447.696 459.159 447.528 458.607 447.528C458.119 447.528 457.699 447.688 457.347 448.008C457.003 448.328 456.791 448.784 456.711 449.376H460.431ZM464.183 446.76V448.92L464.507 447.324C464.683 447.14 464.911 446.98 465.191 446.844C465.471 446.708 465.795 446.64 466.163 446.64C466.323 446.64 466.471 446.656 466.607 446.688V447.816C466.415 447.768 466.227 447.744 466.043 447.744C465.475 447.744 465.023 447.924 464.687 448.284C464.351 448.644 464.183 449.208 464.183 449.976V453H463.079V446.76H464.183Z" fill="white"/>
<path d="M75.5 403.5H697.5" stroke="#F2F3F5" stroke-miterlimit="10"/>
<path d="M386 403H328V276C328 274.895 328.895 274 330 274H384C385.105 274 386 274.895 386 276V403Z" fill="#CCCCCC"/>
</svg>
