<svg width="722" height="482" viewBox="0 0 722 482" fill="none" xmlns="http://www.w3.org/2000/svg">
<path d="M75.5 293.5H697.5" stroke="#4E4E4E" stroke-miterlimit="10"/>
<path d="M75.5 182.5H697.5" stroke="#4E4E4E" stroke-miterlimit="10"/>
<path d="M75.5 71.5H697.5" stroke="#4E4E4E" stroke-miterlimit="10"/>
<path d="M252.5 444.4C252.5 443.848 252.948 443.4 253.5 443.4H263.5C264.052 443.4 264.5 443.848 264.5 444.4V454.4C264.5 454.952 264.052 455.4 263.5 455.4H253.5C252.948 455.4 252.5 454.952 252.5 454.4V444.4Z" fill="#757575"/>
<path d="M385.5 444.4C385.5 443.848 385.948 443.4 386.5 443.4H396.5C397.052 443.4 397.5 443.848 397.5 444.4V454.4C397.5 454.952 397.052 455.4 396.5 455.4H386.5C385.948 455.4 385.5 454.952 385.5 454.4V444.4Z" fill="#EA4335"/>
<path d="M35.176 24.904C36.904 24.904 38.48 25.304 39.904 26.104C41.328 26.904 42.4 28.032 43.12 29.488L40.456 31.264C40.072 30.224 39.408 29.392 38.464 28.768C37.52 28.144 36.416 27.832 35.152 27.832C34.016 27.832 33 28.088 32.104 28.6C31.224 29.112 30.528 29.848 30.016 30.808C29.504 31.752 29.248 32.864 29.248 34.144C29.248 35.392 29.496 36.496 29.992 37.456C30.488 38.4 31.176 39.136 32.056 39.664C32.952 40.176 33.968 40.432 35.104 40.432C36.384 40.432 37.512 40.12 38.488 39.496C39.48 38.872 40.168 38.016 40.552 36.928L43.216 38.704C42.432 40.192 41.336 41.344 39.928 42.16C38.536 42.96 36.944 43.36 35.152 43.36C33.424 43.36 31.856 42.976 30.448 42.208C29.056 41.424 27.96 40.336 27.16 38.944C26.36 37.536 25.96 35.928 25.96 34.12C25.96 32.296 26.368 30.688 27.184 29.296C28.016 27.888 29.136 26.808 30.544 26.056C31.952 25.288 33.496 24.904 35.176 24.904ZM51.4763 30.064C52.7723 30.064 53.9323 30.352 54.9563 30.928C55.9963 31.488 56.8123 32.272 57.4043 33.28C57.9963 34.288 58.2923 35.432 58.2923 36.712C58.2923 37.992 57.9963 39.136 57.4043 40.144C56.8123 41.152 55.9963 41.944 54.9563 42.52C53.9323 43.08 52.7723 43.36 51.4763 43.36C50.1803 43.36 49.0123 43.08 47.9723 42.52C46.9483 41.944 46.1403 41.152 45.5483 40.144C44.9563 39.136 44.6603 37.992 44.6603 36.712C44.6603 35.432 44.9563 34.288 45.5483 33.28C46.1403 32.272 46.9483 31.488 47.9723 30.928C49.0123 30.352 50.1803 30.064 51.4763 30.064ZM47.9003 36.712C47.9003 37.864 48.2363 38.784 48.9083 39.472C49.5803 40.16 50.4363 40.504 51.4763 40.504C52.5163 40.504 53.3723 40.16 54.0443 39.472C54.7163 38.784 55.0523 37.864 55.0523 36.712C55.0523 35.56 54.7163 34.64 54.0443 33.952C53.3723 33.264 52.5163 32.92 51.4763 32.92C50.4363 32.92 49.5803 33.264 48.9083 33.952C48.2363 34.64 47.9003 35.56 47.9003 36.712ZM65.413 30.064C66.933 30.064 68.189 30.384 69.181 31.024C70.189 31.664 70.813 32.536 71.053 33.64L68.125 34.744C68.077 34.024 67.813 33.472 67.333 33.088C66.869 32.688 66.229 32.488 65.413 32.488C64.773 32.488 64.269 32.624 63.901 32.896C63.533 33.152 63.349 33.496 63.349 33.928C63.349 34.344 63.573 34.656 64.021 34.864C64.485 35.056 65.205 35.24 66.181 35.416C67.205 35.608 68.053 35.824 68.725 36.064C69.397 36.288 69.973 36.672 70.453 37.216C70.949 37.744 71.197 38.464 71.197 39.376C71.197 40.688 70.685 41.68 69.661 42.352C68.653 43.024 67.349 43.36 65.749 43.36C64.133 43.36 62.797 43.04 61.741 42.4C60.685 41.76 60.045 40.856 59.821 39.688L62.773 38.416C62.837 39.28 63.133 39.912 63.661 40.312C64.205 40.712 64.901 40.912 65.749 40.912C66.357 40.912 66.861 40.8 67.261 40.576C67.677 40.336 67.885 40 67.885 39.568C67.885 39.12 67.661 38.8 67.213 38.608C66.765 38.416 66.037 38.216 65.029 38.008C64.037 37.816 63.213 37.608 62.557 37.384C61.901 37.16 61.333 36.792 60.853 36.28C60.389 35.752 60.157 35.032 60.157 34.12C60.157 33.352 60.397 32.664 60.877 32.056C61.357 31.432 61.997 30.944 62.797 30.592C63.597 30.24 64.469 30.064 65.413 30.064ZM77.9436 25.768V30.52H81.4476V33.16H77.9436V38.728C77.9436 39.416 78.0716 39.888 78.3276 40.144C78.5836 40.384 79.0236 40.504 79.6476 40.504C80.1436 40.504 80.6956 40.44 81.3036 40.312V43.024C81.1116 43.104 80.7756 43.168 80.2956 43.216C79.8316 43.28 79.4716 43.312 79.2156 43.312C77.7596 43.312 76.6636 42.984 75.9276 42.328C75.1916 41.656 74.8236 40.6 74.8236 39.16V33.16H72.5676V30.52H74.8236V28.12L77.9436 25.768ZM98.0354 24.904C99.7634 24.904 101.339 25.304 102.763 26.104C104.187 26.904 105.259 28.032 105.979 29.488L103.315 31.264C102.931 30.224 102.267 29.392 101.323 28.768C100.379 28.144 99.2754 27.832 98.0114 27.832C96.8754 27.832 95.8594 28.088 94.9634 28.6C94.0834 29.112 93.3874 29.848 92.8754 30.808C92.3634 31.752 92.1074 32.864 92.1074 34.144C92.1074 35.392 92.3554 36.496 92.8514 37.456C93.3474 38.4 94.0354 39.136 94.9154 39.664C95.8114 40.176 96.8274 40.432 97.9634 40.432C99.2434 40.432 100.371 40.12 101.347 39.496C102.339 38.872 103.027 38.016 103.411 36.928L106.075 38.704C105.291 40.192 104.195 41.344 102.787 42.16C101.395 42.96 99.8034 43.36 98.0114 43.36C96.2834 43.36 94.7154 42.976 93.3074 42.208C91.9154 41.424 90.8194 40.336 90.0194 38.944C89.2194 37.536 88.8194 35.928 88.8194 34.12C88.8194 32.296 89.2274 30.688 90.0434 29.296C90.8754 27.888 91.9954 26.808 93.4034 26.056C94.8114 25.288 96.3554 24.904 98.0354 24.904ZM114.336 30.064C115.632 30.064 116.792 30.352 117.816 30.928C118.856 31.488 119.672 32.272 120.264 33.28C120.856 34.288 121.152 35.432 121.152 36.712C121.152 37.992 120.856 39.136 120.264 40.144C119.672 41.152 118.856 41.944 117.816 42.52C116.792 43.08 115.632 43.36 114.336 43.36C113.04 43.36 111.872 43.08 110.832 42.52C109.808 41.944 109 41.152 108.408 40.144C107.816 39.136 107.52 37.992 107.52 36.712C107.52 35.432 107.816 34.288 108.408 33.28C109 32.272 109.808 31.488 110.832 30.928C111.872 30.352 113.04 30.064 114.336 30.064ZM110.76 36.712C110.76 37.864 111.096 38.784 111.768 39.472C112.44 40.16 113.296 40.504 114.336 40.504C115.376 40.504 116.232 40.16 116.904 39.472C117.576 38.784 117.912 37.864 117.912 36.712C117.912 35.56 117.576 34.64 116.904 33.952C116.232 33.264 115.376 32.92 114.336 32.92C113.296 32.92 112.44 33.264 111.768 33.952C111.096 34.64 110.76 35.56 110.76 36.712ZM131.2 35.536C131.2 34.8 131.024 34.184 130.672 33.688C130.336 33.176 129.808 32.92 129.088 32.92C128.32 32.92 127.728 33.208 127.312 33.784C126.896 34.36 126.672 35.152 126.64 36.16V43H123.52V30.52H126.64V33.952L127.384 31.072C128.104 30.4 129 30.064 130.072 30.064C131.176 30.064 132.096 30.4 132.832 31.072C133.584 31.728 134.056 32.64 134.248 33.808L134.92 31.072C135.176 30.8 135.528 30.568 135.976 30.376C136.44 30.168 136.976 30.064 137.584 30.064C138.976 30.064 140.056 30.496 140.824 31.36C141.608 32.208 142 33.424 142 35.008V43H138.88V35.512C138.88 34.648 138.696 34 138.328 33.568C137.96 33.136 137.424 32.92 136.72 32.92C135.92 32.92 135.32 33.192 134.92 33.736C134.52 34.28 134.32 35.072 134.32 36.112V43H131.2V35.536ZM152.19 43.36C150.942 43.36 149.87 43.064 148.974 42.472L148.062 39.184V48.16H144.942V30.52H148.062V31.864C149.102 30.664 150.486 30.064 152.214 30.064C153.43 30.064 154.51 30.36 155.454 30.952C156.414 31.528 157.158 32.328 157.686 33.352C158.23 34.36 158.502 35.496 158.502 36.76C158.502 38.008 158.23 39.136 157.686 40.144C157.158 41.136 156.414 41.92 155.454 42.496C154.494 43.072 153.406 43.36 152.19 43.36ZM147.966 36.76C147.966 37.512 148.126 38.176 148.446 38.752C148.766 39.312 149.198 39.752 149.742 40.072C150.302 40.376 150.918 40.528 151.59 40.528C152.662 40.528 153.542 40.184 154.23 39.496C154.918 38.792 155.262 37.88 155.262 36.76C155.262 35.624 154.918 34.696 154.23 33.976C153.542 33.256 152.662 32.896 151.59 32.896C150.918 32.896 150.302 33.056 149.742 33.376C149.198 33.696 148.766 34.152 148.446 34.744C148.126 35.32 147.966 35.992 147.966 36.76ZM173.72 37.408L175.616 43H172.328L170.864 38.464L170.648 41.608C169.64 42.776 168.256 43.36 166.496 43.36C165.28 43.36 164.192 43.072 163.232 42.496C162.272 41.92 161.52 41.136 160.976 40.144C160.448 39.136 160.184 38.008 160.184 36.76C160.184 35.496 160.448 34.36 160.976 33.352C161.52 32.328 162.264 31.528 163.208 30.952C164.168 30.36 165.256 30.064 166.472 30.064C168.168 30.064 169.544 30.648 170.6 31.816V30.52H173.72V37.408ZM163.424 36.76C163.424 37.88 163.768 38.792 164.456 39.496C165.144 40.184 166.016 40.528 167.072 40.528C167.744 40.528 168.352 40.376 168.896 40.072C169.456 39.752 169.896 39.312 170.216 38.752C170.552 38.176 170.72 37.512 170.72 36.76C170.72 35.992 170.552 35.32 170.216 34.744C169.896 34.152 169.456 33.696 168.896 33.376C168.352 33.056 167.744 32.896 167.072 32.896C166.016 32.896 165.144 33.256 164.456 33.976C163.768 34.696 163.424 35.624 163.424 36.76ZM180.758 30.52V34.624L181.454 31.36C181.726 31.056 182.086 30.792 182.534 30.568C182.982 30.328 183.494 30.208 184.07 30.208C184.566 30.208 184.982 30.272 185.318 30.4V33.448C184.774 33.288 184.238 33.208 183.71 33.208C182.798 33.208 182.078 33.536 181.55 34.192C181.022 34.848 180.758 35.776 180.758 36.976V43H177.638V30.52H180.758ZM190.461 30.52V43H187.341V30.52H190.461ZM187.293 25.36H190.533V28.48H187.293V25.36ZM198.28 30.064C199.8 30.064 201.056 30.384 202.048 31.024C203.056 31.664 203.68 32.536 203.92 33.64L200.992 34.744C200.944 34.024 200.68 33.472 200.2 33.088C199.736 32.688 199.096 32.488 198.28 32.488C197.64 32.488 197.136 32.624 196.768 32.896C196.4 33.152 196.216 33.496 196.216 33.928C196.216 34.344 196.44 34.656 196.888 34.864C197.352 35.056 198.072 35.24 199.048 35.416C200.072 35.608 200.92 35.824 201.592 36.064C202.264 36.288 202.84 36.672 203.32 37.216C203.816 37.744 204.064 38.464 204.064 39.376C204.064 40.688 203.552 41.68 202.528 42.352C201.52 43.024 200.216 43.36 198.616 43.36C197 43.36 195.664 43.04 194.608 42.4C193.552 41.76 192.912 40.856 192.688 39.688L195.64 38.416C195.704 39.28 196 39.912 196.528 40.312C197.072 40.712 197.768 40.912 198.616 40.912C199.224 40.912 199.728 40.8 200.128 40.576C200.544 40.336 200.752 40 200.752 39.568C200.752 39.12 200.528 38.8 200.08 38.608C199.632 38.416 198.904 38.216 197.896 38.008C196.904 37.816 196.08 37.608 195.424 37.384C194.768 37.16 194.2 36.792 193.72 36.28C193.256 35.752 193.024 35.032 193.024 34.12C193.024 33.352 193.264 32.664 193.744 32.056C194.224 31.432 194.864 30.944 195.664 30.592C196.464 30.24 197.336 30.064 198.28 30.064ZM212.539 30.064C213.835 30.064 214.995 30.352 216.019 30.928C217.059 31.488 217.875 32.272 218.467 33.28C219.059 34.288 219.355 35.432 219.355 36.712C219.355 37.992 219.059 39.136 218.467 40.144C217.875 41.152 217.059 41.944 216.019 42.52C214.995 43.08 213.835 43.36 212.539 43.36C211.243 43.36 210.075 43.08 209.035 42.52C208.011 41.944 207.203 41.152 206.611 40.144C206.019 39.136 205.723 37.992 205.723 36.712C205.723 35.432 206.019 34.288 206.611 33.28C207.203 32.272 208.011 31.488 209.035 30.928C210.075 30.352 211.243 30.064 212.539 30.064ZM208.963 36.712C208.963 37.864 209.299 38.784 209.971 39.472C210.643 40.16 211.499 40.504 212.539 40.504C213.579 40.504 214.435 40.16 215.107 39.472C215.779 38.784 216.115 37.864 216.115 36.712C216.115 35.56 215.779 34.64 215.107 33.952C214.435 33.264 213.579 32.92 212.539 32.92C211.499 32.92 210.643 33.264 209.971 33.952C209.299 34.64 208.963 35.56 208.963 36.712ZM224.844 30.52V34.144L225.54 31.312C226.324 30.48 227.388 30.064 228.732 30.064C230.22 30.064 231.356 30.544 232.14 31.504C232.924 32.464 233.316 33.856 233.316 35.68V43H230.196V36.136C230.196 35.016 229.996 34.208 229.596 33.712C229.212 33.2 228.588 32.944 227.724 32.944C226.812 32.944 226.1 33.248 225.588 33.856C225.092 34.464 224.844 35.312 224.844 36.4V43H221.724V30.52H224.844ZM242.939 25.36L248.435 40.144L253.979 25.36H256.451L249.707 43H247.091L240.467 25.36H242.939ZM269.505 37.6L271.353 43H269.025L267.465 38.248L267.225 41.296C266.713 41.936 266.065 42.44 265.281 42.808C264.513 43.176 263.617 43.36 262.593 43.36C261.345 43.36 260.241 43.072 259.281 42.496C258.337 41.904 257.601 41.112 257.073 40.12C256.545 39.112 256.281 37.992 256.281 36.76C256.281 35.528 256.545 34.408 257.073 33.4C257.601 32.376 258.337 31.576 259.281 31C260.241 30.408 261.345 30.112 262.593 30.112C263.617 30.112 264.521 30.312 265.305 30.712C266.105 31.096 266.769 31.64 267.297 32.344V30.52H269.505V37.6ZM258.537 36.76C258.537 37.624 258.713 38.408 259.065 39.112C259.433 39.8 259.945 40.344 260.601 40.744C261.273 41.144 262.057 41.344 262.953 41.344C263.817 41.344 264.585 41.144 265.257 40.744C265.929 40.344 266.449 39.8 266.817 39.112C267.185 38.408 267.369 37.624 267.369 36.76C267.369 35.896 267.185 35.112 266.817 34.408C266.449 33.704 265.929 33.152 265.257 32.752C264.585 32.336 263.817 32.128 262.953 32.128C262.057 32.128 261.273 32.336 260.601 32.752C259.945 33.152 259.433 33.704 259.065 34.408C258.713 35.112 258.537 35.896 258.537 36.76ZM275.804 30.52V34.312L276.452 31.528C277.284 30.6 278.444 30.136 279.932 30.136C281.436 30.136 282.604 30.592 283.436 31.504C284.268 32.4 284.684 33.664 284.684 35.296V43H282.476V35.632C282.476 33.312 281.46 32.152 279.428 32.152C278.292 32.152 277.404 32.512 276.764 33.232C276.124 33.952 275.804 34.968 275.804 36.28V43H273.596V30.52H275.804ZM290.265 30.52V43H288.057V30.52H290.265ZM287.889 25.36H290.481V27.904H287.889V25.36ZM296.127 25.36V43H293.919V25.36H296.127ZM302.103 25.36V43H299.895V25.36H302.103ZM318.208 37.6L320.056 43H317.728L316.168 38.248L315.928 41.296C315.416 41.936 314.768 42.44 313.984 42.808C313.216 43.176 312.32 43.36 311.296 43.36C310.048 43.36 308.944 43.072 307.984 42.496C307.04 41.904 306.304 41.112 305.776 40.12C305.248 39.112 304.984 37.992 304.984 36.76C304.984 35.528 305.248 34.408 305.776 33.4C306.304 32.376 307.04 31.576 307.984 31C308.944 30.408 310.048 30.112 311.296 30.112C312.32 30.112 313.224 30.312 314.008 30.712C314.808 31.096 315.472 31.64 316 32.344V30.52H318.208V37.6ZM307.24 36.76C307.24 37.624 307.416 38.408 307.768 39.112C308.136 39.8 308.648 40.344 309.304 40.744C309.976 41.144 310.76 41.344 311.656 41.344C312.52 41.344 313.288 41.144 313.96 40.744C314.632 40.344 315.152 39.8 315.52 39.112C315.888 38.408 316.072 37.624 316.072 36.76C316.072 35.896 315.888 35.112 315.52 34.408C315.152 33.704 314.632 33.152 313.96 32.752C313.288 32.336 312.52 32.128 311.656 32.128C310.76 32.128 309.976 32.336 309.304 32.752C308.648 33.152 308.136 33.704 307.768 34.408C307.416 35.112 307.24 35.896 307.24 36.76ZM328.216 25.36H335.368C336.552 25.36 337.576 25.576 338.44 26.008C339.304 26.44 339.968 27.056 340.432 27.856C340.896 28.64 341.128 29.552 341.128 30.592C341.128 31.68 340.872 32.616 340.36 33.4C339.864 34.184 339.192 34.776 338.344 35.176C337.496 35.576 336.552 35.776 335.512 35.776H330.496V43H328.216V25.36ZM335.368 33.736C336.424 33.736 337.264 33.456 337.888 32.896C338.528 32.32 338.848 31.552 338.848 30.592C338.848 29.648 338.544 28.888 337.936 28.312C337.328 27.72 336.488 27.424 335.416 27.424H330.496V33.736H335.368ZM345.2 30.52L349.28 40.192L353.192 30.52H355.616L348.224 48.16H345.848L348.08 42.832L342.728 30.52H345.2ZM369.05 25.36V27.448H363.29V43H361.01V27.448H355.25V25.36H369.05ZM375.077 30.112C376.325 30.112 377.453 30.392 378.461 30.952C379.485 31.512 380.293 32.296 380.885 33.304C381.477 34.312 381.773 35.456 381.773 36.736C381.773 38.016 381.477 39.16 380.885 40.168C380.293 41.176 379.485 41.96 378.461 42.52C377.453 43.08 376.325 43.36 375.077 43.36C373.845 43.36 372.717 43.08 371.693 42.52C370.685 41.96 369.885 41.176 369.293 40.168C368.717 39.16 368.429 38.016 368.429 36.736C368.429 35.456 368.717 34.312 369.293 33.304C369.885 32.296 370.685 31.512 371.693 30.952C372.717 30.392 373.845 30.112 375.077 30.112ZM370.685 36.736C370.685 37.648 370.869 38.456 371.237 39.16C371.621 39.848 372.149 40.384 372.821 40.768C373.493 41.136 374.245 41.32 375.077 41.32C375.925 41.32 376.685 41.136 377.357 40.768C378.029 40.384 378.549 39.848 378.917 39.16C379.301 38.456 379.493 37.648 379.493 36.736C379.493 35.824 379.301 35.024 378.917 34.336C378.549 33.648 378.029 33.112 377.357 32.728C376.685 32.344 375.925 32.152 375.077 32.152C374.229 32.152 373.469 32.344 372.797 32.728C372.141 33.112 371.621 33.648 371.237 34.336C370.869 35.024 370.685 35.824 370.685 36.736ZM386.687 30.52V34.84L387.335 31.648C387.687 31.28 388.143 30.96 388.703 30.688C389.263 30.416 389.911 30.28 390.647 30.28C390.967 30.28 391.263 30.312 391.535 30.376V32.632C391.151 32.536 390.775 32.488 390.407 32.488C389.271 32.488 388.367 32.848 387.695 33.568C387.023 34.288 386.687 35.416 386.687 36.952V43H384.479V30.52H386.687ZM399.053 30.112C400.333 30.112 401.485 30.424 402.509 31.048C403.533 31.672 404.245 32.48 404.645 33.472L402.701 34.672C402.477 33.888 402.029 33.272 401.357 32.824C400.685 32.376 399.917 32.152 399.053 32.152C397.757 32.152 396.709 32.576 395.909 33.424C395.109 34.256 394.709 35.36 394.709 36.736C394.709 38.128 395.093 39.24 395.861 40.072C396.645 40.904 397.709 41.32 399.053 41.32C399.917 41.32 400.693 41.088 401.381 40.624C402.085 40.144 402.549 39.544 402.773 38.824L404.645 40.024C404.213 41 403.485 41.8 402.461 42.424C401.437 43.048 400.301 43.36 399.053 43.36C397.773 43.36 396.629 43.088 395.621 42.544C394.629 41.984 393.853 41.208 393.293 40.216C392.733 39.208 392.453 38.048 392.453 36.736C392.453 35.456 392.733 34.312 393.293 33.304C393.869 32.296 394.653 31.512 395.645 30.952C396.653 30.392 397.789 30.112 399.053 30.112ZM413.715 30.136C415.251 30.136 416.435 30.592 417.267 31.504C418.099 32.4 418.515 33.664 418.515 35.296V43H416.307V35.632C416.307 33.312 415.267 32.152 413.187 32.152C412.083 32.152 411.211 32.512 410.571 33.232C409.947 33.952 409.635 34.968 409.635 36.28V43H407.427V25.36H409.635V34.288L410.283 31.6C410.635 31.152 411.075 30.8 411.603 30.544C412.131 30.272 412.835 30.136 413.715 30.136ZM428.449 30.52L432.505 40.504L436.537 30.52H438.913L433.681 43H431.305L426.025 30.52H428.449ZM445.64 30.112C447.08 30.112 448.272 30.448 449.216 31.12C450.16 31.776 450.712 32.656 450.872 33.76L448.76 34.552C448.712 33.736 448.416 33.096 447.872 32.632C447.328 32.168 446.584 31.936 445.64 31.936C444.808 31.936 444.144 32.112 443.648 32.464C443.168 32.816 442.928 33.264 442.928 33.808C442.928 34.208 443.072 34.536 443.36 34.792C443.648 35.032 444 35.216 444.416 35.344C444.848 35.472 445.448 35.616 446.216 35.776C447.256 36 448.088 36.224 448.712 36.448C449.352 36.672 449.896 37.032 450.344 37.528C450.808 38.024 451.04 38.696 451.04 39.544C451.04 40.744 450.568 41.68 449.624 42.352C448.696 43.024 447.44 43.36 445.856 43.36C444.288 43.36 443.008 43.008 442.016 42.304C441.024 41.6 440.432 40.672 440.24 39.52L442.4 38.608C442.448 39.536 442.776 40.256 443.384 40.768C444.008 41.28 444.832 41.536 445.856 41.536C446.704 41.536 447.384 41.384 447.896 41.08C448.408 40.776 448.664 40.312 448.664 39.688C448.664 39.288 448.52 38.968 448.232 38.728C447.96 38.488 447.608 38.304 447.176 38.176C446.76 38.048 446.184 37.912 445.448 37.768C444.44 37.56 443.616 37.344 442.976 37.12C442.336 36.896 441.784 36.536 441.32 36.04C440.872 35.528 440.648 34.832 440.648 33.952C440.648 33.232 440.872 32.576 441.32 31.984C441.768 31.392 442.376 30.936 443.144 30.616C443.912 30.28 444.744 30.112 445.64 30.112ZM467.763 24.952C469.395 24.952 470.899 25.328 472.275 26.08C473.667 26.816 474.723 27.864 475.443 29.224L473.619 30.544C473.123 29.424 472.355 28.56 471.315 27.952C470.275 27.328 469.107 27.016 467.811 27.016C466.563 27.016 465.419 27.296 464.379 27.856C463.339 28.416 462.507 29.24 461.883 30.328C461.259 31.4 460.947 32.68 460.947 34.168C460.947 35.64 461.251 36.92 461.859 38.008C462.483 39.08 463.315 39.896 464.355 40.456C465.395 41.016 466.539 41.296 467.787 41.296C469.115 41.296 470.307 40.984 471.363 40.36C472.419 39.736 473.187 38.856 473.667 37.72L475.515 39.016C474.731 40.376 473.659 41.44 472.299 42.208C470.939 42.976 469.411 43.36 467.715 43.36C466.083 43.36 464.571 42.984 463.179 42.232C461.803 41.48 460.699 40.408 459.867 39.016C459.051 37.624 458.643 36 458.643 34.144C458.643 32.304 459.059 30.688 459.891 29.296C460.739 27.888 461.859 26.816 463.251 26.08C464.643 25.328 466.147 24.952 467.763 24.952ZM483.968 30.112C485.216 30.112 486.344 30.392 487.352 30.952C488.376 31.512 489.184 32.296 489.776 33.304C490.368 34.312 490.664 35.456 490.664 36.736C490.664 38.016 490.368 39.16 489.776 40.168C489.184 41.176 488.376 41.96 487.352 42.52C486.344 43.08 485.216 43.36 483.968 43.36C482.736 43.36 481.608 43.08 480.584 42.52C479.576 41.96 478.776 41.176 478.184 40.168C477.608 39.16 477.32 38.016 477.32 36.736C477.32 35.456 477.608 34.312 478.184 33.304C478.776 32.296 479.576 31.512 480.584 30.952C481.608 30.392 482.736 30.112 483.968 30.112ZM479.576 36.736C479.576 37.648 479.76 38.456 480.128 39.16C480.512 39.848 481.04 40.384 481.712 40.768C482.384 41.136 483.136 41.32 483.968 41.32C484.816 41.32 485.576 41.136 486.248 40.768C486.92 40.384 487.44 39.848 487.808 39.16C488.192 38.456 488.384 37.648 488.384 36.736C488.384 35.824 488.192 35.024 487.808 34.336C487.44 33.648 486.92 33.112 486.248 32.728C485.576 32.344 484.816 32.152 483.968 32.152C483.12 32.152 482.36 32.344 481.688 32.728C481.032 33.112 480.512 33.648 480.128 34.336C479.76 35.024 479.576 35.824 479.576 36.736ZM501.433 35.416C501.433 34.632 501.249 33.888 500.881 33.184C500.513 32.48 499.793 32.128 498.721 32.128C497.729 32.128 496.961 32.496 496.417 33.232C495.873 33.968 495.593 34.968 495.577 36.232V43H493.369V30.52H495.577V34.216L496.297 31.312C497.049 30.512 498.049 30.112 499.297 30.112C500.513 30.112 501.505 30.488 502.273 31.24C503.057 31.976 503.489 32.936 503.569 34.12L504.193 31.312C505.025 30.512 506.073 30.112 507.337 30.112C508.681 30.112 509.745 30.536 510.529 31.384C511.313 32.216 511.705 33.4 511.705 34.936V43H509.497V35.368C509.497 34.28 509.265 33.472 508.801 32.944C508.337 32.4 507.665 32.128 506.785 32.128C505.761 32.128 504.977 32.48 504.433 33.184C503.905 33.872 503.641 34.832 503.641 36.064V43H501.433V35.416ZM522.008 43.36C521.192 43.36 520.464 43.24 519.824 43C519.2 42.776 518.672 42.504 518.24 42.184L517.304 38.92V48.16H515.096V30.52H517.304V32.368C517.832 31.664 518.488 31.112 519.272 30.712C520.072 30.312 520.984 30.112 522.008 30.112C523.256 30.112 524.352 30.408 525.296 31C526.256 31.576 527 32.376 527.528 33.4C528.056 34.408 528.32 35.528 528.32 36.76C528.32 37.992 528.056 39.112 527.528 40.12C527 41.112 526.256 41.904 525.296 42.496C524.352 43.072 523.256 43.36 522.008 43.36ZM517.232 36.76C517.232 37.624 517.416 38.408 517.784 39.112C518.152 39.8 518.672 40.344 519.344 40.744C520.016 41.144 520.784 41.344 521.648 41.344C522.544 41.344 523.32 41.144 523.976 40.744C524.648 40.344 525.16 39.8 525.512 39.112C525.88 38.408 526.064 37.624 526.064 36.76C526.064 35.896 525.88 35.112 525.512 34.408C525.16 33.704 524.648 33.152 523.976 32.752C523.32 32.336 522.544 32.128 521.648 32.128C520.784 32.128 520.016 32.336 519.344 32.752C518.672 33.152 518.152 33.704 517.784 34.408C517.416 35.112 517.232 35.896 517.232 36.76ZM536.937 30.112C538.185 30.112 539.313 30.392 540.321 30.952C541.345 31.512 542.153 32.296 542.745 33.304C543.337 34.312 543.633 35.456 543.633 36.736C543.633 38.016 543.337 39.16 542.745 40.168C542.153 41.176 541.345 41.96 540.321 42.52C539.313 43.08 538.185 43.36 536.937 43.36C535.705 43.36 534.577 43.08 533.553 42.52C532.545 41.96 531.745 41.176 531.153 40.168C530.577 39.16 530.289 38.016 530.289 36.736C530.289 35.456 530.577 34.312 531.153 33.304C531.745 32.296 532.545 31.512 533.553 30.952C534.577 30.392 535.705 30.112 536.937 30.112ZM532.545 36.736C532.545 37.648 532.729 38.456 533.097 39.16C533.481 39.848 534.009 40.384 534.681 40.768C535.353 41.136 536.105 41.32 536.937 41.32C537.785 41.32 538.545 41.136 539.217 40.768C539.889 40.384 540.409 39.848 540.777 39.16C541.161 38.456 541.353 37.648 541.353 36.736C541.353 35.824 541.161 35.024 540.777 34.336C540.409 33.648 539.889 33.112 539.217 32.728C538.545 32.344 537.785 32.152 536.937 32.152C536.089 32.152 535.329 32.344 534.657 32.728C534.001 33.112 533.481 33.648 533.097 34.336C532.729 35.024 532.545 35.824 532.545 36.736ZM550.898 30.112C552.338 30.112 553.53 30.448 554.474 31.12C555.418 31.776 555.97 32.656 556.13 33.76L554.018 34.552C553.97 33.736 553.674 33.096 553.13 32.632C552.586 32.168 551.842 31.936 550.898 31.936C550.066 31.936 549.402 32.112 548.906 32.464C548.426 32.816 548.186 33.264 548.186 33.808C548.186 34.208 548.33 34.536 548.618 34.792C548.906 35.032 549.258 35.216 549.674 35.344C550.106 35.472 550.706 35.616 551.474 35.776C552.514 36 553.346 36.224 553.97 36.448C554.61 36.672 555.154 37.032 555.602 37.528C556.066 38.024 556.298 38.696 556.298 39.544C556.298 40.744 555.826 41.68 554.882 42.352C553.954 43.024 552.698 43.36 551.114 43.36C549.546 43.36 548.266 43.008 547.274 42.304C546.282 41.6 545.69 40.672 545.498 39.52L547.658 38.608C547.706 39.536 548.034 40.256 548.642 40.768C549.266 41.28 550.09 41.536 551.114 41.536C551.962 41.536 552.642 41.384 553.154 41.08C553.666 40.776 553.922 40.312 553.922 39.688C553.922 39.288 553.778 38.968 553.49 38.728C553.218 38.488 552.866 38.304 552.434 38.176C552.018 38.048 551.442 37.912 550.706 37.768C549.698 37.56 548.874 37.344 548.234 37.12C547.594 36.896 547.042 36.536 546.578 36.04C546.13 35.528 545.906 34.832 545.906 33.952C545.906 33.232 546.13 32.576 546.578 31.984C547.026 31.392 547.634 30.936 548.402 30.616C549.17 30.28 550.002 30.112 550.898 30.112ZM564.488 30.112C565.704 30.112 566.76 30.384 567.656 30.928C568.568 31.456 569.264 32.208 569.744 33.184C570.224 34.16 570.464 35.28 570.464 36.544C570.464 36.944 570.448 37.256 570.416 37.48H560.6C560.728 38.76 561.16 39.744 561.896 40.432C562.648 41.104 563.584 41.44 564.704 41.44C566.624 41.44 567.936 40.624 568.64 38.992L570.296 40.408C569.752 41.384 568.976 42.12 567.968 42.616C566.96 43.112 565.856 43.36 564.656 43.36C563.408 43.36 562.304 43.08 561.344 42.52C560.384 41.96 559.64 41.184 559.112 40.192C558.584 39.2 558.32 38.064 558.32 36.784C558.32 35.52 558.584 34.384 559.112 33.376C559.64 32.352 560.376 31.552 561.32 30.976C562.264 30.4 563.32 30.112 564.488 30.112ZM568.088 35.752C568.088 34.616 567.752 33.72 567.08 33.064C566.424 32.392 565.544 32.056 564.44 32.056C563.464 32.056 562.624 32.376 561.92 33.016C561.232 33.656 560.808 34.568 560.648 35.752H568.088ZM575.593 30.52V34.84L576.241 31.648C576.593 31.28 577.049 30.96 577.609 30.688C578.169 30.416 578.817 30.28 579.553 30.28C579.873 30.28 580.169 30.312 580.441 30.376V32.632C580.057 32.536 579.681 32.488 579.313 32.488C578.177 32.488 577.273 32.848 576.601 33.568C575.929 34.288 575.593 35.416 575.593 36.952V43H573.385V30.52H575.593Z" fill="#4E4E4E"/>
<path d="M45.9464 65.68V67C46.4824 67.056 46.9544 67.204 47.3624 67.444C47.7704 67.676 48.0904 67.972 48.3224 68.332C48.5544 68.692 48.6864 69.076 48.7184 69.484L47.6624 69.94C47.6624 69.436 47.5104 69.012 47.2064 68.668C46.9024 68.316 46.4824 68.096 45.9464 68.008V71.02C46.5464 71.148 47.0464 71.292 47.4464 71.452C47.8464 71.612 48.1784 71.86 48.4424 72.196C48.7144 72.532 48.8504 72.984 48.8504 73.552C48.8504 74.296 48.5824 74.9 48.0464 75.364C47.5104 75.828 46.8104 76.096 45.9464 76.168V77.56H45.0464V76.156C44.1984 76.076 43.5024 75.788 42.9584 75.292C42.4144 74.796 42.1024 74.148 42.0224 73.348L43.1024 72.808C43.1024 73.456 43.2704 73.992 43.6064 74.416C43.9424 74.832 44.4224 75.08 45.0464 75.16V71.932C44.4544 71.812 43.9624 71.68 43.5704 71.536C43.1864 71.392 42.8624 71.16 42.5984 70.84C42.3424 70.52 42.2144 70.084 42.2144 69.532C42.2144 69.052 42.3384 68.628 42.5864 68.26C42.8424 67.892 43.1864 67.6 43.6184 67.384C44.0504 67.168 44.5264 67.036 45.0464 66.988V65.68H45.9464ZM43.3784 69.46C43.3784 69.852 43.5224 70.148 43.8104 70.348C44.0984 70.548 44.5104 70.712 45.0464 70.84V67.996C44.5424 68.052 44.1384 68.208 43.8344 68.464C43.5304 68.72 43.3784 69.052 43.3784 69.46ZM45.9464 75.172C46.4744 75.108 46.8944 74.94 47.2064 74.668C47.5264 74.388 47.6864 74.036 47.6864 73.612C47.6864 73.18 47.5344 72.856 47.2304 72.64C46.9344 72.416 46.5064 72.24 45.9464 72.112V75.172ZM55.5689 67.18V68.176L52.9409 70.6C53.0049 70.592 53.1009 70.588 53.2289 70.588C53.7409 70.588 54.2009 70.704 54.6089 70.936C55.0169 71.168 55.3369 71.492 55.5689 71.908C55.8009 72.324 55.9169 72.8 55.9169 73.336C55.9169 73.904 55.7929 74.404 55.5449 74.836C55.2969 75.26 54.9449 75.592 54.4889 75.832C54.0409 76.064 53.5169 76.18 52.9169 76.18C52.3889 76.18 51.9089 76.072 51.4769 75.856C51.0529 75.64 50.7089 75.34 50.4449 74.956C50.1809 74.572 50.0209 74.132 49.9649 73.636L51.0449 73.132C51.0609 73.74 51.2329 74.228 51.5609 74.596C51.8969 74.964 52.3489 75.148 52.9169 75.148C53.4769 75.148 53.9249 74.984 54.2609 74.656C54.6049 74.32 54.7769 73.884 54.7769 73.348C54.7769 72.772 54.6089 72.316 54.2729 71.98C53.9449 71.644 53.4769 71.476 52.8689 71.476C52.4849 71.476 52.1529 71.548 51.8729 71.692L51.4289 70.78L54.1529 68.188H50.2049V67.18H55.5689ZM60.1396 66.976C61.1156 66.976 61.8596 67.372 62.3716 68.164C62.8836 68.948 63.1396 70.092 63.1396 71.596C63.1396 73.092 62.8836 74.232 62.3716 75.016C61.8596 75.792 61.1156 76.18 60.1396 76.18C59.1636 76.18 58.4196 75.792 57.9076 75.016C57.3956 74.232 57.1396 73.092 57.1396 71.596C57.1396 70.092 57.3956 68.948 57.9076 68.164C58.4196 67.372 59.1636 66.976 60.1396 66.976ZM58.2796 71.596C58.2796 72.764 58.4356 73.648 58.7476 74.248C59.0596 74.848 59.5236 75.148 60.1396 75.148C60.7476 75.148 61.2076 74.848 61.5196 74.248C61.8396 73.648 61.9996 72.764 61.9996 71.596C61.9996 70.42 61.8396 69.528 61.5196 68.92C61.2076 68.312 60.7476 68.008 60.1396 68.008C59.5236 68.008 59.0596 68.312 58.7476 68.92C58.4356 69.52 58.2796 70.412 58.2796 71.596ZM67.3818 66.976C68.3578 66.976 69.1018 67.372 69.6138 68.164C70.1258 68.948 70.3818 70.092 70.3818 71.596C70.3818 73.092 70.1258 74.232 69.6138 75.016C69.1018 75.792 68.3578 76.18 67.3818 76.18C66.4058 76.18 65.6618 75.792 65.1498 75.016C64.6378 74.232 64.3818 73.092 64.3818 71.596C64.3818 70.092 64.6378 68.948 65.1498 68.164C65.6618 67.372 66.4058 66.976 67.3818 66.976ZM65.5218 71.596C65.5218 72.764 65.6778 73.648 65.9898 74.248C66.3018 74.848 66.7658 75.148 67.3818 75.148C67.9898 75.148 68.4498 74.848 68.7618 74.248C69.0818 73.648 69.2418 72.764 69.2418 71.596C69.2418 70.42 69.0818 69.528 68.7618 68.92C68.4498 68.312 67.9898 68.008 67.3818 68.008C66.7658 68.008 66.3018 68.312 65.9898 68.92C65.6778 69.52 65.5218 70.412 65.5218 71.596Z" fill="#4E4E4E"/>
<path d="M46.2043 176.68V178C46.7403 178.056 47.2123 178.204 47.6203 178.444C48.0283 178.676 48.3483 178.972 48.5803 179.332C48.8123 179.692 48.9443 180.076 48.9763 180.484L47.9203 180.94C47.9203 180.436 47.7683 180.012 47.4643 179.668C47.1603 179.316 46.7403 179.096 46.2043 179.008V182.02C46.8043 182.148 47.3043 182.292 47.7043 182.452C48.1043 182.612 48.4363 182.86 48.7003 183.196C48.9723 183.532 49.1083 183.984 49.1083 184.552C49.1083 185.296 48.8403 185.9 48.3043 186.364C47.7683 186.828 47.0683 187.096 46.2043 187.168V188.56H45.3043V187.156C44.4563 187.076 43.7603 186.788 43.2163 186.292C42.6723 185.796 42.3603 185.148 42.2803 184.348L43.3603 183.808C43.3603 184.456 43.5283 184.992 43.8643 185.416C44.2003 185.832 44.6803 186.08 45.3043 186.16V182.932C44.7123 182.812 44.2203 182.68 43.8283 182.536C43.4443 182.392 43.1203 182.16 42.8563 181.84C42.6003 181.52 42.4723 181.084 42.4723 180.532C42.4723 180.052 42.5963 179.628 42.8443 179.26C43.1003 178.892 43.4443 178.6 43.8763 178.384C44.3083 178.168 44.7843 178.036 45.3043 177.988V176.68H46.2043ZM43.6363 180.46C43.6363 180.852 43.7803 181.148 44.0683 181.348C44.3563 181.548 44.7683 181.712 45.3043 181.84V178.996C44.8003 179.052 44.3963 179.208 44.0923 179.464C43.7883 179.72 43.6363 180.052 43.6363 180.46ZM46.2043 186.172C46.7323 186.108 47.1523 185.94 47.4643 185.668C47.7843 185.388 47.9443 185.036 47.9443 184.612C47.9443 184.18 47.7923 183.856 47.4883 183.64C47.1923 183.416 46.7643 183.24 46.2043 183.112V186.172ZM53.1508 177.976C53.6788 177.976 54.1468 178.084 54.5548 178.3C54.9708 178.516 55.2908 178.82 55.5148 179.212C55.7468 179.596 55.8628 180.032 55.8628 180.52C55.8628 181.152 55.6868 181.752 55.3348 182.32C54.9828 182.88 54.4668 183.484 53.7868 184.132L51.8788 185.98H55.9108V187H50.3548V185.992L52.7908 183.616C53.3988 183.024 53.8708 182.48 54.2068 181.984C54.5508 181.48 54.7228 180.984 54.7228 180.496C54.7228 180.048 54.5788 179.688 54.2908 179.416C54.0028 179.144 53.6108 179.008 53.1148 179.008C52.5788 179.008 52.1588 179.176 51.8548 179.512C51.5508 179.84 51.3988 180.268 51.3988 180.796C51.3988 180.964 51.4108 181.14 51.4348 181.324L50.3188 181.132C50.2948 180.964 50.2828 180.8 50.2828 180.64C50.2828 180.152 50.4028 179.704 50.6428 179.296C50.8828 178.888 51.2188 178.568 51.6508 178.336C52.0908 178.096 52.5908 177.976 53.1508 177.976ZM60.1396 177.976C61.1156 177.976 61.8596 178.372 62.3716 179.164C62.8836 179.948 63.1396 181.092 63.1396 182.596C63.1396 184.092 62.8836 185.232 62.3716 186.016C61.8596 186.792 61.1156 187.18 60.1396 187.18C59.1636 187.18 58.4196 186.792 57.9076 186.016C57.3956 185.232 57.1396 184.092 57.1396 182.596C57.1396 181.092 57.3956 179.948 57.9076 179.164C58.4196 178.372 59.1636 177.976 60.1396 177.976ZM58.2796 182.596C58.2796 183.764 58.4356 184.648 58.7476 185.248C59.0596 185.848 59.5236 186.148 60.1396 186.148C60.7476 186.148 61.2076 185.848 61.5196 185.248C61.8396 184.648 61.9996 183.764 61.9996 182.596C61.9996 181.42 61.8396 180.528 61.5196 179.92C61.2076 179.312 60.7476 179.008 60.1396 179.008C59.5236 179.008 59.0596 179.312 58.7476 179.92C58.4356 180.52 58.2796 181.412 58.2796 182.596ZM67.3818 177.976C68.3578 177.976 69.1018 178.372 69.6138 179.164C70.1258 179.948 70.3818 181.092 70.3818 182.596C70.3818 184.092 70.1258 185.232 69.6138 186.016C69.1018 186.792 68.3578 187.18 67.3818 187.18C66.4058 187.18 65.6618 186.792 65.1498 186.016C64.6378 185.232 64.3818 184.092 64.3818 182.596C64.3818 181.092 64.6378 179.948 65.1498 179.164C65.6618 178.372 66.4058 177.976 67.3818 177.976ZM65.5218 182.596C65.5218 183.764 65.6778 184.648 65.9898 185.248C66.3018 185.848 66.7658 186.148 67.3818 186.148C67.9898 186.148 68.4498 185.848 68.7618 185.248C69.0818 184.648 69.2418 183.764 69.2418 182.596C69.2418 181.42 69.0818 180.528 68.7618 179.92C68.4498 179.312 67.9898 179.008 67.3818 179.008C66.7658 179.008 66.3018 179.312 65.9898 179.92C65.6778 180.52 65.5218 181.412 65.5218 182.596Z" fill="#4E4E4E"/>
<path d="M47.5285 287.68V289C48.0645 289.056 48.5365 289.204 48.9445 289.444C49.3525 289.676 49.6725 289.972 49.9045 290.332C50.1365 290.692 50.2685 291.076 50.3005 291.484L49.2445 291.94C49.2445 291.436 49.0925 291.012 48.7885 290.668C48.4845 290.316 48.0645 290.096 47.5285 290.008V293.02C48.1285 293.148 48.6285 293.292 49.0285 293.452C49.4285 293.612 49.7605 293.86 50.0245 294.196C50.2965 294.532 50.4325 294.984 50.4325 295.552C50.4325 296.296 50.1645 296.9 49.6285 297.364C49.0925 297.828 48.3925 298.096 47.5285 298.168V299.56H46.6285V298.156C45.7805 298.076 45.0845 297.788 44.5405 297.292C43.9965 296.796 43.6845 296.148 43.6045 295.348L44.6845 294.808C44.6845 295.456 44.8525 295.992 45.1885 296.416C45.5245 296.832 46.0045 297.08 46.6285 297.16V293.932C46.0365 293.812 45.5445 293.68 45.1525 293.536C44.7685 293.392 44.4445 293.16 44.1805 292.84C43.9245 292.52 43.7965 292.084 43.7965 291.532C43.7965 291.052 43.9205 290.628 44.1685 290.26C44.4245 289.892 44.7685 289.6 45.2005 289.384C45.6325 289.168 46.1085 289.036 46.6285 288.988V287.68H47.5285ZM44.9605 291.46C44.9605 291.852 45.1045 292.148 45.3925 292.348C45.6805 292.548 46.0925 292.712 46.6285 292.84V289.996C46.1245 290.052 45.7205 290.208 45.4165 290.464C45.1125 290.72 44.9605 291.052 44.9605 291.46ZM47.5285 297.172C48.0565 297.108 48.4765 296.94 48.7885 296.668C49.1085 296.388 49.2685 296.036 49.2685 295.612C49.2685 295.18 49.1165 294.856 48.8125 294.64C48.5165 294.416 48.0885 294.24 47.5285 294.112V297.172ZM54.919 289.18V298H53.803V290.92L51.607 293.584V292L53.899 289.18H54.919ZM60.1396 288.976C61.1156 288.976 61.8596 289.372 62.3716 290.164C62.8836 290.948 63.1396 292.092 63.1396 293.596C63.1396 295.092 62.8836 296.232 62.3716 297.016C61.8596 297.792 61.1156 298.18 60.1396 298.18C59.1636 298.18 58.4196 297.792 57.9076 297.016C57.3956 296.232 57.1396 295.092 57.1396 293.596C57.1396 292.092 57.3956 290.948 57.9076 290.164C58.4196 289.372 59.1636 288.976 60.1396 288.976ZM58.2796 293.596C58.2796 294.764 58.4356 295.648 58.7476 296.248C59.0596 296.848 59.5236 297.148 60.1396 297.148C60.7476 297.148 61.2076 296.848 61.5196 296.248C61.8396 295.648 61.9996 294.764 61.9996 293.596C61.9996 292.42 61.8396 291.528 61.5196 290.92C61.2076 290.312 60.7476 290.008 60.1396 290.008C59.5236 290.008 59.0596 290.312 58.7476 290.92C58.4356 291.52 58.2796 292.412 58.2796 293.596ZM67.3818 288.976C68.3578 288.976 69.1018 289.372 69.6138 290.164C70.1258 290.948 70.3818 292.092 70.3818 293.596C70.3818 295.092 70.1258 296.232 69.6138 297.016C69.1018 297.792 68.3578 298.18 67.3818 298.18C66.4058 298.18 65.6618 297.792 65.1498 297.016C64.6378 296.232 64.3818 295.092 64.3818 293.596C64.3818 292.092 64.6378 290.948 65.1498 290.164C65.6618 289.372 66.4058 288.976 67.3818 288.976ZM65.5218 293.596C65.5218 294.764 65.6778 295.648 65.9898 296.248C66.3018 296.848 66.7658 297.148 67.3818 297.148C67.9898 297.148 68.4498 296.848 68.7618 296.248C69.0818 295.648 69.2418 294.764 69.2418 293.596C69.2418 292.42 69.0818 291.528 68.7618 290.92C68.4498 290.312 67.9898 290.008 67.3818 290.008C66.7658 290.008 66.3018 290.312 65.9898 290.92C65.6778 291.52 65.5218 292.412 65.5218 293.596Z" fill="#4E4E4E"/>
<path d="M60.2433 396.68V398C60.7793 398.056 61.2513 398.204 61.6593 398.444C62.0673 398.676 62.3873 398.972 62.6193 399.332C62.8513 399.692 62.9833 400.076 63.0153 400.484L61.9593 400.94C61.9593 400.436 61.8073 400.012 61.5033 399.668C61.1993 399.316 60.7793 399.096 60.2433 399.008V402.02C60.8433 402.148 61.3433 402.292 61.7433 402.452C62.1433 402.612 62.4753 402.86 62.7393 403.196C63.0113 403.532 63.1473 403.984 63.1473 404.552C63.1473 405.296 62.8793 405.9 62.3433 406.364C61.8073 406.828 61.1073 407.096 60.2433 407.168V408.56H59.3433V407.156C58.4953 407.076 57.7993 406.788 57.2553 406.292C56.7113 405.796 56.3993 405.148 56.3193 404.348L57.3993 403.808C57.3993 404.456 57.5673 404.992 57.9033 405.416C58.2393 405.832 58.7193 406.08 59.3433 406.16V402.932C58.7513 402.812 58.2593 402.68 57.8673 402.536C57.4833 402.392 57.1593 402.16 56.8953 401.84C56.6393 401.52 56.5113 401.084 56.5113 400.532C56.5113 400.052 56.6353 399.628 56.8833 399.26C57.1393 398.892 57.4833 398.6 57.9153 398.384C58.3473 398.168 58.8233 398.036 59.3433 397.988V396.68H60.2433ZM57.6753 400.46C57.6753 400.852 57.8193 401.148 58.1073 401.348C58.3953 401.548 58.8073 401.712 59.3433 401.84V398.996C58.8393 399.052 58.4353 399.208 58.1313 399.464C57.8273 399.72 57.6753 400.052 57.6753 400.46ZM60.2433 406.172C60.7713 406.108 61.1913 405.94 61.5033 405.668C61.8233 405.388 61.9833 405.036 61.9833 404.612C61.9833 404.18 61.8313 403.856 61.5273 403.64C61.2313 403.416 60.8033 403.24 60.2433 403.112V406.172ZM67.3818 397.976C68.3578 397.976 69.1018 398.372 69.6138 399.164C70.1258 399.948 70.3818 401.092 70.3818 402.596C70.3818 404.092 70.1258 405.232 69.6138 406.016C69.1018 406.792 68.3578 407.18 67.3818 407.18C66.4058 407.18 65.6618 406.792 65.1498 406.016C64.6378 405.232 64.3818 404.092 64.3818 402.596C64.3818 401.092 64.6378 399.948 65.1498 399.164C65.6618 398.372 66.4058 397.976 67.3818 397.976ZM65.5218 402.596C65.5218 403.764 65.6778 404.648 65.9898 405.248C66.3018 405.848 66.7658 406.148 67.3818 406.148C67.9898 406.148 68.4498 405.848 68.7618 405.248C69.0818 404.648 69.2418 403.764 69.2418 402.596C69.2418 401.42 69.0818 400.528 68.7618 399.92C68.4498 399.312 67.9898 399.008 67.3818 399.008C66.7658 399.008 66.3018 399.312 65.9898 399.92C65.6778 400.52 65.5218 401.412 65.5218 402.596Z" fill="#4E4E4E"/>
<path d="M169.327 422.18C168.551 422.18 167.839 421.992 167.191 421.616C166.551 421.24 166.043 420.704 165.667 420.008C165.291 419.312 165.103 418.504 165.103 417.584C165.103 416.656 165.307 415.844 165.715 415.148C166.123 414.452 166.671 413.916 167.359 413.54C168.055 413.164 168.811 412.976 169.627 412.976C170.435 412.976 171.191 413.164 171.895 413.54C172.607 413.908 173.143 414.432 173.503 415.112L172.591 415.772C172.343 415.212 171.951 414.78 171.415 414.476C170.887 414.164 170.287 414.008 169.615 414.008C169.007 414.008 168.447 414.148 167.935 414.428C167.423 414.708 167.015 415.12 166.711 415.664C166.407 416.2 166.255 416.836 166.255 417.572C166.255 418.324 166.395 418.968 166.675 419.504C166.963 420.04 167.355 420.448 167.851 420.728C168.347 421.008 168.911 421.148 169.543 421.148C170.071 421.148 170.547 421.032 170.971 420.8C171.395 420.568 171.731 420.244 171.979 419.828C172.235 419.412 172.379 418.94 172.411 418.412H168.907L169.735 417.404H173.539V422H172.411V420.548C172.107 421.02 171.703 421.412 171.199 421.724C170.703 422.028 170.079 422.18 169.327 422.18ZM175.545 413.18H179.121C179.713 413.18 180.225 413.288 180.657 413.504C181.089 413.72 181.421 414.028 181.653 414.428C181.885 414.82 182.001 415.276 182.001 415.796C182.001 416.34 181.873 416.808 181.617 417.2C181.369 417.592 181.033 417.888 180.609 418.088C180.185 418.288 179.713 418.388 179.193 418.388H176.685V422H175.545V413.18ZM179.121 417.368C179.649 417.368 180.069 417.228 180.381 416.948C180.701 416.66 180.861 416.276 180.861 415.796C180.861 415.324 180.709 414.944 180.405 414.656C180.101 414.36 179.681 414.212 179.145 414.212H176.685V417.368H179.121ZM189.669 413.18V414.224H186.789V422H185.649V414.224H182.769V413.18H189.669ZM190.329 418.412H194.469V419.432H190.329V418.412ZM198.78 412.976C199.308 412.976 199.776 413.084 200.184 413.3C200.6 413.516 200.92 413.82 201.144 414.212C201.376 414.596 201.492 415.032 201.492 415.52C201.492 416.152 201.316 416.752 200.964 417.32C200.612 417.88 200.096 418.484 199.416 419.132L197.508 420.98H201.54V422H195.984V420.992L198.42 418.616C199.028 418.024 199.5 417.48 199.836 416.984C200.18 416.48 200.352 415.984 200.352 415.496C200.352 415.048 200.208 414.688 199.92 414.416C199.632 414.144 199.24 414.008 198.744 414.008C198.208 414.008 197.788 414.176 197.484 414.512C197.18 414.84 197.028 415.268 197.028 415.796C197.028 415.964 197.04 416.14 197.064 416.324L195.948 416.132C195.924 415.964 195.912 415.8 195.912 415.64C195.912 415.152 196.032 414.704 196.272 414.296C196.512 413.888 196.848 413.568 197.28 413.336C197.72 413.096 198.22 412.976 198.78 412.976ZM208.751 413.18V422H207.635V414.92L205.439 417.584V416L207.731 413.18H208.751ZM213.78 412.976C214.308 412.976 214.776 413.084 215.184 413.3C215.6 413.516 215.92 413.82 216.144 414.212C216.376 414.596 216.492 415.032 216.492 415.52C216.492 416.152 216.316 416.752 215.964 417.32C215.612 417.88 215.096 418.484 214.416 419.132L212.508 420.98H216.54V422H210.984V420.992L213.42 418.616C214.028 418.024 214.5 417.48 214.836 416.984C215.18 416.48 215.352 415.984 215.352 415.496C215.352 415.048 215.208 414.688 214.92 414.416C214.632 414.144 214.24 414.008 213.744 414.008C213.208 414.008 212.788 414.176 212.484 414.512C212.18 414.84 212.028 415.268 212.028 415.796C212.028 415.964 212.04 416.14 212.064 416.324L210.948 416.132C210.924 415.964 210.912 415.8 210.912 415.64C210.912 415.152 211.032 414.704 211.272 414.296C211.512 413.888 211.848 413.568 212.28 413.336C212.72 413.096 213.22 412.976 213.78 412.976ZM220.853 416.384C221.405 416.384 221.889 416.504 222.305 416.744C222.729 416.976 223.053 417.312 223.277 417.752C223.509 418.184 223.625 418.688 223.625 419.264C223.625 419.84 223.497 420.348 223.241 420.788C222.993 421.228 222.641 421.572 222.185 421.82C221.729 422.06 221.205 422.18 220.613 422.18C219.829 422.18 219.173 421.972 218.645 421.556C218.125 421.132 217.817 420.552 217.721 419.816L218.777 419.396C218.801 419.94 218.977 420.372 219.305 420.692C219.641 421.004 220.081 421.16 220.625 421.16C221.185 421.16 221.637 420.984 221.981 420.632C222.325 420.28 222.497 419.824 222.497 419.264C222.497 418.68 222.329 418.212 221.993 417.86C221.665 417.508 221.229 417.332 220.685 417.332C220.317 417.332 219.981 417.416 219.677 417.584C219.381 417.752 219.141 417.98 218.957 418.268L217.985 418.028L218.249 413.18H223.325V414.188H219.257L219.101 417.068C219.341 416.844 219.601 416.676 219.881 416.564C220.161 416.444 220.485 416.384 220.853 416.384ZM227.019 413.18L229.851 420.704L232.671 413.18H234.351V422H233.235V414.56L230.475 421.916H229.191L226.443 414.56V422H225.327V413.18H227.019Z" fill="#4E4E4E"/>
<path d="M357.622 411.18H361.462C362.054 411.18 362.562 411.288 362.986 411.504C363.418 411.72 363.746 412.02 363.97 412.404C364.194 412.78 364.306 413.212 364.306 413.7C364.306 414.444 364.058 415.044 363.562 415.5C363.066 415.956 362.366 416.184 361.462 416.184H360.958L362.182 416.496L364.642 420H363.298L360.694 416.184H358.762V420H357.622V411.18ZM361.438 415.176C361.982 415.176 362.406 415.044 362.71 414.78C363.014 414.508 363.166 414.148 363.166 413.7C363.166 413.244 363.014 412.884 362.71 412.62C362.406 412.348 361.982 412.212 361.438 412.212H358.762V415.176H361.438ZM368.344 413.556C368.952 413.556 369.48 413.692 369.928 413.964C370.384 414.228 370.732 414.604 370.972 415.092C371.212 415.58 371.332 416.14 371.332 416.772C371.332 416.972 371.324 417.128 371.308 417.24H366.4C366.464 417.88 366.68 418.372 367.048 418.716C367.424 419.052 367.892 419.22 368.452 419.22C369.412 419.22 370.068 418.812 370.42 417.996L371.248 418.704C370.976 419.192 370.588 419.56 370.084 419.808C369.58 420.056 369.028 420.18 368.428 420.18C367.804 420.18 367.252 420.04 366.772 419.76C366.292 419.48 365.92 419.092 365.656 418.596C365.392 418.1 365.26 417.532 365.26 416.892C365.26 416.26 365.392 415.692 365.656 415.188C365.92 414.676 366.288 414.276 366.76 413.988C367.232 413.7 367.76 413.556 368.344 413.556ZM370.144 416.376C370.144 415.808 369.976 415.36 369.64 415.032C369.312 414.696 368.872 414.528 368.32 414.528C367.832 414.528 367.412 414.688 367.06 415.008C366.716 415.328 366.504 415.784 366.424 416.376H370.144ZM375.072 413.556C375.792 413.556 376.388 413.724 376.86 414.06C377.332 414.388 377.608 414.828 377.688 415.38L376.632 415.776C376.608 415.368 376.46 415.048 376.188 414.816C375.916 414.584 375.544 414.468 375.072 414.468C374.656 414.468 374.324 414.556 374.076 414.732C373.836 414.908 373.716 415.132 373.716 415.404C373.716 415.604 373.788 415.768 373.932 415.896C374.076 416.016 374.252 416.108 374.46 416.172C374.676 416.236 374.976 416.308 375.36 416.388C375.88 416.5 376.296 416.612 376.608 416.724C376.928 416.836 377.2 417.016 377.424 417.264C377.656 417.512 377.772 417.848 377.772 418.272C377.772 418.872 377.536 419.34 377.064 419.676C376.6 420.012 375.972 420.18 375.18 420.18C374.396 420.18 373.756 420.004 373.26 419.652C372.764 419.3 372.468 418.836 372.372 418.26L373.452 417.804C373.476 418.268 373.64 418.628 373.944 418.884C374.256 419.14 374.668 419.268 375.18 419.268C375.604 419.268 375.944 419.192 376.2 419.04C376.456 418.888 376.584 418.656 376.584 418.344C376.584 418.144 376.512 417.984 376.368 417.864C376.232 417.744 376.056 417.652 375.84 417.588C375.632 417.524 375.344 417.456 374.976 417.384C374.472 417.28 374.06 417.172 373.74 417.06C373.42 416.948 373.144 416.768 372.912 416.52C372.688 416.264 372.576 415.916 372.576 415.476C372.576 415.116 372.688 414.788 372.912 414.492C373.136 414.196 373.44 413.968 373.824 413.808C374.208 413.64 374.624 413.556 375.072 413.556ZM380.847 411.18L385.119 418.476V411.18H386.247V420H384.795L380.511 412.704V420H379.395V411.18H380.847ZM390.914 413.556C391.522 413.556 392.05 413.692 392.498 413.964C392.954 414.228 393.302 414.604 393.542 415.092C393.782 415.58 393.902 416.14 393.902 416.772C393.902 416.972 393.894 417.128 393.878 417.24H388.97C389.034 417.88 389.25 418.372 389.618 418.716C389.994 419.052 390.462 419.22 391.022 419.22C391.982 419.22 392.638 418.812 392.99 417.996L393.818 418.704C393.546 419.192 393.158 419.56 392.654 419.808C392.15 420.056 391.598 420.18 390.998 420.18C390.374 420.18 389.822 420.04 389.342 419.76C388.862 419.48 388.49 419.092 388.226 418.596C387.962 418.1 387.83 417.532 387.83 416.892C387.83 416.26 387.962 415.692 388.226 415.188C388.49 414.676 388.858 414.276 389.33 413.988C389.802 413.7 390.33 413.556 390.914 413.556ZM392.714 416.376C392.714 415.808 392.546 415.36 392.21 415.032C391.882 414.696 391.442 414.528 390.89 414.528C390.402 414.528 389.982 414.688 389.63 415.008C389.286 415.328 389.074 415.784 388.994 416.376H392.714ZM397.006 411.444V413.76H398.794V414.744H397.006V418.164C397.006 418.564 397.082 418.828 397.234 418.956C397.394 419.084 397.658 419.148 398.026 419.148C398.178 419.148 398.394 419.12 398.674 419.064V420.036C398.586 420.068 398.454 420.096 398.278 420.12C398.102 420.144 397.962 420.156 397.858 420.156C397.21 420.156 396.722 420.012 396.394 419.724C396.066 419.436 395.902 418.964 395.902 418.308V414.744H394.798V413.76H395.902V412.272L397.006 411.444ZM400.143 416.412H404.283V417.432H400.143V416.412ZM408.87 414.384C409.422 414.384 409.906 414.504 410.322 414.744C410.746 414.976 411.07 415.312 411.294 415.752C411.526 416.184 411.642 416.688 411.642 417.264C411.642 417.84 411.514 418.348 411.258 418.788C411.01 419.228 410.658 419.572 410.202 419.82C409.746 420.06 409.222 420.18 408.63 420.18C407.846 420.18 407.19 419.972 406.662 419.556C406.142 419.132 405.834 418.552 405.738 417.816L406.794 417.396C406.818 417.94 406.994 418.372 407.322 418.692C407.658 419.004 408.098 419.16 408.642 419.16C409.202 419.16 409.654 418.984 409.998 418.632C410.342 418.28 410.514 417.824 410.514 417.264C410.514 416.68 410.346 416.212 410.01 415.86C409.682 415.508 409.246 415.332 408.702 415.332C408.334 415.332 407.998 415.416 407.694 415.584C407.398 415.752 407.158 415.98 406.974 416.268L406.002 416.028L406.266 411.18H411.342V412.188H407.274L407.118 415.068C407.358 414.844 407.618 414.676 407.898 414.564C408.178 414.444 408.502 414.384 408.87 414.384ZM415.864 410.976C416.84 410.976 417.584 411.372 418.096 412.164C418.608 412.948 418.864 414.092 418.864 415.596C418.864 417.092 418.608 418.232 418.096 419.016C417.584 419.792 416.84 420.18 415.864 420.18C414.888 420.18 414.144 419.792 413.632 419.016C413.12 418.232 412.864 417.092 412.864 415.596C412.864 414.092 413.12 412.948 413.632 412.164C414.144 411.372 414.888 410.976 415.864 410.976ZM414.004 415.596C414.004 416.764 414.16 417.648 414.472 418.248C414.784 418.848 415.248 419.148 415.864 419.148C416.472 419.148 416.932 418.848 417.244 418.248C417.564 417.648 417.724 416.764 417.724 415.596C417.724 414.42 417.564 413.528 417.244 412.92C416.932 412.312 416.472 412.008 415.864 412.008C415.248 412.008 414.784 412.312 414.472 412.92C414.16 413.52 414.004 414.412 414.004 415.596Z" fill="#4E4E4E"/>
<path d="M542.788 411.18H546.628C547.22 411.18 547.728 411.288 548.152 411.504C548.584 411.72 548.912 412.02 549.136 412.404C549.36 412.78 549.472 413.212 549.472 413.7C549.472 414.444 549.224 415.044 548.728 415.5C548.232 415.956 547.532 416.184 546.628 416.184H546.124L547.348 416.496L549.808 420H548.464L545.86 416.184H543.928V420H542.788V411.18ZM546.604 415.176C547.148 415.176 547.572 415.044 547.876 414.78C548.18 414.508 548.332 414.148 548.332 413.7C548.332 413.244 548.18 412.884 547.876 412.62C547.572 412.348 547.148 412.212 546.604 412.212H543.928V415.176H546.604ZM553.51 413.556C554.118 413.556 554.646 413.692 555.094 413.964C555.55 414.228 555.898 414.604 556.138 415.092C556.378 415.58 556.498 416.14 556.498 416.772C556.498 416.972 556.49 417.128 556.474 417.24H551.566C551.63 417.88 551.846 418.372 552.214 418.716C552.59 419.052 553.058 419.22 553.618 419.22C554.578 419.22 555.234 418.812 555.586 417.996L556.414 418.704C556.142 419.192 555.754 419.56 555.25 419.808C554.746 420.056 554.194 420.18 553.594 420.18C552.97 420.18 552.418 420.04 551.938 419.76C551.458 419.48 551.086 419.092 550.822 418.596C550.558 418.1 550.426 417.532 550.426 416.892C550.426 416.26 550.558 415.692 550.822 415.188C551.086 414.676 551.454 414.276 551.926 413.988C552.398 413.7 552.926 413.556 553.51 413.556ZM555.31 416.376C555.31 415.808 555.142 415.36 554.806 415.032C554.478 414.696 554.038 414.528 553.486 414.528C552.998 414.528 552.578 414.688 552.226 415.008C551.882 415.328 551.67 415.784 551.59 416.376H555.31ZM560.238 413.556C560.958 413.556 561.554 413.724 562.026 414.06C562.498 414.388 562.774 414.828 562.854 415.38L561.798 415.776C561.774 415.368 561.626 415.048 561.354 414.816C561.082 414.584 560.71 414.468 560.238 414.468C559.822 414.468 559.49 414.556 559.242 414.732C559.002 414.908 558.882 415.132 558.882 415.404C558.882 415.604 558.954 415.768 559.098 415.896C559.242 416.016 559.418 416.108 559.626 416.172C559.842 416.236 560.142 416.308 560.526 416.388C561.046 416.5 561.462 416.612 561.774 416.724C562.094 416.836 562.366 417.016 562.59 417.264C562.822 417.512 562.938 417.848 562.938 418.272C562.938 418.872 562.702 419.34 562.23 419.676C561.766 420.012 561.138 420.18 560.346 420.18C559.562 420.18 558.922 420.004 558.426 419.652C557.93 419.3 557.634 418.836 557.538 418.26L558.618 417.804C558.642 418.268 558.806 418.628 559.11 418.884C559.422 419.14 559.834 419.268 560.346 419.268C560.77 419.268 561.11 419.192 561.366 419.04C561.622 418.888 561.75 418.656 561.75 418.344C561.75 418.144 561.678 417.984 561.534 417.864C561.398 417.744 561.222 417.652 561.006 417.588C560.798 417.524 560.51 417.456 560.142 417.384C559.638 417.28 559.226 417.172 558.906 417.06C558.586 416.948 558.31 416.768 558.078 416.52C557.854 416.264 557.742 415.916 557.742 415.476C557.742 415.116 557.854 414.788 558.078 414.492C558.302 414.196 558.606 413.968 558.99 413.808C559.374 413.64 559.79 413.556 560.238 413.556ZM566.013 411.18L570.285 418.476V411.18H571.413V420H569.961L565.677 412.704V420H564.561V411.18H566.013ZM576.08 413.556C576.688 413.556 577.216 413.692 577.664 413.964C578.12 414.228 578.468 414.604 578.708 415.092C578.948 415.58 579.068 416.14 579.068 416.772C579.068 416.972 579.06 417.128 579.044 417.24H574.136C574.2 417.88 574.416 418.372 574.784 418.716C575.16 419.052 575.628 419.22 576.188 419.22C577.148 419.22 577.804 418.812 578.156 417.996L578.984 418.704C578.712 419.192 578.324 419.56 577.82 419.808C577.316 420.056 576.764 420.18 576.164 420.18C575.54 420.18 574.988 420.04 574.508 419.76C574.028 419.48 573.656 419.092 573.392 418.596C573.128 418.1 572.996 417.532 572.996 416.892C572.996 416.26 573.128 415.692 573.392 415.188C573.656 414.676 574.024 414.276 574.496 413.988C574.968 413.7 575.496 413.556 576.08 413.556ZM577.88 416.376C577.88 415.808 577.712 415.36 577.376 415.032C577.048 414.696 576.608 414.528 576.056 414.528C575.568 414.528 575.148 414.688 574.796 415.008C574.452 415.328 574.24 415.784 574.16 416.376H577.88ZM582.172 411.444V413.76H583.96V414.744H582.172V418.164C582.172 418.564 582.248 418.828 582.4 418.956C582.56 419.084 582.824 419.148 583.192 419.148C583.344 419.148 583.56 419.12 583.84 419.064V420.036C583.752 420.068 583.62 420.096 583.444 420.12C583.268 420.144 583.128 420.156 583.024 420.156C582.376 420.156 581.888 420.012 581.56 419.724C581.232 419.436 581.068 418.964 581.068 418.308V414.744H579.964V413.76H581.068V412.272L582.172 411.444ZM585.309 416.412H589.449V417.432H585.309V416.412ZM594.005 411.18V420H592.889V412.92L590.693 415.584V414L592.985 411.18H594.005ZM599.226 410.976C600.202 410.976 600.946 411.372 601.458 412.164C601.97 412.948 602.226 414.092 602.226 415.596C602.226 417.092 601.97 418.232 601.458 419.016C600.946 419.792 600.202 420.18 599.226 420.18C598.25 420.18 597.506 419.792 596.994 419.016C596.482 418.232 596.226 417.092 596.226 415.596C596.226 414.092 596.482 412.948 596.994 412.164C597.506 411.372 598.25 410.976 599.226 410.976ZM597.366 415.596C597.366 416.764 597.522 417.648 597.834 418.248C598.146 418.848 598.61 419.148 599.226 419.148C599.834 419.148 600.294 418.848 600.606 418.248C600.926 417.648 601.086 416.764 601.086 415.596C601.086 414.42 600.926 413.528 600.606 412.92C600.294 412.312 599.834 412.008 599.226 412.008C598.61 412.008 598.146 412.312 597.834 412.92C597.522 413.52 597.366 414.412 597.366 415.596ZM606.72 411.18V420H605.604V412.92L603.408 415.584V414L605.7 411.18H606.72Z" fill="#4E4E4E"/>
<path d="M272.374 444.18L275.122 451.572L277.894 444.18H279.13L275.758 453H274.45L271.138 444.18H272.374ZM285.657 450.3L286.581 453H285.417L284.637 450.624L284.517 452.148C284.261 452.468 283.937 452.72 283.545 452.904C283.161 453.088 282.713 453.18 282.201 453.18C281.577 453.18 281.025 453.036 280.545 452.748C280.073 452.452 279.705 452.056 279.441 451.56C279.177 451.056 279.045 450.496 279.045 449.88C279.045 449.264 279.177 448.704 279.441 448.2C279.705 447.688 280.073 447.288 280.545 447C281.025 446.704 281.577 446.556 282.201 446.556C282.713 446.556 283.165 446.656 283.557 446.856C283.957 447.048 284.289 447.32 284.553 447.672V446.76H285.657V450.3ZM280.173 449.88C280.173 450.312 280.261 450.704 280.437 451.056C280.621 451.4 280.877 451.672 281.205 451.872C281.541 452.072 281.933 452.172 282.381 452.172C282.813 452.172 283.197 452.072 283.533 451.872C283.869 451.672 284.129 451.4 284.313 451.056C284.497 450.704 284.589 450.312 284.589 449.88C284.589 449.448 284.497 449.056 284.313 448.704C284.129 448.352 283.869 448.076 283.533 447.876C283.197 447.668 282.813 447.564 282.381 447.564C281.933 447.564 281.541 447.668 281.205 447.876C280.877 448.076 280.621 448.352 280.437 448.704C280.261 449.056 280.173 449.448 280.173 449.88ZM288.806 446.76V448.656L289.13 447.264C289.546 446.8 290.126 446.568 290.87 446.568C291.622 446.568 292.206 446.796 292.622 447.252C293.038 447.7 293.246 448.332 293.246 449.148V453H292.142V449.316C292.142 448.156 291.634 447.576 290.618 447.576C290.05 447.576 289.606 447.756 289.286 448.116C288.966 448.476 288.806 448.984 288.806 449.64V453H287.702V446.76H288.806ZM296.037 446.76V453H294.933V446.76H296.037ZM294.849 444.18H296.145V445.452H294.849V444.18ZM298.968 444.18V453H297.864V444.18H298.968ZM301.956 444.18V453H300.852V444.18H301.956ZM310.008 450.3L310.932 453H309.768L308.988 450.624L308.868 452.148C308.612 452.468 308.288 452.72 307.896 452.904C307.512 453.088 307.064 453.18 306.552 453.18C305.928 453.18 305.376 453.036 304.896 452.748C304.424 452.452 304.056 452.056 303.792 451.56C303.528 451.056 303.396 450.496 303.396 449.88C303.396 449.264 303.528 448.704 303.792 448.2C304.056 447.688 304.424 447.288 304.896 447C305.376 446.704 305.928 446.556 306.552 446.556C307.064 446.556 307.516 446.656 307.908 446.856C308.308 447.048 308.64 447.32 308.904 447.672V446.76H310.008V450.3ZM304.524 449.88C304.524 450.312 304.612 450.704 304.788 451.056C304.972 451.4 305.228 451.672 305.556 451.872C305.892 452.072 306.284 452.172 306.732 452.172C307.164 452.172 307.548 452.072 307.884 451.872C308.22 451.672 308.48 451.4 308.664 451.056C308.848 450.704 308.94 450.312 308.94 449.88C308.94 449.448 308.848 449.056 308.664 448.704C308.48 448.352 308.22 448.076 307.884 447.876C307.548 447.668 307.164 447.564 306.732 447.564C306.284 447.564 305.892 447.668 305.556 447.876C305.228 448.076 304.972 448.352 304.788 448.704C304.612 449.056 304.524 449.448 304.524 449.88ZM315.012 444.18H318.588C319.18 444.18 319.692 444.288 320.124 444.504C320.556 444.72 320.888 445.028 321.12 445.428C321.352 445.82 321.468 446.276 321.468 446.796C321.468 447.34 321.34 447.808 321.084 448.2C320.836 448.592 320.5 448.888 320.076 449.088C319.652 449.288 319.18 449.388 318.66 449.388H316.152V453H315.012V444.18ZM318.588 448.368C319.116 448.368 319.536 448.228 319.848 447.948C320.168 447.66 320.328 447.276 320.328 446.796C320.328 446.324 320.176 445.944 319.872 445.656C319.568 445.36 319.148 445.212 318.612 445.212H316.152V448.368H318.588ZM323.504 446.76L325.544 451.596L327.5 446.76H328.712L325.016 455.58H323.828L324.944 452.916L322.268 446.76H323.504ZM335.429 444.18V445.224H332.549V453H331.409V445.224H328.529V444.18H335.429ZM338.443 446.556C339.067 446.556 339.631 446.696 340.135 446.976C340.647 447.256 341.051 447.648 341.347 448.152C341.643 448.656 341.791 449.228 341.791 449.868C341.791 450.508 341.643 451.08 341.347 451.584C341.051 452.088 340.647 452.48 340.135 452.76C339.631 453.04 339.067 453.18 338.443 453.18C337.827 453.18 337.263 453.04 336.751 452.76C336.247 452.48 335.847 452.088 335.551 451.584C335.263 451.08 335.119 450.508 335.119 449.868C335.119 449.228 335.263 448.656 335.551 448.152C335.847 447.648 336.247 447.256 336.751 446.976C337.263 446.696 337.827 446.556 338.443 446.556ZM336.247 449.868C336.247 450.324 336.339 450.728 336.523 451.08C336.715 451.424 336.979 451.692 337.315 451.884C337.651 452.068 338.027 452.16 338.443 452.16C338.867 452.16 339.247 452.068 339.583 451.884C339.919 451.692 340.179 451.424 340.363 451.08C340.555 450.728 340.651 450.324 340.651 449.868C340.651 449.412 340.555 449.012 340.363 448.668C340.179 448.324 339.919 448.056 339.583 447.864C339.247 447.672 338.867 447.576 338.443 447.576C338.019 447.576 337.639 447.672 337.303 447.864C336.975 448.056 336.715 448.324 336.523 448.668C336.339 449.012 336.247 449.412 336.247 449.868ZM344.248 446.76V448.92L344.572 447.324C344.748 447.14 344.976 446.98 345.256 446.844C345.536 446.708 345.86 446.64 346.228 446.64C346.388 446.64 346.536 446.656 346.672 446.688V447.816C346.48 447.768 346.292 447.744 346.108 447.744C345.54 447.744 345.088 447.924 344.752 448.284C344.416 448.644 344.248 449.208 344.248 449.976V453H343.144V446.76H344.248ZM350.431 446.556C351.071 446.556 351.647 446.712 352.159 447.024C352.671 447.336 353.027 447.74 353.227 448.236L352.255 448.836C352.143 448.444 351.919 448.136 351.583 447.912C351.247 447.688 350.863 447.576 350.431 447.576C349.783 447.576 349.259 447.788 348.859 448.212C348.459 448.628 348.259 449.18 348.259 449.868C348.259 450.564 348.451 451.12 348.835 451.536C349.227 451.952 349.759 452.16 350.431 452.16C350.863 452.16 351.251 452.044 351.595 451.812C351.947 451.572 352.179 451.272 352.291 450.912L353.227 451.512C353.011 452 352.647 452.4 352.135 452.712C351.623 453.024 351.055 453.18 350.431 453.18C349.791 453.18 349.219 453.044 348.715 452.772C348.219 452.492 347.831 452.104 347.551 451.608C347.271 451.104 347.131 450.524 347.131 449.868C347.131 449.228 347.271 448.656 347.551 448.152C347.839 447.648 348.231 447.256 348.727 446.976C349.231 446.696 349.799 446.556 350.431 446.556ZM357.762 446.568C358.53 446.568 359.122 446.796 359.538 447.252C359.954 447.7 360.162 448.332 360.162 449.148V453H359.058V449.316C359.058 448.156 358.538 447.576 357.498 447.576C356.946 447.576 356.51 447.756 356.19 448.116C355.878 448.476 355.722 448.984 355.722 449.64V453H354.618V444.18H355.722V448.644L356.046 447.3C356.222 447.076 356.442 446.9 356.706 446.772C356.97 446.636 357.322 446.568 357.762 446.568Z" fill="#4E4E4E"/>
<path d="M410.268 443.976C411.084 443.976 411.836 444.164 412.524 444.54C413.22 444.908 413.748 445.432 414.108 446.112L413.196 446.772C412.948 446.212 412.564 445.78 412.044 445.476C411.524 445.164 410.94 445.008 410.292 445.008C409.668 445.008 409.096 445.148 408.576 445.428C408.056 445.708 407.64 446.12 407.328 446.664C407.016 447.2 406.86 447.84 406.86 448.584C406.86 449.32 407.012 449.96 407.316 450.504C407.628 451.04 408.044 451.448 408.564 451.728C409.084 452.008 409.656 452.148 410.28 452.148C410.944 452.148 411.54 451.992 412.068 451.68C412.596 451.368 412.98 450.928 413.22 450.36L414.144 451.008C413.752 451.688 413.216 452.22 412.536 452.604C411.856 452.988 411.092 453.18 410.244 453.18C409.428 453.18 408.672 452.992 407.976 452.616C407.288 452.24 406.736 451.704 406.32 451.008C405.912 450.312 405.708 449.5 405.708 448.572C405.708 447.652 405.916 446.844 406.332 446.148C406.756 445.444 407.316 444.908 408.012 444.54C408.708 444.164 409.46 443.976 410.268 443.976ZM418.371 446.556C418.995 446.556 419.559 446.696 420.063 446.976C420.575 447.256 420.979 447.648 421.275 448.152C421.571 448.656 421.719 449.228 421.719 449.868C421.719 450.508 421.571 451.08 421.275 451.584C420.979 452.088 420.575 452.48 420.063 452.76C419.559 453.04 418.995 453.18 418.371 453.18C417.755 453.18 417.191 453.04 416.679 452.76C416.175 452.48 415.775 452.088 415.479 451.584C415.191 451.08 415.047 450.508 415.047 449.868C415.047 449.228 415.191 448.656 415.479 448.152C415.775 447.648 416.175 447.256 416.679 446.976C417.191 446.696 417.755 446.556 418.371 446.556ZM416.175 449.868C416.175 450.324 416.267 450.728 416.451 451.08C416.643 451.424 416.907 451.692 417.243 451.884C417.579 452.068 417.955 452.16 418.371 452.16C418.795 452.16 419.175 452.068 419.511 451.884C419.847 451.692 420.107 451.424 420.291 451.08C420.483 450.728 420.579 450.324 420.579 449.868C420.579 449.412 420.483 449.012 420.291 448.668C420.107 448.324 419.847 448.056 419.511 447.864C419.175 447.672 418.795 447.576 418.371 447.576C417.947 447.576 417.567 447.672 417.231 447.864C416.903 448.056 416.643 448.324 416.451 448.668C416.267 449.012 416.175 449.412 416.175 449.868ZM427.103 449.208C427.103 448.816 427.011 448.444 426.827 448.092C426.643 447.74 426.283 447.564 425.747 447.564C425.251 447.564 424.867 447.748 424.595 448.116C424.323 448.484 424.183 448.984 424.175 449.616V453H423.071V446.76H424.175V448.608L424.535 447.156C424.911 446.756 425.411 446.556 426.035 446.556C426.643 446.556 427.139 446.744 427.523 447.12C427.915 447.488 428.131 447.968 428.171 448.56L428.483 447.156C428.899 446.756 429.423 446.556 430.055 446.556C430.727 446.556 431.259 446.768 431.651 447.192C432.043 447.608 432.239 448.2 432.239 448.968V453H431.135V449.184C431.135 448.64 431.019 448.236 430.787 447.972C430.555 447.7 430.219 447.564 429.779 447.564C429.267 447.564 428.875 447.74 428.603 448.092C428.339 448.436 428.207 448.916 428.207 449.532V453H427.103V449.208ZM437.391 453.18C436.983 453.18 436.619 453.12 436.299 453C435.987 452.888 435.723 452.752 435.507 452.592L435.039 450.96V455.58H433.935V446.76H435.039V447.684C435.303 447.332 435.631 447.056 436.023 446.856C436.423 446.656 436.879 446.556 437.391 446.556C438.015 446.556 438.563 446.704 439.035 447C439.515 447.288 439.887 447.688 440.151 448.2C440.415 448.704 440.547 449.264 440.547 449.88C440.547 450.496 440.415 451.056 440.151 451.56C439.887 452.056 439.515 452.452 439.035 452.748C438.563 453.036 438.015 453.18 437.391 453.18ZM435.003 449.88C435.003 450.312 435.095 450.704 435.279 451.056C435.463 451.4 435.723 451.672 436.059 451.872C436.395 452.072 436.779 452.172 437.211 452.172C437.659 452.172 438.047 452.072 438.375 451.872C438.711 451.672 438.967 451.4 439.143 451.056C439.327 450.704 439.419 450.312 439.419 449.88C439.419 449.448 439.327 449.056 439.143 448.704C438.967 448.352 438.711 448.076 438.375 447.876C438.047 447.668 437.659 447.564 437.211 447.564C436.779 447.564 436.395 447.668 436.059 447.876C435.723 448.076 435.463 448.352 435.279 448.704C435.095 449.056 435.003 449.448 435.003 449.88ZM444.855 446.556C445.479 446.556 446.043 446.696 446.547 446.976C447.059 447.256 447.463 447.648 447.759 448.152C448.055 448.656 448.203 449.228 448.203 449.868C448.203 450.508 448.055 451.08 447.759 451.584C447.463 452.088 447.059 452.48 446.547 452.76C446.043 453.04 445.479 453.18 444.855 453.18C444.239 453.18 443.675 453.04 443.163 452.76C442.659 452.48 442.259 452.088 441.963 451.584C441.675 451.08 441.531 450.508 441.531 449.868C441.531 449.228 441.675 448.656 441.963 448.152C442.259 447.648 442.659 447.256 443.163 446.976C443.675 446.696 444.239 446.556 444.855 446.556ZM442.659 449.868C442.659 450.324 442.751 450.728 442.935 451.08C443.127 451.424 443.391 451.692 443.727 451.884C444.063 452.068 444.439 452.16 444.855 452.16C445.279 452.16 445.659 452.068 445.995 451.884C446.331 451.692 446.591 451.424 446.775 451.08C446.967 450.728 447.063 450.324 447.063 449.868C447.063 449.412 446.967 449.012 446.775 448.668C446.591 448.324 446.331 448.056 445.995 447.864C445.659 447.672 445.279 447.576 444.855 447.576C444.431 447.576 444.051 447.672 443.715 447.864C443.387 448.056 443.127 448.324 442.935 448.668C442.751 449.012 442.659 449.412 442.659 449.868ZM451.836 446.556C452.556 446.556 453.152 446.724 453.624 447.06C454.096 447.388 454.372 447.828 454.452 448.38L453.396 448.776C453.372 448.368 453.224 448.048 452.952 447.816C452.68 447.584 452.308 447.468 451.836 447.468C451.42 447.468 451.088 447.556 450.84 447.732C450.6 447.908 450.48 448.132 450.48 448.404C450.48 448.604 450.552 448.768 450.696 448.896C450.84 449.016 451.016 449.108 451.224 449.172C451.44 449.236 451.74 449.308 452.124 449.388C452.644 449.5 453.06 449.612 453.372 449.724C453.692 449.836 453.964 450.016 454.188 450.264C454.42 450.512 454.536 450.848 454.536 451.272C454.536 451.872 454.3 452.34 453.828 452.676C453.364 453.012 452.736 453.18 451.944 453.18C451.16 453.18 450.52 453.004 450.024 452.652C449.528 452.3 449.232 451.836 449.136 451.26L450.216 450.804C450.24 451.268 450.404 451.628 450.708 451.884C451.02 452.14 451.432 452.268 451.944 452.268C452.368 452.268 452.708 452.192 452.964 452.04C453.22 451.888 453.348 451.656 453.348 451.344C453.348 451.144 453.276 450.984 453.132 450.864C452.996 450.744 452.82 450.652 452.604 450.588C452.396 450.524 452.108 450.456 451.74 450.384C451.236 450.28 450.824 450.172 450.504 450.06C450.184 449.948 449.908 449.768 449.676 449.52C449.452 449.264 449.34 448.916 449.34 448.476C449.34 448.116 449.452 447.788 449.676 447.492C449.9 447.196 450.204 446.968 450.588 446.808C450.972 446.64 451.388 446.556 451.836 446.556ZM458.631 446.556C459.239 446.556 459.767 446.692 460.215 446.964C460.671 447.228 461.019 447.604 461.259 448.092C461.499 448.58 461.619 449.14 461.619 449.772C461.619 449.972 461.611 450.128 461.595 450.24H456.687C456.751 450.88 456.967 451.372 457.335 451.716C457.711 452.052 458.179 452.22 458.739 452.22C459.699 452.22 460.355 451.812 460.707 450.996L461.535 451.704C461.263 452.192 460.875 452.56 460.371 452.808C459.867 453.056 459.315 453.18 458.715 453.18C458.091 453.18 457.539 453.04 457.059 452.76C456.579 452.48 456.207 452.092 455.943 451.596C455.679 451.1 455.547 450.532 455.547 449.892C455.547 449.26 455.679 448.692 455.943 448.188C456.207 447.676 456.575 447.276 457.047 446.988C457.519 446.7 458.047 446.556 458.631 446.556ZM460.431 449.376C460.431 448.808 460.263 448.36 459.927 448.032C459.599 447.696 459.159 447.528 458.607 447.528C458.119 447.528 457.699 447.688 457.347 448.008C457.003 448.328 456.791 448.784 456.711 449.376H460.431ZM464.183 446.76V448.92L464.507 447.324C464.683 447.14 464.911 446.98 465.191 446.844C465.471 446.708 465.795 446.64 466.163 446.64C466.323 446.64 466.471 446.656 466.607 446.688V447.816C466.415 447.768 466.227 447.744 466.043 447.744C465.475 447.744 465.023 447.924 464.687 448.284C464.351 448.644 464.183 449.208 464.183 449.976V453H463.079V446.76H464.183Z" fill="#4E4E4E"/>
<path d="M75.5 403.5H697.5" stroke="#4E4E4E" stroke-miterlimit="10"/>
<path d="M160.04 103.68V105C160.576 105.056 161.048 105.204 161.456 105.444C161.864 105.676 162.184 105.972 162.416 106.332C162.648 106.692 162.78 107.076 162.812 107.484L161.756 107.94C161.756 107.436 161.604 107.012 161.3 106.668C160.996 106.316 160.576 106.096 160.04 106.008V109.02C160.64 109.148 161.14 109.292 161.54 109.452C161.94 109.612 162.272 109.86 162.536 110.196C162.808 110.532 162.944 110.984 162.944 111.552C162.944 112.296 162.676 112.9 162.14 113.364C161.604 113.828 160.904 114.096 160.04 114.168V115.56H159.14V114.156C158.292 114.076 157.596 113.788 157.052 113.292C156.508 112.796 156.196 112.148 156.116 111.348L157.196 110.808C157.196 111.456 157.364 111.992 157.7 112.416C158.036 112.832 158.516 113.08 159.14 113.16V109.932C158.548 109.812 158.056 109.68 157.664 109.536C157.28 109.392 156.956 109.16 156.692 108.84C156.436 108.52 156.308 108.084 156.308 107.532C156.308 107.052 156.432 106.628 156.68 106.26C156.936 105.892 157.28 105.6 157.712 105.384C158.144 105.168 158.62 105.036 159.14 104.988V103.68H160.04ZM157.472 107.46C157.472 107.852 157.616 108.148 157.904 108.348C158.192 108.548 158.604 108.712 159.14 108.84V105.996C158.636 106.052 158.232 106.208 157.928 106.464C157.624 106.72 157.472 107.052 157.472 107.46ZM160.04 113.172C160.568 113.108 160.988 112.94 161.3 112.668C161.62 112.388 161.78 112.036 161.78 111.612C161.78 111.18 161.628 110.856 161.324 110.64C161.028 110.416 160.6 110.24 160.04 110.112V113.172ZM166.987 104.976C167.515 104.976 167.983 105.084 168.391 105.3C168.807 105.516 169.127 105.82 169.351 106.212C169.583 106.596 169.699 107.032 169.699 107.52C169.699 108.152 169.523 108.752 169.171 109.32C168.819 109.88 168.303 110.484 167.623 111.132L165.715 112.98H169.747V114H164.191V112.992L166.627 110.616C167.235 110.024 167.707 109.48 168.043 108.984C168.387 108.48 168.559 107.984 168.559 107.496C168.559 107.048 168.415 106.688 168.127 106.416C167.839 106.144 167.447 106.008 166.951 106.008C166.415 106.008 165.995 106.176 165.691 106.512C165.387 106.84 165.235 107.268 165.235 107.796C165.235 107.964 165.247 108.14 165.271 108.324L164.155 108.132C164.131 107.964 164.119 107.8 164.119 107.64C164.119 107.152 164.239 106.704 164.479 106.296C164.719 105.888 165.055 105.568 165.487 105.336C165.927 105.096 166.427 104.976 166.987 104.976ZM174.06 108.384C174.612 108.384 175.096 108.504 175.512 108.744C175.936 108.976 176.26 109.312 176.484 109.752C176.716 110.184 176.832 110.688 176.832 111.264C176.832 111.84 176.704 112.348 176.448 112.788C176.2 113.228 175.848 113.572 175.392 113.82C174.936 114.06 174.412 114.18 173.82 114.18C173.036 114.18 172.38 113.972 171.852 113.556C171.332 113.132 171.024 112.552 170.928 111.816L171.984 111.396C172.008 111.94 172.184 112.372 172.512 112.692C172.848 113.004 173.288 113.16 173.832 113.16C174.392 113.16 174.844 112.984 175.188 112.632C175.532 112.28 175.704 111.824 175.704 111.264C175.704 110.68 175.536 110.212 175.2 109.86C174.872 109.508 174.436 109.332 173.892 109.332C173.524 109.332 173.188 109.416 172.884 109.584C172.588 109.752 172.348 109.98 172.164 110.268L171.192 110.028L171.456 105.18H176.532V106.188H172.464L172.308 109.068C172.548 108.844 172.808 108.676 173.088 108.564C173.368 108.444 173.692 108.384 174.06 108.384ZM181.138 108.384C181.69 108.384 182.174 108.504 182.59 108.744C183.014 108.976 183.338 109.312 183.562 109.752C183.794 110.184 183.91 110.688 183.91 111.264C183.91 111.84 183.782 112.348 183.526 112.788C183.278 113.228 182.926 113.572 182.47 113.82C182.014 114.06 181.49 114.18 180.898 114.18C180.114 114.18 179.458 113.972 178.93 113.556C178.41 113.132 178.102 112.552 178.006 111.816L179.062 111.396C179.086 111.94 179.262 112.372 179.59 112.692C179.926 113.004 180.366 113.16 180.91 113.16C181.47 113.16 181.922 112.984 182.266 112.632C182.61 112.28 182.782 111.824 182.782 111.264C182.782 110.68 182.614 110.212 182.278 109.86C181.95 109.508 181.514 109.332 180.97 109.332C180.602 109.332 180.266 109.416 179.962 109.584C179.666 109.752 179.426 109.98 179.242 110.268L178.27 110.028L178.534 105.18H183.61V106.188H179.542L179.386 109.068C179.626 108.844 179.886 108.676 180.166 108.564C180.446 108.444 180.77 108.384 181.138 108.384Z" fill="#4E4E4E"/>
<path d="M221.673 226.68V228C222.209 228.056 222.681 228.204 223.089 228.444C223.497 228.676 223.817 228.972 224.049 229.332C224.281 229.692 224.413 230.076 224.445 230.484L223.389 230.94C223.389 230.436 223.237 230.012 222.933 229.668C222.629 229.316 222.209 229.096 221.673 229.008V232.02C222.273 232.148 222.773 232.292 223.173 232.452C223.573 232.612 223.905 232.86 224.169 233.196C224.441 233.532 224.577 233.984 224.577 234.552C224.577 235.296 224.309 235.9 223.773 236.364C223.237 236.828 222.537 237.096 221.673 237.168V238.56H220.773V237.156C219.925 237.076 219.229 236.788 218.685 236.292C218.141 235.796 217.829 235.148 217.749 234.348L218.829 233.808C218.829 234.456 218.997 234.992 219.333 235.416C219.669 235.832 220.149 236.08 220.773 236.16V232.932C220.181 232.812 219.689 232.68 219.297 232.536C218.913 232.392 218.589 232.16 218.325 231.84C218.069 231.52 217.941 231.084 217.941 230.532C217.941 230.052 218.065 229.628 218.313 229.26C218.569 228.892 218.913 228.6 219.345 228.384C219.777 228.168 220.253 228.036 220.773 227.988V226.68H221.673ZM219.105 230.46C219.105 230.852 219.249 231.148 219.537 231.348C219.825 231.548 220.237 231.712 220.773 231.84V228.996C220.269 229.052 219.865 229.208 219.561 229.464C219.257 229.72 219.105 230.052 219.105 230.46ZM221.673 236.172C222.201 236.108 222.621 235.94 222.933 235.668C223.253 235.388 223.413 235.036 223.413 234.612C223.413 234.18 223.261 233.856 222.957 233.64C222.661 233.416 222.233 233.24 221.673 233.112V236.172ZM229.064 228.18V237H227.948V229.92L225.752 232.584V231L228.044 228.18H229.064ZM230.984 233.892L235.076 228.18H236.312L232.232 233.88H235.124V231.72L236.228 230.184V233.88H237.524V234.912H236.228V237H235.124V234.912H230.984V233.892ZM241.505 231.384C242.057 231.384 242.541 231.504 242.957 231.744C243.381 231.976 243.705 232.312 243.929 232.752C244.161 233.184 244.277 233.688 244.277 234.264C244.277 234.84 244.149 235.348 243.893 235.788C243.645 236.228 243.293 236.572 242.837 236.82C242.381 237.06 241.857 237.18 241.265 237.18C240.481 237.18 239.825 236.972 239.297 236.556C238.777 236.132 238.469 235.552 238.373 234.816L239.429 234.396C239.453 234.94 239.629 235.372 239.957 235.692C240.293 236.004 240.733 236.16 241.277 236.16C241.837 236.16 242.289 235.984 242.633 235.632C242.977 235.28 243.149 234.824 243.149 234.264C243.149 233.68 242.981 233.212 242.645 232.86C242.317 232.508 241.881 232.332 241.337 232.332C240.969 232.332 240.633 232.416 240.329 232.584C240.033 232.752 239.793 232.98 239.609 233.268L238.637 233.028L238.901 228.18H243.977V229.188H239.909L239.753 232.068C239.993 231.844 240.253 231.676 240.533 231.564C240.813 231.444 241.137 231.384 241.505 231.384Z" fill="#EA4335"/>
<path d="M199 403H141V122C141 120.895 141.895 120 143 120H197C198.105 120 199 120.895 199 122V403Z" fill="#757575"/>
<path d="M349.482 257.68V259C350.018 259.056 350.49 259.204 350.898 259.444C351.306 259.676 351.626 259.972 351.858 260.332C352.09 260.692 352.222 261.076 352.254 261.484L351.198 261.94C351.198 261.436 351.046 261.012 350.742 260.668C350.438 260.316 350.018 260.096 349.482 260.008V263.02C350.082 263.148 350.582 263.292 350.982 263.452C351.382 263.612 351.714 263.86 351.978 264.196C352.25 264.532 352.386 264.984 352.386 265.552C352.386 266.296 352.118 266.9 351.582 267.364C351.046 267.828 350.346 268.096 349.482 268.168V269.56H348.582V268.156C347.734 268.076 347.038 267.788 346.494 267.292C345.95 266.796 345.638 266.148 345.558 265.348L346.638 264.808C346.638 265.456 346.806 265.992 347.142 266.416C347.478 266.832 347.958 267.08 348.582 267.16V263.932C347.99 263.812 347.498 263.68 347.106 263.536C346.722 263.392 346.398 263.16 346.134 262.84C345.878 262.52 345.75 262.084 345.75 261.532C345.75 261.052 345.874 260.628 346.122 260.26C346.378 259.892 346.722 259.6 347.154 259.384C347.586 259.168 348.062 259.036 348.582 258.988V257.68H349.482ZM346.914 261.46C346.914 261.852 347.058 262.148 347.346 262.348C347.634 262.548 348.046 262.712 348.582 262.84V259.996C348.078 260.052 347.674 260.208 347.37 260.464C347.066 260.72 346.914 261.052 346.914 261.46ZM349.482 267.172C350.01 267.108 350.43 266.94 350.742 266.668C351.062 266.388 351.222 266.036 351.222 265.612C351.222 265.18 351.07 264.856 350.766 264.64C350.47 264.416 350.042 264.24 349.482 264.112V267.172ZM356.872 259.18V268H355.756V260.92L353.56 263.584V262L355.852 259.18H356.872ZM362.345 259.18V268H361.229V260.92L359.033 263.584V262L361.325 259.18H362.345ZM367.781 258.976C368.509 258.976 369.117 259.172 369.605 259.564C370.093 259.956 370.373 260.476 370.445 261.124L369.389 261.52C369.357 261.024 369.193 260.644 368.897 260.38C368.609 260.116 368.229 259.984 367.757 259.984C367.069 259.984 366.553 260.316 366.209 260.98C365.865 261.636 365.689 262.516 365.681 263.62C365.849 263.292 366.125 263.024 366.509 262.816C366.901 262.608 367.325 262.504 367.781 262.504C368.301 262.504 368.765 262.624 369.173 262.864C369.581 263.104 369.901 263.44 370.133 263.872C370.365 264.304 370.481 264.792 370.481 265.336C370.481 265.888 370.357 266.38 370.109 266.812C369.861 267.244 369.513 267.58 369.065 267.82C368.625 268.06 368.121 268.18 367.553 268.18C366.593 268.18 365.853 267.832 365.333 267.136C364.821 266.432 364.565 265.416 364.565 264.088C364.565 262.528 364.825 261.288 365.345 260.368C365.865 259.44 366.677 258.976 367.781 258.976ZM365.813 265.324C365.813 265.868 365.977 266.312 366.305 266.656C366.641 266.992 367.073 267.16 367.601 267.16C368.113 267.16 368.533 266.992 368.861 266.656C369.189 266.312 369.353 265.876 369.353 265.348C369.353 264.812 369.193 264.376 368.873 264.04C368.553 263.696 368.141 263.524 367.637 263.524C367.101 263.524 366.661 263.692 366.317 264.028C365.981 264.364 365.813 264.796 365.813 265.324Z" fill="#4E4E4E"/>
<path d="M411.327 341.68V343C411.863 343.056 412.335 343.204 412.743 343.444C413.151 343.676 413.471 343.972 413.703 344.332C413.935 344.692 414.067 345.076 414.099 345.484L413.043 345.94C413.043 345.436 412.891 345.012 412.587 344.668C412.283 344.316 411.863 344.096 411.327 344.008V347.02C411.927 347.148 412.427 347.292 412.827 347.452C413.227 347.612 413.559 347.86 413.823 348.196C414.095 348.532 414.231 348.984 414.231 349.552C414.231 350.296 413.963 350.9 413.427 351.364C412.891 351.828 412.191 352.096 411.327 352.168V353.56H410.427V352.156C409.579 352.076 408.883 351.788 408.339 351.292C407.795 350.796 407.483 350.148 407.403 349.348L408.483 348.808C408.483 349.456 408.651 349.992 408.987 350.416C409.323 350.832 409.803 351.08 410.427 351.16V347.932C409.835 347.812 409.343 347.68 408.951 347.536C408.567 347.392 408.243 347.16 407.979 346.84C407.723 346.52 407.595 346.084 407.595 345.532C407.595 345.052 407.719 344.628 407.967 344.26C408.223 343.892 408.567 343.6 408.999 343.384C409.431 343.168 409.907 343.036 410.427 342.988V341.68H411.327ZM408.759 345.46C408.759 345.852 408.903 346.148 409.191 346.348C409.479 346.548 409.891 346.712 410.427 346.84V343.996C409.923 344.052 409.519 344.208 409.215 344.464C408.911 344.72 408.759 345.052 408.759 345.46ZM411.327 351.172C411.855 351.108 412.275 350.94 412.587 350.668C412.907 350.388 413.067 350.036 413.067 349.612C413.067 349.18 412.915 348.856 412.611 348.64C412.315 348.416 411.887 348.24 411.327 348.112V351.172ZM415.166 348.892L419.258 343.18H420.494L416.414 348.88H419.306V346.72L420.41 345.184V348.88H421.706V349.912H420.41V352H419.306V349.912H415.166V348.892ZM425.603 342.976C426.579 342.976 427.323 343.372 427.835 344.164C428.347 344.948 428.603 346.092 428.603 347.596C428.603 349.092 428.347 350.232 427.835 351.016C427.323 351.792 426.579 352.18 425.603 352.18C424.627 352.18 423.883 351.792 423.371 351.016C422.859 350.232 422.603 349.092 422.603 347.596C422.603 346.092 422.859 344.948 423.371 344.164C423.883 343.372 424.627 342.976 425.603 342.976ZM423.743 347.596C423.743 348.764 423.899 349.648 424.211 350.248C424.523 350.848 424.987 351.148 425.603 351.148C426.211 351.148 426.671 350.848 426.983 350.248C427.303 349.648 427.463 348.764 427.463 347.596C427.463 346.42 427.303 345.528 426.983 344.92C426.671 344.312 426.211 344.008 425.603 344.008C424.987 344.008 424.523 344.312 424.211 344.92C423.899 345.52 423.743 346.412 423.743 347.596Z" fill="#EA4335"/>
<path d="M387 403H329V276C329 274.895 329.895 274 331 274H385C386.105 274 387 274.895 387 276V403Z" fill="#757575"/>
<path d="M447 403H389V360C389 358.895 389.895 358 391 358H445C446.105 358 447 358.895 447 360V403Z" fill="#EA4335"/>
<path d="M600.38 332.68V334C600.916 334.056 601.388 334.204 601.796 334.444C602.204 334.676 602.524 334.972 602.756 335.332C602.988 335.692 603.12 336.076 603.152 336.484L602.096 336.94C602.096 336.436 601.944 336.012 601.64 335.668C601.336 335.316 600.916 335.096 600.38 335.008V338.02C600.98 338.148 601.48 338.292 601.88 338.452C602.28 338.612 602.612 338.86 602.876 339.196C603.148 339.532 603.284 339.984 603.284 340.552C603.284 341.296 603.016 341.9 602.48 342.364C601.944 342.828 601.244 343.096 600.38 343.168V344.56H599.48V343.156C598.632 343.076 597.936 342.788 597.392 342.292C596.848 341.796 596.536 341.148 596.456 340.348L597.536 339.808C597.536 340.456 597.704 340.992 598.04 341.416C598.376 341.832 598.856 342.08 599.48 342.16V338.932C598.888 338.812 598.396 338.68 598.004 338.536C597.62 338.392 597.296 338.16 597.032 337.84C596.776 337.52 596.648 337.084 596.648 336.532C596.648 336.052 596.772 335.628 597.02 335.26C597.276 334.892 597.62 334.6 598.052 334.384C598.484 334.168 598.96 334.036 599.48 333.988V332.68H600.38ZM597.812 336.46C597.812 336.852 597.956 337.148 598.244 337.348C598.532 337.548 598.944 337.712 599.48 337.84V334.996C598.976 335.052 598.572 335.208 598.268 335.464C597.964 335.72 597.812 336.052 597.812 336.46ZM600.38 342.172C600.908 342.108 601.328 341.94 601.64 341.668C601.96 341.388 602.12 341.036 602.12 340.612C602.12 340.18 601.968 339.856 601.664 339.64C601.368 339.416 600.94 339.24 600.38 339.112V342.172ZM604.219 339.892L608.311 334.18H609.547L605.467 339.88H608.359V337.72L609.463 336.184V339.88H610.759V340.912H609.463V343H608.359V340.912H604.219V339.892ZM614.523 333.976C615.483 333.976 616.227 334.324 616.755 335.02C617.283 335.708 617.547 336.712 617.547 338.032C617.547 339.656 617.311 340.92 616.839 341.824C616.375 342.728 615.571 343.18 614.427 343.18C613.683 343.18 613.067 342.972 612.579 342.556C612.099 342.14 611.823 341.584 611.751 340.888L612.783 340.468C612.815 341.004 612.979 341.424 613.275 341.728C613.579 342.032 613.971 342.184 614.451 342.184C615.179 342.184 615.691 341.868 615.987 341.236C616.291 340.604 616.439 339.708 616.431 338.548C616.263 338.868 615.983 339.132 615.591 339.34C615.199 339.548 614.775 339.652 614.319 339.652C613.815 339.652 613.355 339.532 612.939 339.292C612.531 339.044 612.207 338.708 611.967 338.284C611.735 337.852 611.619 337.364 611.619 336.82C611.619 336.268 611.739 335.776 611.979 335.344C612.227 334.912 612.571 334.576 613.011 334.336C613.451 334.096 613.955 333.976 614.523 333.976ZM612.723 336.808C612.723 337.352 612.883 337.796 613.203 338.14C613.531 338.476 613.951 338.644 614.463 338.644C615.015 338.644 615.459 338.476 615.795 338.14C616.131 337.796 616.299 337.36 616.299 336.832C616.299 336.28 616.135 335.836 615.807 335.5C615.479 335.164 615.043 334.996 614.499 334.996C613.979 334.996 613.551 335.164 613.215 335.5C612.887 335.836 612.723 336.272 612.723 336.808Z" fill="#EA4335"/>
<path d="M536.153 195.68V197C536.689 197.056 537.161 197.204 537.569 197.444C537.977 197.676 538.297 197.972 538.529 198.332C538.761 198.692 538.893 199.076 538.925 199.484L537.869 199.94C537.869 199.436 537.717 199.012 537.413 198.668C537.109 198.316 536.689 198.096 536.153 198.008V201.02C536.753 201.148 537.253 201.292 537.653 201.452C538.053 201.612 538.385 201.86 538.649 202.196C538.921 202.532 539.057 202.984 539.057 203.552C539.057 204.296 538.789 204.9 538.253 205.364C537.717 205.828 537.017 206.096 536.153 206.168V207.56H535.253V206.156C534.405 206.076 533.709 205.788 533.165 205.292C532.621 204.796 532.309 204.148 532.229 203.348L533.309 202.808C533.309 203.456 533.477 203.992 533.813 204.416C534.149 204.832 534.629 205.08 535.253 205.16V201.932C534.661 201.812 534.169 201.68 533.777 201.536C533.393 201.392 533.069 201.16 532.805 200.84C532.549 200.52 532.421 200.084 532.421 199.532C532.421 199.052 532.545 198.628 532.793 198.26C533.049 197.892 533.393 197.6 533.825 197.384C534.257 197.168 534.733 197.036 535.253 196.988V195.68H536.153ZM533.585 199.46C533.585 199.852 533.729 200.148 534.017 200.348C534.305 200.548 534.717 200.712 535.253 200.84V197.996C534.749 198.052 534.345 198.208 534.041 198.464C533.737 198.72 533.585 199.052 533.585 199.46ZM536.153 205.172C536.681 205.108 537.101 204.94 537.413 204.668C537.733 204.388 537.893 204.036 537.893 203.612C537.893 203.18 537.741 202.856 537.437 202.64C537.141 202.416 536.713 202.24 536.153 202.112V205.172ZM543.544 197.18V206H542.428V198.92L540.232 201.584V200L542.524 197.18H543.544ZM551.273 197.18V198.152C550.145 198.984 549.313 200.064 548.777 201.392C548.241 202.72 547.973 204.256 547.973 206H546.833C546.833 204.88 546.961 203.82 547.217 202.82C547.481 201.812 547.849 200.916 548.321 200.132C548.801 199.34 549.357 198.692 549.989 198.188H545.465V197.18H551.273ZM555.03 196.976C555.558 196.976 556.026 197.084 556.434 197.3C556.85 197.516 557.17 197.82 557.394 198.212C557.626 198.596 557.742 199.032 557.742 199.52C557.742 200.152 557.566 200.752 557.214 201.32C556.862 201.88 556.346 202.484 555.666 203.132L553.758 204.98H557.79V206H552.234V204.992L554.67 202.616C555.278 202.024 555.75 201.48 556.086 200.984C556.43 200.48 556.602 199.984 556.602 199.496C556.602 199.048 556.458 198.688 556.17 198.416C555.882 198.144 555.49 198.008 554.994 198.008C554.458 198.008 554.038 198.176 553.734 198.512C553.43 198.84 553.278 199.268 553.278 199.796C553.278 199.964 553.29 200.14 553.314 200.324L552.198 200.132C552.174 199.964 552.162 199.8 552.162 199.64C552.162 199.152 552.282 198.704 552.522 198.296C552.762 197.888 553.098 197.568 553.53 197.336C553.97 197.096 554.47 196.976 555.03 196.976Z" fill="#4E4E4E"/>
<path d="M636 403H578V350C578 348.895 578.895 348 580 348H634C635.105 348 636 348.895 636 350V403Z" fill="#EA4335"/>
<path d="M574 403H516V214C516 212.895 516.895 212 518 212H572C573.105 212 574 212.895 574 214V403Z" fill="#757575"/>
<path d="M260 403H202V243.94C202 242.868 202.895 242 204 242H258C259.105 242 260 242.868 260 243.94V403Z" fill="#EA4335"/>
</svg>
