<svg xmlns="http://www.w3.org/2000/svg" fill="none" viewBox="169 161 1262.55 199.93">
<rect width="1607" height="488" fill="white"/>
<path d="M421.399 323.18L417.399 305.95L389.029 185.33C387.619 179.33 383.319 161 369.709 161V192.58L396.329 305.93L401.479 327.82C401.786 329.132 401.831 330.492 401.611 331.821C401.391 333.15 400.912 334.423 400.199 335.567C399.486 336.711 398.555 337.702 397.459 338.485C396.362 339.268 395.122 339.827 393.809 340.13C393.036 340.316 392.244 340.41 391.449 340.41C389.146 340.392 386.916 339.604 385.114 338.17C383.313 336.736 382.043 334.74 381.509 332.5L380.959 330.17L375.319 305.93L358.909 236.1L348.689 192.58L338.179 237.34L354.299 305.93L361.629 337.15C362.548 341.075 364.231 344.78 366.583 348.054C368.934 351.328 371.907 354.107 375.332 356.232C378.757 358.357 382.567 359.786 386.545 360.439C390.522 361.091 394.589 360.954 398.514 360.035C402.439 359.116 406.144 357.433 409.418 355.081C412.692 352.73 415.471 349.757 417.596 346.332C419.721 342.907 421.15 339.097 421.803 335.119C422.455 331.142 422.318 327.075 421.399 323.15V323.18Z" fill="#13294E"/>
<path d="M421.399 323.18L417.399 305.95L389.029 185.33C387.619 179.33 383.319 161 369.709 161V192.58L396.329 305.93L401.479 327.82C401.786 329.132 401.831 330.492 401.611 331.821C401.391 333.15 400.912 334.423 400.199 335.567C399.486 336.711 398.555 337.702 397.459 338.485C396.362 339.268 395.122 339.827 393.809 340.13C393.036 340.316 392.244 340.41 391.449 340.41C389.146 340.392 386.916 339.604 385.114 338.17C383.313 336.736 382.043 334.74 381.509 332.5L380.959 330.17L375.319 305.93L358.909 236.1L348.689 192.58L338.179 237.34L354.299 305.93L361.629 337.15C362.548 341.075 364.231 344.78 366.583 348.054C368.934 351.328 371.907 354.107 375.332 356.232C378.757 358.357 382.567 359.786 386.545 360.439C390.522 361.091 394.589 360.954 398.514 360.035C402.439 359.116 406.144 357.433 409.418 355.081C412.692 352.73 415.471 349.757 417.596 346.332C419.721 342.907 421.15 339.097 421.803 335.119C422.455 331.142 422.318 327.075 421.399 323.15V323.18Z" fill="url(#paint0_linear_5_2)"/>
<path d="M282.749 185.33C281.339 179.33 277.039 161 263.439 161V192.58L290.059 305.93L295.549 329.33L306.059 284.57L282.749 185.33Z" fill="url(#paint1_linear_5_2)"/>
<path d="M242.589 193.31L232.079 238.06L248.019 305.93L255.219 336.58C255.989 339.85 257.609 346.74 261.109 352.35C269.689 348.27 273.019 335.71 274.339 330.15L274.539 329.33L269.039 305.93L242.589 193.31Z" fill="url(#paint2_linear_5_2)"/>
<path d="M295.549 329.35L306.059 284.59L282.749 185.33C281.339 179.33 277.039 161 263.439 161V192.58L290.059 305.93L295.549 329.35Z" fill="#13294E"/>
<path d="M269.039 305.93L242.589 193.31L232.079 238.06L248.019 305.93L255.219 336.58C255.989 339.85 257.609 346.74 261.109 352.35C269.689 348.27 273.019 335.71 274.339 330.15L274.539 329.33L269.039 305.93Z" fill="#13294E"/>
<path d="M369.709 161C356.109 161 351.809 179.31 350.399 185.33L348.689 192.58L316.569 329.35C316.519 329.6 316.449 329.89 316.379 330.17C315.049 335.73 311.729 348.29 303.139 352.37C306.089 357.1 310.359 360.93 316.579 360.93C330.179 360.93 334.479 342.62 335.889 336.6L337.399 330.17L369.709 192.58C370.899 187.53 374.119 173.85 383.149 169.58C380.199 164.83 375.929 161 369.709 161Z" fill="#EE3932"/>
<path d="M276.989 169.56C274.039 164.83 269.769 161 263.549 161C249.949 161 245.649 179.31 244.239 185.33L242.539 192.58L210.219 330.17L209.679 332.5C209.142 334.738 207.871 336.732 206.07 338.166C204.269 339.599 202.041 340.389 199.739 340.41C198.944 340.411 198.152 340.317 197.379 340.13C194.739 339.509 192.453 337.867 191.023 335.563C189.592 333.259 189.134 330.481 189.749 327.84L221.519 192.58C222.699 187.53 225.919 173.85 234.949 169.58C231.999 164.85 227.739 161.02 221.519 161.02C207.909 161.02 203.609 179.33 202.199 185.35L200.499 192.6L169.809 323.18C167.952 331.106 169.321 339.445 173.612 346.362C177.904 353.279 184.768 358.208 192.694 360.065C200.62 361.922 208.959 360.553 215.876 356.262C222.793 351.97 227.722 345.106 229.579 337.18L231.219 330.18L263.529 192.59C264.739 187.53 267.959 173.85 276.989 169.56Z" fill="#EE3932"/>
<path d="M341.109 169.56C338.159 164.83 333.889 161 327.669 161C314.069 161 309.769 179.31 308.359 185.33L306.659 192.58L274.539 329.35L274.339 330.17C273.019 335.73 269.689 348.29 261.099 352.37C264.049 357.1 268.319 360.93 274.539 360.93C288.139 360.93 292.439 342.62 293.849 336.6L295.359 330.17L327.679 192.58C328.859 187.53 332.079 173.85 341.109 169.56Z" fill="#EE3932"/>
<path d="M549.174 208.051C559.997 208.051 569.675 210.725 578.206 216.073C586.737 221.421 592.658 228.17 595.969 236.319L574.004 249.116C572.858 243.513 569.993 239.057 565.409 235.746C560.825 232.435 555.413 230.78 549.174 230.78C540.897 230.78 534.212 233.454 529.119 238.802C524.026 244.15 521.479 251.535 521.479 260.958C521.479 270.381 523.962 277.766 528.928 283.114C534.021 288.462 540.77 291.136 549.174 291.136C555.031 291.136 560.252 289.481 564.836 286.17C569.547 282.732 572.603 278.466 574.004 273.373L595.396 285.788C591.958 293.937 586.037 300.686 577.633 306.034C569.356 311.255 559.87 313.865 549.174 313.865C538.605 313.865 529.246 311.637 521.097 307.18C513.075 302.723 506.836 296.484 502.379 288.462C497.922 280.44 495.694 271.272 495.694 260.958C495.694 250.771 497.986 241.667 502.57 233.645C507.154 225.496 513.457 219.193 521.479 214.736C529.628 210.279 538.86 208.051 549.174 208.051ZM663.158 208.051C673.472 208.051 682.703 210.343 690.853 214.927C699.129 219.384 705.623 225.623 710.335 233.645C715.046 241.667 717.402 250.771 717.402 260.958C717.402 271.145 715.046 280.249 710.335 288.271C705.623 296.293 699.129 302.596 690.853 307.18C682.703 311.637 673.472 313.865 663.158 313.865C652.844 313.865 643.548 311.637 635.272 307.18C627.122 302.596 620.692 296.293 615.981 288.271C611.269 280.249 608.914 271.145 608.914 260.958C608.914 250.771 611.269 241.667 615.981 233.645C620.692 225.623 627.122 219.384 635.272 214.927C643.548 210.343 652.844 208.051 663.158 208.051ZM634.699 260.958C634.699 270.126 637.373 277.448 642.721 282.923C648.069 288.398 654.881 291.136 663.158 291.136C671.434 291.136 678.247 288.398 683.595 282.923C688.943 277.448 691.617 270.126 691.617 260.958C691.617 251.79 688.943 244.468 683.595 238.993C678.247 233.518 671.434 230.78 663.158 230.78C654.881 230.78 648.069 233.518 642.721 238.993C637.373 244.468 634.699 251.79 634.699 260.958ZM797.373 251.599C797.373 245.742 795.972 240.839 793.171 236.892C790.497 232.817 786.295 230.78 780.565 230.78C774.453 230.78 769.741 233.072 766.431 237.656C763.12 242.24 761.337 248.543 761.083 256.565V311H736.253V211.68H761.083V238.993L767.004 216.073C772.734 210.725 779.864 208.051 788.396 208.051C797.182 208.051 804.503 210.725 810.361 216.073C816.345 221.294 820.102 228.552 821.63 237.847L826.978 216.073C829.015 213.908 831.816 212.062 835.382 210.534C839.074 208.879 843.34 208.051 848.179 208.051C859.257 208.051 867.852 211.489 873.964 218.365C880.203 225.114 883.323 234.791 883.323 247.397V311H858.493V251.408C858.493 244.532 857.028 239.375 854.1 235.937C851.171 232.499 846.905 230.78 841.303 230.78C834.936 230.78 830.161 232.945 826.978 237.274C823.794 241.603 822.203 247.906 822.203 256.183V311H797.373V251.599ZM964.417 313.865C954.485 313.865 945.954 311.509 938.823 306.798L931.565 280.631V352.065H906.735V211.68H931.565V222.376C939.842 212.826 950.856 208.051 964.608 208.051C974.285 208.051 982.88 210.407 990.393 215.118C998.033 219.702 1003.95 226.069 1008.16 234.218C1012.49 242.24 1014.65 251.281 1014.65 261.34C1014.65 271.272 1012.49 280.249 1008.16 288.271C1003.95 296.166 998.033 302.405 990.393 306.989C982.753 311.573 974.094 313.865 964.417 313.865ZM930.801 261.34C930.801 267.325 932.074 272.609 934.621 277.193C937.168 281.65 940.606 285.151 944.935 287.698C949.392 290.117 954.294 291.327 959.642 291.327C968.173 291.327 975.177 288.589 980.652 283.114C986.127 277.511 988.865 270.253 988.865 261.34C988.865 252.299 986.127 244.914 980.652 239.184C975.177 233.454 968.173 230.589 959.642 230.589C954.294 230.589 949.392 231.862 944.935 234.409C940.606 236.956 937.168 240.585 934.621 245.296C932.074 249.88 930.801 255.228 930.801 261.34ZM1082.28 208.051C1092.59 208.051 1101.82 210.343 1109.97 214.927C1118.25 219.384 1124.74 225.623 1129.45 233.645C1134.16 241.667 1136.52 250.771 1136.52 260.958C1136.52 271.145 1134.16 280.249 1129.45 288.271C1124.74 296.293 1118.25 302.596 1109.97 307.18C1101.82 311.637 1092.59 313.865 1082.28 313.865C1071.96 313.865 1062.67 311.637 1054.39 307.18C1046.24 302.596 1039.81 296.293 1035.1 288.271C1030.39 280.249 1028.03 271.145 1028.03 260.958C1028.03 250.771 1030.39 241.667 1035.1 233.645C1039.81 225.623 1046.24 219.384 1054.39 214.927C1062.67 210.343 1071.96 208.051 1082.28 208.051ZM1053.82 260.958C1053.82 270.126 1056.49 277.448 1061.84 282.923C1067.19 288.398 1074 291.136 1082.28 291.136C1090.55 291.136 1097.36 288.398 1102.71 282.923C1108.06 277.448 1110.73 270.126 1110.73 260.958C1110.73 251.79 1108.06 244.468 1102.71 238.993C1097.36 233.518 1090.55 230.78 1082.28 230.78C1074 230.78 1067.19 233.518 1061.84 238.993C1056.49 244.468 1053.82 251.79 1053.82 260.958ZM1193.19 208.051C1205.29 208.051 1215.28 210.598 1223.18 215.691C1231.2 220.784 1236.16 227.724 1238.07 236.51L1214.77 245.296C1214.39 239.566 1212.29 235.173 1208.47 232.117C1204.78 228.934 1199.68 227.342 1193.19 227.342C1188.1 227.342 1184.08 228.424 1181.16 230.589C1178.23 232.626 1176.76 235.364 1176.76 238.802C1176.76 242.113 1178.55 244.596 1182.11 246.251C1185.8 247.779 1191.53 249.243 1199.3 250.644C1207.45 252.172 1214.2 253.891 1219.55 255.801C1224.89 257.584 1229.48 260.64 1233.3 264.969C1237.25 269.171 1239.22 274.901 1239.22 282.159C1239.22 292.6 1235.15 300.495 1227 305.843C1218.97 311.191 1208.6 313.865 1195.86 313.865C1183 313.865 1172.37 311.318 1163.97 306.225C1155.56 301.132 1150.47 293.937 1148.69 284.642L1172.18 274.519C1172.69 281.395 1175.04 286.425 1179.25 289.608C1183.58 292.791 1189.11 294.383 1195.86 294.383C1200.7 294.383 1204.71 293.492 1207.9 291.709C1211.21 289.799 1212.86 287.125 1212.86 283.687C1212.86 280.122 1211.08 277.575 1207.51 276.047C1203.95 274.519 1198.15 272.927 1190.13 271.272C1182.24 269.744 1175.68 268.089 1170.46 266.306C1165.24 264.523 1160.72 261.595 1156.9 257.52C1153.21 253.318 1151.36 247.588 1151.36 240.33C1151.36 234.218 1153.27 228.743 1157.09 223.904C1160.91 218.938 1166 215.054 1172.37 212.253C1178.74 209.452 1185.68 208.051 1193.19 208.051ZM1302.84 208.051C1312.27 208.051 1320.54 210.216 1327.67 214.545C1334.8 218.874 1340.28 224.923 1344.1 232.69C1348.05 240.457 1350.02 249.371 1350.02 259.43C1350.02 263.25 1349.83 266.433 1349.45 268.98H1278.78C1280.94 285.151 1289.6 293.237 1304.75 293.237C1311.25 293.237 1316.6 291.9 1320.8 289.226C1325.13 286.552 1328.56 282.35 1331.11 276.62L1348.68 292.664C1343.97 299.667 1337.73 304.952 1329.97 308.517C1322.2 312.082 1313.54 313.865 1303.99 313.865C1293.55 313.865 1284.44 311.637 1276.68 307.18C1268.91 302.723 1262.92 296.548 1258.72 288.653C1254.52 280.758 1252.42 271.781 1252.42 261.722C1252.42 251.408 1254.58 242.176 1258.91 234.027C1263.24 225.878 1269.23 219.511 1276.87 214.927C1284.51 210.343 1293.17 208.051 1302.84 208.051ZM1323.66 251.408C1323.66 244.532 1321.75 239.057 1317.93 234.982C1314.11 230.78 1308.83 228.679 1302.08 228.679C1295.97 228.679 1290.87 230.589 1286.8 234.409C1282.72 238.102 1280.11 243.768 1278.97 251.408H1323.66ZM1395.26 211.68V244.341L1400.8 218.365C1402.97 215.946 1405.83 213.845 1409.4 212.062C1412.96 210.152 1417.04 209.197 1421.62 209.197C1425.57 209.197 1428.88 209.706 1431.55 210.725V234.982C1427.22 233.709 1422.96 233.072 1418.76 233.072C1411.5 233.072 1405.77 235.682 1401.57 240.903C1397.36 246.124 1395.26 253.509 1395.26 263.059V311H1370.43V211.68H1395.26Z" fill="#EE3932"/>
<defs>
<linearGradient id="paint0_linear_5_2" x1="346.309" y1="250.99" x2="379.109" y2="260.85" gradientUnits="userSpaceOnUse">
<stop stop-color="#070D19"/>
<stop offset="1" stop-color="#13294E" stop-opacity="0"/>
</linearGradient>
<linearGradient id="paint1_linear_5_2" x1="14285.4" y1="46029.2" x2="15693.9" y2="46146.3" gradientUnits="userSpaceOnUse">
<stop stop-color="#070D19"/>
<stop offset="1" stop-color="#13294E" stop-opacity="0"/>
</linearGradient>
<linearGradient id="paint2_linear_5_2" x1="13734.4" y1="48858" x2="15136.9" y2="48980.8" gradientUnits="userSpaceOnUse">
<stop stop-color="#070D19"/>
<stop offset="1" stop-color="#13294E" stop-opacity="0"/>
</linearGradient>
</defs>
</svg>
